<?xml version="1.0" encoding="utf-8"?>
<!-- Generator: Adobe Illustrator 22.0.1, SVG Export Plug-In . SVG Version: 6.00 Build 0)  -->
<svg version="1.0" id="Layer_1" xmlns="http://www.w3.org/2000/svg" xmlns:xlink="http://www.w3.org/1999/xlink" x="0px" y="0px"
	 viewBox="0 0 500 500" style="enable-background:new 0 0 500 500;" xml:space="preserve">
<style type="text/css">
	.st0{fill-rule:evenodd;clip-rule:evenodd;fill:#F15B24;}
	.st1{fill-rule:evenodd;clip-rule:evenodd;fill:#B6DCAE;}
	.st2{fill-rule:evenodd;clip-rule:evenodd;fill:#B092C4;}
	.st3{fill-rule:evenodd;clip-rule:evenodd;fill:#FFE600;}
	.st4{fill-rule:evenodd;clip-rule:evenodd;fill:#5EA8DC;}
</style>
<g>
	<path class="st0" d="M123.5,37.4l109.5,137c13.7,15.8-11.3,37.2-24.3,20.9L98.4,57.5C85.8,41.7,110.9,21.7,123.5,37.4L123.5,37.4z"
		/>
	<path class="st1" d="M102.2,432.6l116.9-146.4c12.4-16.8,38.2,3.7,25.1,20.1L127.4,452.7C114.8,468.4,89.7,448.3,102.2,432.6
		L102.2,432.6z"/>
	<path class="st2" d="M305.9,488.4l-41.5-182.7c-5.4-20.2,26.7-27.5,31.4-7.1l41.5,182.7C341.7,500.9,310.4,508,305.9,488.4
		L305.9,488.4z"/>
	<path class="st3" d="M347.4,229.9c-16.1,8.8-19.3,32.2,0,42.6l140.3,67.6c18.1,8.7,4.2,37.7-13.9,29l-140-67.7
		c-40.2-19.3-48.3-78,0.8-101.3L473,132.9c18.1-8.7,32.1,20.2,14,29L347.4,229.9L347.4,229.9z"/>
	<path class="st4" d="M265,193.8l41.7-182.4c5.1-19.3,35.8-12.5,31.4,7.1l-41.4,182.9c-6.5,34.9-26.1,65.4-66.7,65.4h-28.5H20.1
		c-20.1,0-20.1-32.2,0-32.2h185.8h16.9C246.8,234.7,259.4,222,265,193.8L265,193.8z"/>
</g>
</svg>
