<svg xmlns="http://www.w3.org/2000/svg" viewBox="0 0 399.93 399.93"><defs><style>.cls-1{fill:#232323;}.cls-2{fill:#fff;}</style></defs><title>Asset 1</title><g id="Layer_2" data-name="Layer 2"><g id="Layer_1-2" data-name="Layer 1"><circle class="cls-1" cx="199.97" cy="199.97" r="199.97"/><path class="cls-2" d="M194.26,306.88V283.22c-1.7-.11-3.14-.29-4.59-.29-7,0-14-.06-21,0s-15.62-2.17-21.12.9c-8.31,4.64-14.62,12.92-21.58,19.86-.79.79-.73,3-.32,4.32,2.56,8.09.17,15.57-6.65,20.1a18.59,18.59,0,0,1-22.65-1.7,17,17,0,0,1-3.73-20.52c3.74-7.1,11.92-11.13,19.81-8.89,3.87,1.1,6,.05,8.6-2.51,6.22-6.27,12.8-12.18,19-18.44a10,10,0,0,1,7.88-3.21c15.31.15,30.62.07,46.26.07V247.22c-10.24,0-20.24.64-30.11-.19-9.26-.77-16.63,1.56-22.14,9-8.57,11.51-19.84,15.06-33.89,13.51-9.71-1.07-19.64-.06-29.47-.28-3.29-.08-4.89.95-6.39,3.95-3.65,7.28-9.95,10.45-18.07,9.85a17.94,17.94,0,0,1-15.21-12,16.6,16.6,0,0,1,8.53-20.21c8.08-4.13,18.7-2.08,23.21,5.16,2,3.21,4,4,7.55,4,13.83-.19,27.66,0,41.49-.2a10.77,10.77,0,0,0,6.45-2.59c6-5.48,11.64-11.46,17.69-16.94a10.85,10.85,0,0,1,6.51-2.62q19.74-.36,39.49,0c3.8.06,4.8-1.18,4.79-4.86-.05-11.43.09-11.43-11.12-11.43-20.17,0-40.33.05-60.49-.06-3,0-4.7.6-6.21,3.51-3.87,7.43-12.34,10.67-20.46,8.42-8-2.2-13.35-8.88-13.4-16.63,0-7.92,5.42-14.69,13.68-16.93a17.41,17.41,0,0,1,20.3,8.77c1.43,2.81,3.14,3.28,5.85,3.27,22.33-.06,44.66-.11,67,0,3.7,0,5.12-1,4.83-4.78s-.06-7.58-.06-11.9c-12.19,0-23.81-.18-35.42.1A12.3,12.3,0,0,1,149,191.06q-7.59-8-15.89-15.19a11.7,11.7,0,0,0-6.9-2.75c-13.49-.26-27,0-40.49-.22-3.51-.06-5.61.87-7.64,3.88-4.37,6.49-13,8.92-20.45,6.39s-12-8.79-11.86-16.59a17.08,17.08,0,0,1,12.52-16.2c9.45-2.79,17.37,1.43,23.28,12.59,15.84,0,31.83.12,47.82-.08a10.79,10.79,0,0,1,8.72,3.66Q146.26,175,154.9,183a9.41,9.41,0,0,0,5.55,2.49q15,.36,30,0c1.38,0,3.89-1.78,3.9-2.75.18-18.16.06-36.32,0-54.48,0-.29-.3-.58-.69-1.3-12.23,0-24.82-1.06-37.15.27-14.78,1.59-26.16-2.64-35-14.37a38.56,38.56,0,0,0-3.92-3.85c-4.13-4.12-7.44-8.13-15-6.33-8.08,1.92-15.48-3.79-18.09-11A17.21,17.21,0,0,1,90.7,72.17a18.56,18.56,0,0,1,21.91.26c6,4.62,8.1,12.53,5.34,20.25-.27.76-.57,1.51.58,1.11,6.61,7.28,13.17,14.61,19.87,21.8a6,6,0,0,0,3.87,1.83c17.64.12,35.28.08,53.29.08V100.44c-7.62,0-15.08-.14-22.54.12-1.27,0-2.73,1.54-3.69,2.71-5.25,6.29-13.78,7.07-19.33,1.64a12.08,12.08,0,0,1,.33-17.42c5.76-5.36,14.07-4.3,19.32,2,1.28,1.53,4.1,2.5,6.22,2.5,37.16.12,74.32.05,111.48,0h6.32V126.7H224.36v58.59h41.4v35.13h-41.4v60.13h67.95v34.76h-6.23q-55,0-110-.05c-3,0-5.06.57-6.93,3.42-4.06,6.17-12.83,6.91-18.47,2.08A12.14,12.14,0,0,1,150,303c5.07-5.06,14.46-5.09,18.73.54,2.15,2.83,4.28,3.51,7.47,3.4C182,306.74,187.81,306.88,194.26,306.88ZM111.1,86.37a9.51,9.51,0,0,0-9.51-10.05A10,10,0,0,0,91.47,86c0,5.15,4.17,9.23,9.7,9.4S110.94,91.67,111.1,86.37Zm-57.24,80a9.45,9.45,0,0,0,9,9.94c5.46.34,10.39-3.82,10.64-9s-4.17-9.77-9.7-10A9.54,9.54,0,0,0,53.86,166.41Zm47.53,40.45a9.8,9.8,0,0,0-10,9.58c0,5,4.61,9.39,9.73,9.38s9.8-4.19,9.93-9.13A9.74,9.74,0,0,0,101.39,206.86ZM108.88,323a9.36,9.36,0,0,0,9.49-9.4c-.06-5.24-4.29-9.16-9.8-9.07s-9.75,4-9.78,9.12S103.23,323,108.88,323ZM56.23,275c5.49,0,9.85-4,9.9-9.11s-4.32-9.27-9.72-9.4a9.58,9.58,0,0,0-9.86,9.22A9.35,9.35,0,0,0,56.23,275ZM166,96.32c0-3.8-2.67-6.46-6.63-6.56-4.17-.1-7.27,2.71-7.25,6.56a6.78,6.78,0,0,0,6.76,6.61C163,103.06,166,100.3,166,96.32Zm0,215.08c0-3.7-2.85-6.38-6.76-6.43a6.77,6.77,0,0,0-7.12,6.69c.12,3.38,3.43,6.27,7.14,6.22C163.11,317.82,166,315,166,311.4Z"/><path class="cls-2" d="M277.86,220.46V185.52h23.89c13.63,0,21.9-6.48,23.6-19.85a78.29,78.29,0,0,0-.53-21.34c-1.52-10-8.36-16-18.84-17.7V92.2c11.21-.13,20.58,4,28.69,11,12.42,10.79,18.91,24.72,20.4,40.95,1.75,19.05.74,37.65-10.66,54.17-9.23,13.38-21.4,21.76-38.13,22.09C297,220.62,287.68,220.46,277.86,220.46Z"/><path class="cls-1" d="M111.1,86.37c-.16,5.3-4.42,9.16-9.93,9s-9.74-4.25-9.7-9.4a10,10,0,0,1,10.12-9.64A9.51,9.51,0,0,1,111.1,86.37Z"/><path class="cls-1" d="M53.86,166.41a9.54,9.54,0,0,1,9.93-9c5.53.23,9.95,4.79,9.7,10s-5.18,9.33-10.64,9A9.45,9.45,0,0,1,53.86,166.41Z"/><path class="cls-1" d="M101.39,206.86a9.74,9.74,0,0,1,9.69,9.83c-.13,4.94-4.68,9.12-9.93,9.13s-9.71-4.42-9.73-9.38A9.8,9.8,0,0,1,101.39,206.86Z"/><path class="cls-1" d="M108.88,323c-5.65.06-10.12-4.08-10.09-9.35s4.19-9,9.78-9.12,9.74,3.83,9.8,9.07A9.36,9.36,0,0,1,108.88,323Z"/><path class="cls-1" d="M56.23,275a9.35,9.35,0,0,1-9.68-9.29,9.58,9.58,0,0,1,9.86-9.22c5.4.13,9.76,4.36,9.72,9.4S61.72,274.94,56.23,275Z"/><path class="cls-1" d="M166,96.32c0,4-3,6.74-7.12,6.61a6.78,6.78,0,0,1-6.76-6.61c0-3.85,3.08-6.66,7.25-6.56C163.3,89.86,166,92.52,166,96.32Z"/><path class="cls-1" d="M166,311.4c0,3.63-2.86,6.42-6.74,6.48-3.71.05-7-2.84-7.14-6.22a6.77,6.77,0,0,1,7.12-6.69C163.12,305,165.93,307.7,166,311.4Z"/></g></g></svg>