<?xml version="1.0" encoding="utf-8"?>
<!-- Generator: Adobe Illustrator 22.0.1, SVG Export Plug-In . SVG Version: 6.00 Build 0)  -->
<svg version="1.0"
	 id="svg2484" inkscape:output_extension="org.inkscape.output.svg.inkscape" inkscape:version="0.46" sodipodi:docname="StatistiÄki regioni Republike Srbije.svg" sodipodi:version="0.32" xmlns:cc="http://creativecommons.org/ns#" xmlns:dc="http://purl.org/dc/elements/1.1/" xmlns:inkscape="http://www.inkscape.org/namespaces/inkscape" xmlns:rdf="http://www.w3.org/1999/02/22-rdf-syntax-ns#" xmlns:sodipodi="http://sodipodi.sourceforge.net/DTD/sodipodi-0.dtd" xmlns:svg="http://www.w3.org/2000/svg"
	 xmlns="http://www.w3.org/2000/svg" xmlns:xlink="http://www.w3.org/1999/xlink" x="0px" y="0px" viewBox="0 0 744.1 1052.4"
	 style="enable-background:new 0 0 744.1 1052.4;" xml:space="preserve">
<style type="text/css">
	.st0{fill:#E8E8E8;}
	.st1{fill:none;stroke:#353535;stroke-width:3.1182;stroke-linejoin:round;stroke-miterlimit:3.8637;}
	.st2{fill:#B5B5B5;}
	.st3{fill:#054F88;}
	.st4{fill:#1980D2;}
	.st5{fill:#282828;}
</style>
<defs>
	
	
		<inkscape:perspective  id="perspective2492" inkscape:persp3d-origin="372.04724 : 350.78739 : 1" inkscape:vp_x="0 : 526.18109 : 1" inkscape:vp_y="0 : 1000 : 0" inkscape:vp_z="744.09448 : 526.18109 : 1" sodipodi:type="inkscape:persp3d">
		</inkscape:perspective>
	
		<inkscape:perspective  id="perspective3190" inkscape:persp3d-origin="372.04724 : 350.78739 : 1" inkscape:vp_x="0 : 526.18109 : 1" inkscape:vp_y="0 : 1000 : 0" inkscape:vp_z="744.09448 : 526.18109 : 1" sodipodi:type="inkscape:persp3d">
		</inkscape:perspective>
	
		<inkscape:perspective  id="perspective2435" inkscape:persp3d-origin="372.04724 : 350.78739 : 1" inkscape:vp_x="0 : 526.18109 : 1" inkscape:vp_y="0 : 1000 : 0" inkscape:vp_z="744.09448 : 526.18109 : 1" sodipodi:type="inkscape:persp3d">
		</inkscape:perspective>
</defs>
<sodipodi:namedview  bordercolor="#666666" borderopacity="1.0" gridtolerance="10000" guidetolerance="10" id="base" inkscape:current-layer="layer1" inkscape:cx="378.18391" inkscape:cy="570.91046" inkscape:document-units="px" inkscape:pageopacity="0.0" inkscape:pageshadow="2" inkscape:window-height="1024" inkscape:window-width="1680" inkscape:window-x="0" inkscape:window-y="0" inkscape:zoom="0.7" objecttolerance="10" pagecolor="#ffffff" showgrid="false">
	</sodipodi:namedview>
<path id="path10" class="st0" d="M326.1,1004.2c0-3.2-2.1-6-3-9l1.3,0c1.5-1.1,1.1-3.8,3.8-2.7c0.9-1.3,0.3-0.8,1.7-1.9
	c1-0.8,1.8-7.5,1-8.7c-0.9-1.4-1.8-1.5-2.4-3.5c-0.6-2.3,0-4.7-2-6.7c-0.1-8.4-2.2-5.3-4.2-8.6c-1-1.7-1.6-3.6-2.5-5.3
	c-0.2-0.4,1.7-2.3,1.7-3.4c-2.3-3.2,0.5-3,0.4-5.3c-0.1-2-3.1-3.7-1.5-5.7c-0.6-1.1-1.8-1.8-2.4-2.8c0.4-0.5,0.4-1.2,0-1.7
	c-2-2.6-2-8.2-3.2-10.1c-0.7-1.1-1.2-1.4-1.5-2.8c-4.2-1.4-1.2-3.1-3.8-4.5c-0.9-2.1-1.9-0.8-2.7-3.8c-1.1-0.9-2.1-1.8-3.2-2.7
	c-0.4-0.3-1.6-0.3-2.2-0.9l-2.3-0.2l-0.5-1c-1-0.2-2.5-0.1-3.3-0.8c-0.6-0.6-0.8-3.5-1.9-3.1l-0.5-0.1c-0.5-0.7-4.6-1.9-5.6-2.1
	c0.2-0.3,0.2-1.2,0.2-1.6c-0.5-0.5-0.8-1.2-1.3-1.7c-0.9-0.2-0.8-0.6-1.2-0.7c-2.7-0.9-4,4.1-6.2,2.1c-0.4-0.4-0.8-0.3-1-1
	c-1.5-0.9-5.1,2.1-6,0c-0.5-0.3-1.2,0-1.6-0.5c0.4-1.9-0.2-4.1-2-5c0.6-0.5,1.3-0.9,1.9-1.4c0-1.1,0-2.2,0.2-3.4
	c-0.7-1.2-0.4-1.7-0.8-2.8c-0.8-0.4-5.4-4.2-5.4-4.6c0.5-0.4,0.5-1.1,0.7-1.7c0.3-1,2.5-0.5,2.2-2.7c-0.1-0.9-1-2.9-1.5-3.6
	c-1.7-0.2-1.3-1.9-2-2.5c-2.2-1.7-2.8-0.1-1.2-3.1c0.4-0.7-1.7-2.2-2.1-2.6c-0.7-0.8-0.3-2.1-0.6-3.1c-1.1-0.9-1.6-1.5-2.2-2.8
	c0.3-0.4,0.3-1.1,0.1-1.6c-2.2-0.7-8.4-4.9-10.8-6c-0.5-1.4-0.8-1.9-1.8-3.1c0.1-1.2-0.7-1.5-1.6-2.1c-0.6-1.4,1.3-4,1.2-4.9
	c-0.3-4.7-4.6-7.6,0.1-11.7c1.1-0.9,0.2-2.1,3.5-4.4l0.3-1.4c-0.4-0.2-0.9-0.3-1.4-0.2c-0.6-0.1-1.6-0.8-1.8-1.4
	c-3.7-0.5-5.5-3.7-6.9-4c-1.4-0.4-5.3,0.1-7.6-0.7l0.2-1.3c-3.2,0.2-2-1.5-2.7-3.4l-1.3-0.2c0.2-1.1,0-1.5-0.7-2.3l2.5-0.8
	c-0.5-1.5,0-1.8,0.2-3.2c-0.6-0.3-0.8-0.9-1.3-1.3c0.6-3.4,3.3-1.6,5.4-5.8l0.9,0.2l1-0.5c1.4,0.7,3.3-2.4,6.1-3.3
	c0.9,0.4,1.5,1.3,2.4,1.7c0.9,0.4,3.2,0.8,3.8,1.2c0.5,0.4,0.6,1.1,1.2,1.4c1.3,0.8,0.8-0.5,2.1-0.3c1.5,0.3,2.7,1.6,4,2.3
	c1.4-0.1,2.7-0.3,4.1-0.6l1.8-0.2c0.9,0.2,1.3,0.6,2.4,0.5c0.1-0.7,0.7-4,1.3-4.3c3.3,2.5,1.3-0.8,0.8-2.9c2.3,0.5,3.4-1.1,4.5-2.9
	l-0.1-1.2c0.8-0.5,1.8-2.3,2.2-2.4c2-0.8,4-2.4,6-2.6c0.1,0.7,1.7,1.6,2.2,1.8c0.5-0.6,1.6-1.3,2.3-1.6l-0.1-0.7l1.8-1.5
	c1.1-0.1,1.6-0.1,2.2,0.8c0.6-0.1,1.5-0.1,2.1,0.1l0-0.5c-0.6-0.3-0.4-1.1-0.5-1.7c-1.7-1.1-0.8-1.6-1-3.1c-0.1-1-1-2.3-0.9-3.3
	c0.3-1.9,1-4.1,1.2-6c0.2-1.9-1.8-4-0.3-5.9c-0.8,0.1-1.9,0.6-2.6,0.3c0-0.4-0.2-0.8-0.5-1.1c-3.1-0.1-2,4-6.6-0.5
	c-1.9,0.1-2.7-1-4.2-1.8c-1.8-1-4-0.7-5.8-1.8c-1.1-0.7-1.5-2.4-2.5-2.8c-1-0.4-1.5,0.7-3.6-1c-1.7-1.4-1.8-2.3-4.2-2.6l-0.2-0.8
	l-0.7,0c0,0-2.1-0.3-3.1,0.3c-0.6,1.2-1.9,1.6-2.3,2.6c-0.9,0-1.2-2.9-3.7-1.8c-0.6-0.1-0.5,0.1-0.7-0.6l-1.1-0.4
	c0.6-2.4-1.2-2.9-2.6-4.3c-1.2,0-5,2.1-5.9,1.7c-0.2-1.4,5.8-5.4,6.1-6.2l-0.5-1c-1-0.2-2-0.1-3-0.4c-0.9-0.3-1.5-1.2-2.5-1.2
	c-6.5-4.4-7.5-3.8-11-11.5c-0.4-0.9-0.3-1.9-0.8-2.7c-0.9,0.3-1.5,1.2-2.5,1.5c-1.5,0.4-10-1.7-11.9-2.2c-1-0.3-1.6-1.3-2.7-1.6
	c-1.9-0.4-2.9,1.3-3.7,1c-1.2-0.5-0.5-3.4-4.9-5.4l-0.6-1.3c-0.8-0.5-3-1.9-3.2-2.8c0.3-0.2,0.6-0.8,0.6-1.2
	c0.4-5.8-2.6-2.8-5.4-3.8c-1.2-0.5-1.7-1.5-3.1-1.7c-4.6-0.4-12.2,1.3-16.1-1.5c-1.1-0.8-0.7-3.5-1-4.7c-0.3-1.3-6.7-10.7-7.5-11.1
	c-2.8-1.7-2.8,1.9-8.9-3.8c-4.1-3.8-1.2-9.3-2.3-13.5c-1.4-1.1-3.3-1.4-4.2-2.2c-0.5-0.5-0.7-2-1.5-2.8c-1-1-1.5-0.1-2.6-2.1
	c0.1-0.7,0.5-1.5,0.4-2.3c-0.2-1-1.2-1.8-1.4-2.9c-0.1-0.9,0.1-2.2-0.7-2.9c-1.8-1.4-4.3-1.1-6.3-1.8c-1.6-0.6-3.6-4-5.3-5.1
	c-2.7-1.8-5.7-3.5-8.4-5.2c-0.3-0.2-1.4,0.4-2.1,0c-1.4-0.7-2.7-1.7-4-2.6l-0.6,0.1c-1.7-1.6-4.1-2.2-5.7-3.8
	c-0.7-0.7-1.3-2-2.2-2.5l0.6-4.3c0.2-1.5-2.3-1.7-0.3-5.7c5.2,0.6,1-6.4,3.2-9.6c-0.1-0.6-0.2-5.1,0.5-5.2l0.9,0.5
	c1.2-2.6,2.5-1,3.4-2.2c1.2,1,1.9,0.9,1.7-0.8c0.7,0,1.1,2.2,1.7,2.6c0.7,0.5,5.5,0.3,6-0.3c0.5-0.5,2.8-3.9,3.5-3.2
	c0.5-0.3,0.6-0.9,1-1.3c0.3,0.4,0.4,0.9,0.3,1.4c0.5,0.6,1.4,0.4,1.9,1c-0.4,4,1.6,1.1,3.1,3c-0.3,0.5-1.4,3.3,0.1,1.8l0.6,0.2
	l0.2,3.5c-2,1.6-0.1,3,1,5c0.7-0.2,1.7-1.5,2.5-2c0.9-2.1,0.5-2.1,2.8-3.2c-0.1-0.8,0.5-2.1,1.3-2.4c0.8-2.3,6.9,2.8,7.6,1.5
	c1-1.8,0.7-1.3,2.5-1.8c1.3-3-0.7-1.4-2.2-3c-0.3-0.3-1.2-3-1.5-1.4c-0.6-0.9,0.5-3.4,1-4.2l-0.1-0.3l-1-0.4
	c-0.5-0.7,0.3-1.3-0.8-2.9c0.8-1.1,1.9-2.8,2.1-0.4c1.5,0.2,1.1-1,1.2-2c0.5-2.5,1.3-5,1.1-7.6c-0.1-2.3-1.9-4.6-1.8-7.2
	c0-0.6,0.6-2.1,0.4-2.6c-0.8-1.5-2.6-2.5-4.1-3.3c-0.2-1.4-0.2-3.4-1.8-3.9c-1.7-3.1-0.8-5.3-6.2-5.8c0-0.9,0.1-2.8-1-3.1l-0.6-1.1
	c-0.3-0.5-0.8,0.6-1.5,0.4c-0.9-0.2-1.6-0.9-2.7-1.1c-1.1-2.8-1.7-3.3-3.8-6c-0.2-0.2,0.5-1.6,0.4-2.2c-1.2-0.6-3.4-1.8-3.5-3.3
	c-0.9-0.8-2.7-3.5-3.6-3.7l0.7-1.6l-3.5-2.7c0.3-0.8,0.9-1.3,0.4-2.2c-0.6-1-1.9-1.4-2.5-2.4c-0.7-1-0.3-2.4-1-3.4
	c-0.4-0.5-1.4-1-1.5-1.6c-1-0.8-1.6-2-2.2-3.1c0.5-1.2-2.1-1.8-2.7-2.3l-0.4-0.9l0.4-0.7c0.9-1.5-6.3-11.2-2.2-12.8
	c1.9-0.7,2.9,3,5.3,3.6c1.6,0.4,3.9-0.2,5.3,0.4c1.4,0.6,3.8,3,4.6,3.2c0.8,0.2,2.6-0.1,3.1,0.2c0.5,0.3,2.1,4.4,5.4,4.9
	c1.4,0.2,1.7-1.6,2.6-1.7c0.8,0.6,2.2,1.8,3.1,2c0.8,0.2,15.2,0.8,16.7,0.7c0.5,0,1.5-3.5,2.2-4.2c1.2-1.2,2.8-1.9,4.4-2.5
	c0.4-1.1-1.1-2.6-0.6-3c0.9-0.9,2.7-0.6,3.8-1.1c0.6-0.3,0.7-1,1.3-1.4c1.3-0.7,3.7-0.1,4.1-1.9c0.4-1.5-1.5-2.6-1.2-4
	c0.2-0.8,0.8-1.5,1.1-2.2l0.2-0.7c0.4-2-1.8,0.1-2.4-0.4c-0.5-0.4-0.1-2.7-0.3-3.4c-0.3-1.2-2.8-1.9-3.7-0.8
	c-0.7,0.8,0.7,4.8-1.1,4.9c-1.5,0-2-3.9-3-5c-1.8-1.9-4.9-1.2-7-2.6c-3.5-2.4-2.1-5.6-3.3-7.8c-0.4-0.8-3.2,0.9-3.8-1.4
	c-0.7-2.4,3.2-3.4,2-5.3c-1.3-2-3.9-0.3-4.6,1.3c-0.6,1.5-0.4,2.4-2.3,1.4c-6-3.5-3.1-8.9-6.7-8.4l-2.3-1.7c-0.7-0.5-3.9-0.5-4-1.2
	l-0.5-4c0-0.4,0.8-0.8,0.6-1.6c-0.8-2.3-4.4-1.3-1.6-5.2c-1.4-2.2-0.4-2.1-2.9-4c-1.2-0.9,0.2-4.3-1-5.1c-1.8-1.2-2.9,0.7-4.7,0.3
	c-0.9-0.2-1.9-1.6-2.7-1.5c-1.2,1.4-4.3,3.5-6.2,3.4c-4.8-0.4-2.5-5.3-4.5-6.3c-3.7-1.9-3.8,3.8-7.5,0.6c-1.4-1.2-1.6-3.1-2.8-4.3
	c-0.9-0.9-2.7-1.3-3-2.8c-0.3-1.5,1.4-3.4,0.7-4.6c-0.5-1-2.7,0.2-3.3-1.4l-0.8-2.5c0.2-1.2,3-1.6,0.6-2.9c-2.6,2.5-0.9-5.7-0.6-6.1
	c1-2,5.1-2.5,5.9-3.8c0.3-0.4,0.4-5.1,0.4-5.9c0.1-2.9-0.2-4.8-1.3-7.5c-0.3-0.8-1-1.4-1.2-2.3c-0.4-1.8,1.3-3.3-1.6-3.8
	c-1-0.9,0.4-1.9,0.8-2.7c0.5-1,0-2.5,0.9-3.2c1.3-1,1.8,0.8,2.8,0.9c0.9,0.1,2.3-0.3,3.2-0.3c1-0.7,0-2.2,1-3.1
	c1.4-1.2,4.6-3.6,2.8-5.7c-0.5-0.6-1.7-0.2-2-0.8c-0.4-0.9,2.1-4.2,2.9-4.8c1.6-1.3,4-0.6,4.4-1.8c0.4-1-1.8-4.5-0.2-4.4
	c4.9,0.1,1.5-0.9,2.5-3.6c0.3-0.9,1.7,0.1,1.3-2.3c0.5-0.9,1.2-1.8,0.8-2.9c0.6-2.2,2-2.6,3.6-3.8c0.8-0.6-2.1-2.4-0.6-3.7
	c1-0.8,4.3,1.6,4.2-1c-0.2-2.9,1.3-1.7,2.2-3.5c-0.1-0.1,1.9-4.6,2.4-4.9c0.2-0.7-1-1.2-0.4-1.9c0.3-0.5,1.8,0.3,2.4-0.1
	c1.3-0.9-0.8-1.6-1-2.5l1-1.3c-1-0.6-2.4-1.8-2.2-3.1c0.3-1.6,1.8,0.4,2.5-0.7c0.6-0.9-0.8-1.7-0.6-2.4c0.2-0.8,1.4-0.6,1.7-1.3
	c0.1-0.3-0.3-5.1-0.3-6.5c0-0.7,1.3-1.2,1.1-1.8c-0.3-0.6-1.8-0.4-1.3-1.5c0.3-0.7,2.4-0.9,2.8-2.2c-0.3-0.8,1.3-0.6,1.7-1.7
	c0.4-0.9-1.2-2-1.5-2.8c-0.5-1.4,1.4-1.7,1.3-3c-0.1-0.9-1.4-1.5-1.2-1.7l0.3-0.9c-3.1-2.1-1.9-0.1-3.4-0.7
	c-5.4-2.5-4.6-6.1-11.4-3.4c-1.2-0.5-2.1-1.9-3.5-2c-2.5-0.2-4.1,4.8-6.7,3.8c-1.5-0.5-0.5-4.5-3.9-5.6c-3.4-1-3.8,1.9-5.9,3.6
	c-1,0.8-2.2,0.9-3.3,1.3c-1,0.4-1,2.8-2.5,3.2c-1.5,0.4-3.1,0.4-4.4,1.3c-1.9,1.4-0.9,3.6-4.3,4.3c-2.1,0.5-5,1-7.1,1.1
	c-0.5-3.5-2.8-5.8-4.1-8.9c-0.3-0.8,0.1-1.6-0.3-2.4c5.8-6.3,9.3,2.8,13.2,2.1c4-0.8,0.5-3.8,5-7.2c4-3,3.8-1.7,6-2.7
	c0.4-0.2,0.8-1.3,0.5-1.5c0.7-0.5,1.5-0.9,2.2-1.4l-0.3-1l-1.2,0l0-4.1c-2.1-2.2-2.1-0.6-4.8,0.2c-0.7,1.8-2.5,0.7-4,0.8
	c-1.2-1.3-3.3-1.9-4.6-3.1l0.2-0.7c3.7-2.8,2.3-0.6,6.1-5c0-1.3-1.4-2.8-0.5-4c-0.2-0.3-0.2-0.8-0.1-1.1c-0.6,0-0.7-0.6-0.7-1.1
	c0-1.4,3.7-1.6,1.2-3.9l-0.9-0.7c-0.5-1.7,4.1-6-0.6-7.7c0.4-2-1.3-3.4-1.1-4.6c-1.8,1.6-1.2-2.4-1.2-2.6c-0.6-2,1.3-2.7,1.4-4.8
	c3.3,0.9,5.5,2.8,8.9,3.5c3.1-3.2,7.2-6.8,8.5-11.1c-1.4-1-3-1.8-4.6-2.4l0.8-2.3l0.8-0.6l0.5,0.5l1-0.4c1,0.1,7.7,5.2,8.3,5.2
	c1.5,0,2.7,0,4,0.9l1.6-0.1c1.3,0.9,1.7,1.3,3.4,0.5c0.2,0.2,0.5,0.3,0.4-0.1c-0.2-0.9-0.8-1.7-1.2-2.4l-1.2-2.2
	c2.8,1.2,0.2-1.9,0.1-2.6c0-0.3,0-0.9,0.6-0.7c0.6,2,4.5-0.4,5.6,0.3c0.6,0.4,0.2,1.2,0.2,1.8c0,0.7,3.2,5.2,3.6,5.9
	c0.5-0.5,1-1.1,1.6-1.6l2.8,2.7c0.8,0.2,1.6-0.1,2.4-0.2c2.7-0.4,7,0.7,9.2,0.1l0.2-2l1.1-1.2c-1.3-3.8-2.9-7.3-4.4-11
	c-1.8-0.2-3.5,0.1-5.3,0.2c-12.1,0.4-20-1.2-30.5-7.1c-3.9-2.2-11.7-4.6-14.4-7.5c-2.4-2.6-1.1-8-4-9.7c-3-1.7-6.4-0.3-9.5-1.2
	c-1.9-0.5-3.1-2.6-4.6-3.7c-1.5-1.1-3.4-1.9-4.2-3.7c-0.4-0.9-0.4-2,0.1-2.8c2.5-4.4,10-0.2,9.3-5.7c-0.7-5.7-8-2.4-6.2-11
	c0.5-2.3-0.2-5.1,1.7-7c1.3-1.4,3.7,1.3,4.9,1.8c3.5,1.4,10.2,0.3,11.1-4c1.4-6.7-9.3-6-10.5-6.7c-1.8-1-0.2-4.2-2.4-5
	c-3.7-1.3-3,1.3-4.9,3.5c-2.5,2.8-7.8,1.7-10.2-0.4c2.2-3.1,2.3-4.5-1.3-5.7l-0.2,0.5c-8.2-2.2-0.8-3.7-0.5-7.6
	c3.7,0.6,0.2-2.5-0.9-2.2c0.2-1.5,1.5-2.4,2.4-3.4c1.5,0.7,3.4,1.6,4.6-0.1c-0.4-0.7-2.4-1.9-2.4-1.9c-0.9-0.6-1.1-1.2-0.6-2.2
	c2.3-1.3,9,0.2,6-4.8c-0.6-0.9-0.5-1-1.2-1.8c-2.4-2.6-6.5-1.7-7.5-6.4l2.2-0.4c1.5,0.9,3.9,2.2,5.5,1.9c2-0.4,2.9-4.5,1.2-4.9
	c-1.4-0.4-1.4,0.4-2.3,0.9c-0.5,0.3-1.9-0.1-2.6-0.1c-1.8,0-4.2-1.1-6-0.7c-0.5-1-0.7-1.8-0.8-2.9c4.1-1,9.1,1.8,11.8-1.1
	c0.9-0.9,1-1.4,1-2.6l-0.6-0.8c-1.5-0.3-3,0.1-4.2,1c-0.5-0.5-0.8-1.2-1.2-1.8c-1.2,0.5-2.6,1.4-3.9,1.6c-2.7,0.5-2.2-1.2-4.3-1.9
	c-4.3-1.6-10.3-3.6-2.8-7.5c0.5-0.2,2.9,1.9,4,1.8c1.9-0.1,3.7-8.5,3-9.8c-2.7-4.4-5.8,0.3-7.4,2c-0.4,0.5-2.7,2-3.2,1.2
	c-0.8-1.3,1.1-5.3,1.3-6.8c0.2-1.8,0-3.8-0.1-5.6c1.8,0.6,5.7,1.4,6.5-1.1c0.9-3.1-5.2-2.9-4.8-6.5c0.4-2.9,5.8-1.2,5-5.1
	c-0.4-0.4-1.3-0.2-1.8-0.5c0.8-1,1.6-2.1,2.5-3c2.9,0.4,6.4,1.1,9.1,2c1.3-0.7,2.7-1,4.1-1.5c0.3,0.7,0.7,1.3,1.1,1.9l2.3,0.1
	c-0.7-1.7-1.4-3.4-1.8-5.2l1.3-2.8c1.1-2.3,11.8-0.9,11.9-1.1c-0.4-2.7-1.5-5.4-2.1-8c0.6-1.8,4.9-6.7,6.2-9.2
	c1.5,0.6,3.1,0.6,4.7,0.7c1.9,1.9,1.5,6.5,2,8.7c0.3,1.1,3.1-0.2,3,0.9l6.3,0.3c-0.3-0.4-0.5-0.8-0.9-1.1c1.6-0.5,3.7-0.3,5.4-0.3
	l0.6,0.9l7.7-0.4l1.9,2l1-0.8l-3.3-4.9c4.3-3,8.6-5.8,13-8.6c0.6,0.1,2.4,3,2.7,3.6l1.3-0.8c0.7-0.4,4.3-1.4,4.4-1.5
	c0.6-0.6,0.8-1.5,1.3-2.1c1.8-2.5,4.5-4.2,7-5.9c0-0.7-0.1-2.3-0.3-2.9c0.6-1,2.2-0.9,2.5-2.3l0.8,0.2c2.3-1.1,4.8-2.2,6.7-4
	l-3.1-2.9l-0.9-1.9l2.4-2.2l1.6,0.9c1.8-1.4,3.6-2.7,5.3-4.1l0.1-1.8c3.8-2.1,5.1,1.1,7.7,0.3l3.8,0.7l4.8-4.5c0.2,0.2,2,1.8,1.4,1
	c0.6,0.5,3.3,2,2.7,0.7c0.6-0.5,1.3-0.9,1.9-1.4c1.1,1.3,3.6,4.3,4.9,4.6l1-0.3c1.8,1.3,2.3,3.7,4,5c1.3,1,6.5,1,9.5,4.2
	c1.9-1.8,4-2.6,5.5-4.9c4,0.3,10.2-2.9,13.2-5.9l4,0c1,0,9.1-0.2,9.2-0.2c1.3,0.6,1.6,2.3,1.7,3.6c0.5,5.8,2,2.9,5,2.9l0.7,0.5
	l0.1,0.4c1.4-1.2,4.7-9.4,6.9-6.8l-0.4,0.5l0.4,2c0,0.2,4.6,3.6,5.1,3.6l0,0.5c0.9,0.7,5.7-2.3,6.7-2.8l0.4-0.7l4.2,3.7l0.4,1.9
	c1.3,1.4,2.6,0.2,3.7,2.6c0.8-0.4,1.6-0.9,2.4-1.3c0,0-0.2,1.3,0.8,2c0.5-0.7,1,0.6,2.3,0.9c0.4-0.1,2.7-0.5,2.3,0.1l-0.7,0.3
	c-0.3,0.5-1.2,0.6-1.7,0.6c-0.5,0.5-0.3,1.1,0.2,1.6c-0.4,1.1,4.6,4,5.7,4.4c-0.2,0.7,0.8,2.3,1.3,2.8l-0.2,0.5
	c1.8,1.9,4,3.5,5.7,5.4l-0.7,0.3l-0.7,1.3c1.1,2.7,2.4,5.3,3.4,8.1l-0.7,0.2l-0.1,1l-0.7,0.1c2.3,3,6,5.5,9.1,7.8
	c2.3-0.4,4.5-0.9,6.8-1.2l5.9,3.8c1.5,4.8,2.7,9.3,5.2,13.7l5.4-1.8l-0.5-1.3l3.6-1c0.5,1.9,0.9,3.9,1.5,5.8l-0.5,0.2l0.3,1
	l-0.2,0.5l0.8,1.7l2.1-0.6c0.2,0.8,0.5,1.5,0.7,2.3l2-0.5l7.9,7.9c-0.6,1.3-1,2.6-1.5,3.9l0.7,0.9l0.4-0.1l0.9,3.2
	c1-0.3,2-0.5,3-0.7c1,2.2,1.6,4.5,2.1,6.9l-0.6,0.1l0.4,1.5l0.7-0.2l0.6,2.4c0.9-0.5,1.6,0.3,2.5,0.1l0.2-0.4
	c3.2-1.2,5.6-0.8,8.8-0.6c0.7-2.5,1.2-5,1.9-7.4l6.1,2.6c-0.4,2-0.8,4-0.9,6l-1.3,0.2c-1.4,3.3-0.8,7-1.2,10.4l0.2,0.5l-1,2.8
	l1.1,1.2c-0.4,2.3-0.4,3.3,0.5,5.5c-5.1,4.5-2.1,5.1-6.5,10.3c0.4,2.2,0.8,4.4,0.9,6.7c1.2-0.4,2.4-0.7,3.6-1
	c0.8,1.5,2.2,2.8,3.2,4.2l-0.3,0.5l2,3.2l-0.6,0.3c0.5,1.1,1.3,2.1,2,3.2c-0.2,0.1-0.8,0.3-0.9,0.5c-0.3,0.3-0.7,1-1,1.4
	c-2.8,3.9-4.4,4.1-8.4,6.2c0.4,0.7,0.3,2.7,0.3,2.7l0,1.9c7.1,0.4,9.4-1.7,15.7,3.5c0.8,0.7,1.8,3.6,2.1,3.9c0,0-2,1.7-2.4,2.3
	l0.1,0.9c0.7,0.7,3.7,3.4,4.7,3.1l0.8,0.4c1-0.1,2.1-0.2,3.1-0.2c0.2,0.8,0.4,1.5,0.6,2.2c0.4,0.1,0.8,0.3,1,0.5
	c-0.2,0.4-0.1,2.9-0.1,2.9l0.2,1.4c0.9,0.1,1.9,0.2,2.8,0.2c0.1,0.9,0.3,1.9,0.4,2.8c1.7,1.3,3.2,2.4,5,3.5c1.2,0.8,0,3.5,4.5,3.6
	l1.1,3.9c2.6-0.4,5.1-1,7.7-1.6l-0.3,4.4c1,0.1,2.2-0.7,3-1.2c0.8,1.7,1.7,3.2,2.5,4.9l2.6-1.1c0.8,0.4,1.8-0.8,2.6-0.8l2.7-0.1
	c0.5-0.6,0.9-1.2,1.5-1.7l-0.7-0.9c0.7-0.6,1.4-1.2,2-1.9c0,0,1.8,0.4,2.3-0.1c0.3,0.4,0.7,0.8,1.2,1l0,1.1c-1.2,0.7,1.1,5,1.2,6.4
	c0.8,1.1,2,1.7,2.9,2.7l-1,2.4c0.9,1.1,1.6,2.3,2.6,3.3l0.7-0.5c4.1,0.5,6.2,4.5,8.6,5.1l0.8-0.8l-0.1-0.3l1.7-1.9
	c1.3,0.8,4.6,0.7,4.6,0.7l0.8,0.9c0.6,0.3,2.2,0.8,2.2,0.8c1.3,0.5,2.3,1.6,3.4,2.5c0.5-0.3,1-0.6,1.5-0.9c1.4,0.6,2.8,1.1,4.1,1.7
	c0.4-0.8,1-1.5,1.3-2.3l1.2,0.8l1.2,1.6c2,0,2.7,3.3,3.9,3.8c2.1,0.9,4.5,1.4,6.6,2.1c0.7,1.2,0.8,3.9,2.1,4.6l0.6-0.1
	c0.8,0.4,1.6,0.6,2.4,0.2c1,1.6,3,5.6,2,7.4c-1.2,0.7-3.3,2.4-4.4,2.9c-0.9,0.4-2.2-0.6-2.8,0.6h-0.4c-0.5,0.9-0.3,2.1-1.2,2.7
	c-0.8,1.9,1.1,2.6,1.8,4.1c-0.6,0.5-1.6,1.2-1.6,2.1c-1.2,1-2.3,3-2.7,4.5c-0.9,0-2.3,2.3-0.9,2.6c0.3,0.8,0.7,1.6,1,2.4
	c-1.7,0.6-3.7,0.8-5.4,1.6l-0.5-0.4c-0.8-0.1-1.6-0.1-2.4-0.4l-0.7,1.5l-1.6,0.8c0,0-2.7-0.3-3,0.1c-0.7,0-1.4,0.8-1.6,1.4
	c0.5,1,1.4,2.2,2.2,3.3l0.9,1c0.9,0.2,3,1.8,3.8,2.3l1.4,1.3l-1.2,1.8c1.5,1.6,3.3,2.8,5.1,4l1.1-0.4c4.6,1,7.9,2.8,11.9,5.4
	c1.3-1,3.4,1,4.5,1.6l-0.1,0.5l1,1.1l-0.4,1.4c0.4,0.9,1.1,1.7,1.3,2.6l-0.2,0.5c0.4,0.7,0.4,2.6,0.4,3.4c-2.8,0.9-5.1,1.3-7.9,2
	c-0.4,0.8-1.2,1.1-1.8,1.7c-0.6,0.1-1.2,0.1-1.7,0l-0.9,0.6c-0.9-0.2-3.2-0.5-3.8,0.1l-0.1-0.5l-1.2-0.7l-1.3,0.1
	c0.2,0.6-0.7,0.8-1,1.2c-0.5,0-0.7-0.3-1.2-0.2c-1.9-1.3-1.9,0.1-3.6,0.2l-0.2,0.4c-1,0-2.2-0.5-2.9-0.4l-0.7,0.8
	c-0.6-0.3-2.5-0.3-2.5-0.3c-0.4,0.6-0.7,2.1-1.2,2.4l0,1c0,0-0.3,1.4-0.5,1.8l-0.8,1.2l1.5,1.6c0,0-0.7,0.7-1,1c0,0.5,0.1,1,0.4,1.4
	c7.1,3.2,3.3,8.3,6.3,9.8c4.8,2.3,24.5-1.2,30.8,4.2c0.6,0.5,1.4,2.1,1.7,2.9c0.7,1.4,2,3.5,2.2,5.1c0.6,4.2-1.6,13,3.7,15.1
	c2.3,0.9,5.6-1.8,8.3-1.7c2.2,0.1,3.5,2.4,5.7,2.6c2.6,0.2,4.8-1.5,7.3-1.6c3.4-0.2,4.5,1.4,7.3,2c1.5,0.4,3-0.7,4.5-0.7
	c2.8,0.1,5.3,2.1,7.8,2.2c4,0.2,3-1.9,7.2,1c2.9,2,5.7,1,8.9,1.5c2.7,2.3,1,3.4,2.3,5.6c0.8,1.3,2.2,1.9,3.1,3.1
	c0.5,0.6,0.9,1.6,0.8,2.3c-0.3,1.5-0.6,6,0.5,7.1c0.5,3.6,3.6,3.8,5.9,5.9c1.8,1.6,1.1,2.7,2,4.5c1,2,1.9,2,3.5,3.2
	c4.4,3.6,3.4,3.8,9.4,4c5.7,0.1,3.8-5.9,6.3-8.5c1.4-1.5,1.6-3.6,2.4-5.4c2.1-4.5,5.7-8.6,7.8-12.9c1.2-2.5,1.1-5.4,2.2-7.5
	c0.3-0.6,1.2-0.2,1.6-0.7l2.1-2c2.3-2.2-2.1-2.7,5.2-8c1.5-1.1,4.3,1.9,9.1-1c6.8-4.1-0.1-5.4,12.5-8.1c2.8,1.4,15,15.2,18.5,18.6
	c0.9,0.9,2.2,1.2,3.3,1.9c8.7,5.7,9.7-2.4,13.4,3.8c1.3,0.6,2.9,0.5,4.2,1.3c1.3,0.9,1.8,2.7,2.9,3.8c5.1,5.4,9.4,9.3,0.6,12.9
	c-1.9,0.8-3.8,2.4-6,2.4c-3.8,0.1-8.1-9.8-16.6-7.8c-7.7,1.8-2.1,8.4-8.4,15.1c-4.8,5.2-12.1-2.9-13.4,2.4c-0.6,2.4,0.2,2.7,0.9,4.9
	c1.4,4.2,3.3,3.9,6,6.6c0.5,0.5,0,7.6,0.3,9c0.2,1.1,1.2,1.8,1.6,2.9c0.9,2.2,1,4.9,2.3,6.9c0.9,1.4,2.3,2.4,3.3,3.6
	c0.8,1,1.2,2.2,1.9,3.2c1.2,1.6,3.2,1.8,5,2.2c2,0.5,4,1.3,6.1,1.5c7.1,0.7,9.6,1.4,9.6,9.5c-1.9,1.5-2.9,5.7-1.6,7.8
	c-0.7,0.3-1,0-1.7,0.3c-0.3,0.4-0.9,1.1-1.4,1.2l-1.5,1c-0.7,1.1,0.1,1.9-1.7,3.2c0.7,0.1,1.3,0.4,0.9,1.2c-1,1.8-1,1.8-1,1.8
	c-0.1,1-1.9,0.2-1.4,0.9l-2.4,1.6c0.3,0.3,0.6,0.6,0.7,1l1.7,0.7c-0.2,0.6-0.5,1.8-0.3,2.5l-0.8,0.2c-0.7,1.8-2.1,7.3-1.8,9.1
	c0.4,2.1,1,0.1,1.4,4.2l-0.1,1.6c-1.2,0.7,0.4,1.4,1,1.7c-0.9,0.8-1.1,1.1-0.5,2.2c-2,0.4-4.2,0.1-6.3,0.3l-0.2,1.7
	c-1.2,0.4-2.6-1.3-3.8-0.3c-1.1,0.9-3.9,0.2-4.3,1.5l1.7,1.7l0.2,1.8c-0.4,0.4-0.7,1.3-0.7,1.8l-1.3,1.1c-2.2,1.5-5.5-0.4-7.7-0.1
	c-1,0.1-1.6,1.1-2.7,1.2c-1.3,0.1-2.6-0.6-3.9-0.3l-0.2,1.3c-1.4,0.5-6.4,0.8-4.9,2.6l-0.5,2.9c0,0.3,0.1,1.5,0.6,1.6
	c-0.7,2.1,0.7,3.9-0.9,7c-0.2,0.3,0.6,1.5,0.4,2.2c-0.5,1.6-4.9,1.1-2.4,4.9l-0.2,0.7c0.8,1.1-1.9,13-2.1,15.2
	c-0.1,1.9-2.1,4-3.1,5.3c-0.1,0.2-0.5,2.5-0.5,2.8c1.8,4.2,3,8,6.1,11.4c0.4,0,0.9,0,1.2,0.1c-0.7,2.1,0,5-1,6.5
	c0.1,0.5,0.6,1,1,1.4c0.5,2.1,0.9,4,0.9,6.1c0,0.6,1.6,2,2,2.6c0.4,0.6,0.2,1,0.8,1.5c0.7,0.5,1.6,0.5,2.3,1.1
	c1.1,0.9,1.6,2.3,3,3.2c0.9,0.6,2.1,0.1,3,0.6c1.1,0.6,0.8,1.5,1.1,2.5c2.4,1.2,0.9,3.3-0.4,4.6c1.8,2.3,2.5,4.9,1,7.4
	c0.1,0.8,0.7,1.5,1.4,1.8c0.4,0.9-1.1,2.7-1.2,3.6c-0.4,3.3,2,4.2,2.3,6.5c0.2,1.9-0.4,3.2,0.5,5.3c0.1,0.3,0.9,1.1,1.2,1.4
	c0.3,0.4-0.1,1.2,0.8,2.1c1.9,1.9,0.4,1.6,1.1,3.3c0.3,0.7,1,3,1.8,3.6c0.8,0.7,2,1.2,2.9,1.8c0.3,0.2,2.6-1,3.5-0.4
	c1.4,1,2.2,3.6,2.3,5.2c1.6,1.7,3.8,2,6.1,2.7c0.5-0.1,1-0.6,1.4-1l3.7,1.5c0,2.5,1.5,2.3,1.2,5.1c3.7,4.3,2.2,0.3,5.1,2.2l3.7-0.5
	c0.3,0,1.8,1.5,2.3,1.7c0.6,0.3,1.3,0,1.9,0.4c1.3,0.8,1.6,1.5,3.3,2.2c0.1,3.9,0.1,2.3,2.2,4.4c1.2,1.1,1.8,2.7,3,3.8
	c1.2,1.2,3.5,0.9,4.4,2.4c1.7,3.1-1.1,2.5,3,7.6c0.1,0.9-0.6,1.8-0.3,2.7c1,3.3,2,1.2,3,2.5c0.4,0.5,0.5,0.9,1.1,1.3l0.1,2.7
	c0,0.4,3.4,5.1,4.1,5.5c0.6,1.6,0.3,1.4,2.1,2.4c2.3,1.2,3.5,2.2,5.5,4.2c3.7-2.2,5.3,0.5,6.5,0c0.9,0.8,2.5,2,3.6,2.3
	c0.2,0.3,0.2,0.8,0.1,1.1c-0.7,0.7-3,3.8-3.2,4.6c2.1,1,1.7,3.3,1.3,5.3c0.8,1.4-0.8,3.5-1.5,4.7c0.1,3.9-3.1,4.2-5.4,6.7
	c-2.2,0.4-4,1-5.4,2.8c-0.1,1.7-1.6,4.2-1.5,5.5c-1.7,0.8-1.6,2.3-1.7,4l-3.5,2.1c-5.1,2.9-4.4,6.7-5.4,7.4c-1.4,0.9-5.2,2.4-6.9,3
	c-3.6,1.2-0.5,7.9-2.5,8.4l-0.6-0.3c-3.1,1.4,1.8,2.7-0.6,6.7c-0.5,0.1-1.1,0.5-1.2,1.1c-0.6,0.3-1.1,2.2-1.2,2.9
	c-0.9,0.5-0.8,0.6-1.1,1.6c-0.8,2.2-4.6,1.4-6.5,2.9c-0.6-0.4-1.1-1.1-1.4-1.6c-0.5,0.3-1.8,2.7-3.3,3.9l0.2,0.6
	c-1,2.1-1.7-0.3-1.9-1.4c-0.8-0.5-1.4-1.3-2.2-1.7c-2-1-2.6,2.6-4.9-1.2l-1-1.7c-1.7-0.4-2.7,1.7-3.6,0.1l-2.2,0.6
	c-1.5,4.4-1.8,0.9-1.6,6.3c-1.5-1.9-6.4-2.5-5.7-5.2c-1,0.9-2.1,1.5-2.8,2.7c-0.4,0.7-0.7,1.4-0.6,2.2c0,0.2,0.3,1,0.1,1.1
	c-2.2,2-3.6,2.1-4.5,3c-0.6,0.5-3,4-3.8,3.2l-0.5-0.6c-0.6,0.5-3.3,2.2-4.1,1.9l-0.3,0.6c0.2,1.2,0,2.5,0.2,3.7
	c0.2,1.1,1.3,0.4,1.6,2.1c2.5,1.6,0,3.4,4.1,6.5c0.1,3.8,3.6,4,4.2,6.4c-0.8,1.2-1.2,2.3-0.8,3.7l-1.7,0.3c-0.4,1.5-0.6,1.5-1.7,2.5
	c-0.2,0.8-0.3,1.7-0.7,2.4c1.3,1.4-1,2.3-2.1,2.4c-0.2,1.3,1.9,1.7,2.7,2.9c-0.5,2.2-0.8,3.4-2.7,4.8c0.4,0.4-0.8,1.9-0.8,1.9
	c1.2,1.1,3.3,0.7,1.6,3.3l-1,0.2c0.3,0.5-1.2,6.4-1.5,7.7c0.3,0.6-0.9,1.5-1.3,1.8c-0.5,1.6-0.1,3.6-0.4,5.2
	c-0.1,0.4,0.3-0.1,0.5-0.1c1-0.4,4.1,0.4,4.7,1.2c3.4,4.5,10.4,8.8,13.4,13.7c-1.1,1.4-0.3,3.4,0.7,4.5L642,869
	c-3.9,6.6-1.5,4.3-3.6,10c-0.2,0.5,0.9,0.9,0.2,2c0.2,0.8-0.7,1.3-1.1,1.9c-0.7,0.9-0.9,1.6-0.9,2.8c0,3.8-2.5,1.4-4.3,1.4
	c-1.3,0-1.3,0.9-2.9,0.4c0.2,0.6,0.4,1.2,0.6,1.8c-0.6,3-2.3,1.1-2.2,3.6c-3.1,4.3,1.1,4.4-2.3,8.7c-1.9-0.1-2.5,1.9-3.3,1.9
	l-1.4-2.4c-0.7,2.2-2.4,0-3.2,0.3c-0.2,0.4-0.5,0.9-0.7,1.3c-2-0.1-1.5,1.2-3.7,0.6l-1.8-0.1c0.1,0.7-0.6,2.2-1,2.7
	c-1-0.8-2-1.4-3.2-1.7c-0.2-0.1-0.7-0.1-0.9-0.3c-1.3-1.8-5.9-4.9-6.7-6.5c-0.6-1.2,0.6-2.3,0.9-3.3c0.4-1.1,0.7-1.7,1.8-2.2
	c-5.8,0-4.4,2.6-6.1,2.9c-0.5,0.1-0.8-1-1.5-1.2c-1.5,1.5-2.4,0.1-2.5,2.9c-0.4,0.6-1,1.5-0.4,1.3c0.3,0.4-1.8,2.2-2.2,2.3l-4,0.3
	c-0.1-1.3-3,0.4-3.7,0.6c-0.5,0.8,0.4,3.2-1.2,2.9l-1.4,2l-0.7-0.5c-0.4-1.2-1.8-0.7-2.7-1.8c-0.7,2-1.9,4.9-3.8,2.2
	c-0.7-1-0.9,0.4-1.6,0.6l-1.2-0.5c-0.3,0.7-0.7,1.9-1.2,2.4c-1.3-0.1-2.5-0.3-3.8-0.3c-0.8,3.1-3-0.7-3.6-0.9c-1.9-0.7-1.8,2-2.9,2
	c-1.2,0-2.3-2.2-3.9-2.8l-0.2-0.8l-1.5-1c0.3-0.5-1.7-0.9-2-1.5c-0.8,0-5.6-3.5-6-4.1l-0.6-0.2c-2,0.5-1.2,5.5-1.7,7.3
	c-0.3,1.2-4.3,2.1-5.5,2.2c-2.6,0.3-2.4-1.5-3.3-1.8c-0.7,1.5-2.1-3.4-4.8-3.4l-1.1,0c-1.5,0.1-0.6,2.5-0.9,3.3
	c-0.2,0.6-0.8,0.8-1.2,1.3c-2.3,3.2-1.6,4.6-6,1.8c-0.2,2.1-0.3,4.1-2.9,4.3c-0.7,0.9-0.7,3.7-1.8,4.4c-1.1,0.8-4.6-1.5-5.7-1.2
	c-1.3,1.6-2.2,5.5-3.7,5.6l-0.2,1.3c-0.6,0.5-1.3,0.2-1.6-0.5c-0.6-1.6-4.3-2.3-5.8-3.1c-0.5-0.3-2.5,0-3.3-0.2l-0.3-0.7
	c-1-0.7-2.5-0.9-3.6-1.4l-2.1,0.9c-2.3-4-5.3,2.6-7.3,2.7c-1.3-2.1-1.9,0.1-3,0.6c-2.6,1.1-2.6-5.6-4.4-7.2c-0.9-0.8-2.3,0.4-2.9,0
	c-0.9-0.7-0.6-2.2-2.2-1.9c-2.6,0.5-0.2,1.9-1.9,2.4c-1.7,0.5-1.8-1.4-2.9-1.3c-2,0.1,0.1,1.4-0.2,2.2c-0.3,0.9-1.7,1.6-1.9,2.5
	c-0.2,1,4.1,5.2,1,6.3c-2.4,0.9-3.7-3.7-5.1-4.1c-0.3-0.1-4.7-0.1-4,1.6c-2.1,2-1,1.8-2,3.2c-1.2,1.6-2.1,0-3.2,3
	c-1.6,4.2-2.1-0.2-3.2,2.4c-0.3,0.7,0.6,1.8,0.3,2.8c-0.5,1.6-2,2.5-2.7,3.9c-0.5,1.1,0.4,1.3,0.3,2.2c-1,1.2-1.7,2.2-2.3,3.6
	l-1.1,0.7c0.2,0.5,1,1.9,1,1.9c1.7,1.4,0.7,1.2,1.4,2.6c0.5-0.2,1.2,2.4,1.7,3.1c-0.2,0.5-2.5,1.9-2.8,1.4c-0.4-0.7-1.8-1.1-1.9-0.3
	c-2.2-0.1-2.3,0.4-3.8,2c-1.6-0.2-3,0.7-3.5,0.6c-2-0.4-1.6-1.5-4.3-0.9c0.1-1.9-1.4-2.1-1.4-3.7c0-1.1,0.5-2.8,0.5-4
	c0-1.1-2.2-2.6-2.7-3.6c-0.3-0.7-0.8-2.8-1.2-3.2l-1.6-1.5c-0.1-0.5-0.4-1.3-0.8-1.7c0.3-1.8-0.8-1.2-1.2-2.4
	c-0.2-0.6-0.1-2.3-0.6-2.6c-1-0.8-5.3-0.7-6.5-1.1c-0.6-0.2-0.6-0.8-1-1.2c-0.8,0.2-1.6,0.2-2.4,0.2c-0.3,0-2.9,3.3-3.8,3.8
	c-1.1,0.7-2.5,0.6-3.3,1.8c-0.8,1.1-1.1,2.6-2.1,3.5l-0.8-0.1c-0.8,0.9-2.2,1.9-2.7,3c-0.9,0.4-1.8,0.1-2.7,0.4
	c-1,1.4-2.9,1.5-4.2,2.5c-1.8-0.2-1.3,0.5-2.4,0.6c-1.3,0.2-2.7-0.7-4-0.2c-0.8,0.3-1.8,1.8-2.7,2.3l-1.2-0.2
	c0.1,0.5-0.2,1.2-0.6,1.5c0.3,1.3-2.2,2.9-3,3.9c-1.8,2.2-3.2,2-6.1,1c-1.3,0.6-1.5,0-2.5,0.2c-0.9,0.2-0.6,2.9-2.9,3.3
	c-1.1,0.2-2.7,0.8-3.9,0.5c-0.6-0.1-1.1-0.5-1.7-0.3l-1.3,1.5c-0.1,0.3,0,0.8,0.2,1.1c-1.2,1.5-2.6,3.3-4.4,4.1
	c-0.3,0.8,0.4,1.8,0.9,2.3c-0.4,1.5-1.9,2.3-2.5,3.7c0.2,1.1,0,9.6,0.2,9.8c1.3,1.6,2,3.3,2.9,5.2c0.7,1.5-2.2,2.4-1.9,3.3
	c0.3,1.3,2.4,3.4,3.5,4.3c0.3,0.3,1.6,0.7,1.4,1.2c-4.6,1.9-2.8,2.7-5.6,5.6c-0.7,0.7-1.3,0.2-2,1.4c-0.3,0.7-0.1,2.3-0.4,2.7
	c-0.5,0.6-2.1,1.1-2.1,1.1c-1.4,0.7-2.5,1.5-3.8,2.4c-2.1,0.1-1.9,2.6-3.3-0.4c-2.6-5.8-6.7,0.5-9.2,2.7
	C329.9,1009.6,326.5,1005.1,326.1,1004.2z"/>
<g>
	<path id="path26" class="st1" d="M107,632.6c5.2,0.6,1-6.4,3.2-9.6c-0.1-0.6-0.2-5.1,0.5-5.2l0.9,0.5c1.2-2.6,2.5-1,3.4-2.2
		c1.2,1,1.9,0.9,1.7-0.8c0.7,0,1.1,2.2,1.7,2.6c0.7,0.5,5.5,0.3,6-0.3c0.5-0.5,2.8-3.9,3.5-3.2c0.5-0.3,0.6-0.9,1-1.3
		c0.3,0.4,0.4,0.9,0.3,1.4c0.5,0.6,1.4,0.4,1.9,1c-0.4,4,1.6,1.1,3.1,3c-0.3,0.5-1.4,3.3,0.1,1.8l0.6,0.2l0.2,3.5c-2,1.6-0.1,3,1,5
		c0.7-0.2,1.7-1.5,2.5-2c0.9-2.1,0.5-2.1,2.8-3.2c-0.1-0.8,0.5-2.1,1.3-2.4c0.8-2.3,6.9,2.8,7.6,1.5c1-1.8,0.7-1.3,2.5-1.8
		c1.3-3-0.7-1.4-2.2-3c-0.3-0.3-1.2-3-1.5-1.4c-0.6-0.9,0.5-3.4,1-4.2l-0.1-0.3l-1-0.4c-0.5-0.7,0.3-1.3-0.8-2.9
		c0.8-1.1,1.9-2.8,2.1-0.4c1.5,0.2,1.1-1,1.2-2c0.5-2.5,1.3-5,1.1-7.6c-0.1-2.3-1.9-4.6-1.8-7.2c0-0.6,0.6-2.1,0.4-2.6
		c-0.8-1.5-2.6-2.5-4.1-3.3c-0.2-1.4-0.2-3.4-1.8-3.9c-1.7-3.1-0.8-5.3-6.2-5.8c0-0.9,0.1-2.8-1-3.1l-0.6-1.1
		c-0.3-0.5-0.8,0.6-1.5,0.4c-0.9-0.2-1.6-0.9-2.7-1.1c-1.1-2.8-1.7-3.3-3.8-6c-0.2-0.2,0.5-1.6,0.4-2.2c-1.2-0.6-3.4-1.8-3.5-3.3
		c-0.9-0.8-2.7-3.5-3.6-3.7l0.7-1.6l-3.5-2.7c0.3-0.8,0.9-1.3,0.4-2.2c-0.6-1-1.9-1.4-2.5-2.4c-0.7-1-0.3-2.4-1-3.4
		c-0.4-0.5-1.4-1-1.5-1.6c-1-0.8-1.6-2-2.2-3.1c0.5-1.2-2.1-1.8-2.7-2.3l-0.4-0.9l0.4-0.7c0.9-1.5-6.3-11.2-2.2-12.8
		c1.9-0.7,2.9,3,5.3,3.6c1.6,0.4,3.9-0.2,5.3,0.4c1.4,0.6,3.8,3,4.6,3.2c0.8,0.2,2.6-0.1,3.1,0.2c0.5,0.3,2.1,4.4,5.4,4.9
		c1.4,0.2,1.7-1.6,2.6-1.7c0.8,0.6,2.2,1.8,3.1,2c0.8,0.2,15.2,0.8,16.7,0.7c0.5,0,1.5-3.5,2.2-4.2c1.2-1.2,2.8-1.9,4.4-2.5
		c0.4-1.1-1.1-2.6-0.6-3c0.9-0.9,2.7-0.6,3.8-1.1c0.6-0.3,0.7-1,1.3-1.4c1.3-0.7,3.7-0.1,4.1-1.9c0.4-1.5-1.5-2.6-1.2-4
		c0.2-0.8,0.8-1.5,1.1-2.2l0.2-0.7c0.4-2-1.8,0.1-2.4-0.4c-0.5-0.4-0.1-2.7-0.3-3.4c-0.3-1.2-2.8-1.9-3.7-0.8
		c-0.7,0.8,0.7,4.8-1.1,4.9c-1.5,0-2-3.9-3-5c-1.8-1.9-4.9-1.2-7-2.6c-3.5-2.4-2.1-5.6-3.3-7.8c-0.4-0.8-3.2,0.9-3.8-1.4
		c-0.7-2.4,3.2-3.4,2-5.3c-1.3-2-3.9-0.3-4.6,1.3c-0.6,1.5-0.4,2.4-2.3,1.4c-6-3.5-3.1-8.9-6.7-8.4l-2.3-1.7c-0.7-0.5-3.9-0.5-4-1.2
		l-0.5-4c0-0.4,0.8-0.8,0.6-1.6c-0.8-2.3-4.4-1.3-1.6-5.2c-1.4-2.2-0.4-2.1-2.9-4c-1.2-0.9,0.2-4.3-1-5.1c-1.8-1.2-2.9,0.7-4.7,0.3
		c-0.9-0.2-1.9-1.6-2.7-1.5c-1.2,1.4-4.3,3.5-6.2,3.4c-4.8-0.4-2.5-5.3-4.5-6.3c-3.7-1.9-3.8,3.8-7.5,0.6c-1.4-1.2-1.6-3.1-2.8-4.3
		c-0.9-0.9-2.7-1.3-3-2.8c-0.3-1.5,1.4-3.4,0.7-4.6c-0.5-1-2.7,0.2-3.3-1.4l-0.8-2.5c0.2-1.2,3-1.6,0.6-2.9
		c-2.6,2.5-0.9-5.7-0.6-6.1c1-2,5.1-2.5,5.9-3.8c0.3-0.4,0.4-5.1,0.4-5.9c0.1-2.9-0.2-4.8-1.3-7.5c-0.3-0.8-1-1.4-1.2-2.3
		c-0.4-1.8,1.3-3.3-1.6-3.8c-1-0.9,0.4-1.9,0.8-2.7c0.5-1,0-2.5,0.9-3.2c1.3-1,1.8,0.8,2.8,0.9c0.9,0.1,2.3-0.3,3.2-0.3
		c1-0.7,0-2.2,1-3.1c1.4-1.2,4.6-3.6,2.8-5.7c-0.5-0.6-1.7-0.2-2-0.8c-0.4-0.9,2.1-4.2,2.9-4.8c1.6-1.3,4-0.6,4.4-1.8
		c0.4-1-1.8-4.5-0.2-4.4c4.9,0.1,1.5-0.9,2.5-3.6c0.3-0.9,1.7,0.1,1.3-2.3c0.5-0.9,1.2-1.8,0.8-2.9c0.6-2.2,2-2.6,3.6-3.8
		c0.8-0.6-2.1-2.4-0.6-3.7c1-0.8,4.3,1.6,4.2-1c-0.2-2.9,1.3-1.7,2.2-3.5c-0.1-0.1,1.9-4.6,2.4-4.9c0.2-0.7-1-1.2-0.4-1.9
		c0.3-0.5,1.8,0.3,2.4-0.1c1.3-0.9-0.8-1.6-1-2.5l1-1.3c-1-0.6-2.4-1.8-2.2-3.1c0.3-1.6,1.8,0.4,2.5-0.7c0.6-0.9-0.8-1.7-0.6-2.4
		c0.2-0.8,1.4-0.6,1.7-1.3c0.1-0.3-0.3-5.1-0.3-6.5c0-0.7,1.3-1.2,1.1-1.8c-0.3-0.6-1.8-0.4-1.3-1.5c0.3-0.7,2.4-0.9,2.8-2.2
		c-0.3-0.8,1.3-0.6,1.7-1.7c0.4-0.9-1.2-2-1.5-2.8c-0.5-1.4,1.4-1.7,1.3-3c-0.1-0.9-1.4-1.5-1.2-1.7l0.3-0.9
		c-3.1-2.1-1.9-0.1-3.4-0.7c-5.4-2.5-4.6-6.1-11.4-3.4c-1.2-0.5-2.1-1.9-3.5-2c-2.5-0.2-4.1,4.8-6.7,3.8c-1.5-0.5-0.5-4.5-3.9-5.6
		c-3.4-1-3.8,1.9-5.9,3.6c-1,0.8-2.2,0.9-3.3,1.3c-1,0.4-1,2.8-2.5,3.2c-1.5,0.4-3.1,0.4-4.4,1.3c-1.9,1.4-0.9,3.6-4.3,4.3
		c-2.1,0.5-5,1-7.1,1.1"/>
	<path id="path30" class="st1" d="M72.3,332.8c-0.5-3.5-2.8-5.8-4.1-8.9c-0.3-0.8,0.1-1.6-0.3-2.4c5.8-6.3,9.3,2.8,13.2,2.1
		c4-0.8,0.5-3.8,5-7.2c4-3,3.8-1.7,6-2.7c0.4-0.2,0.8-1.3,0.5-1.5c0.7-0.5,1.5-0.9,2.2-1.4l-0.3-1l-1.2,0l0-4.1
		c-2.1-2.2-2.1-0.6-4.8,0.2c-0.7,1.8-2.5,0.7-4,0.8c-1.2-1.3-3.3-1.9-4.6-3.1l0.2-0.7c3.7-2.8,2.3-0.6,6.1-5c0-1.3-1.4-2.8-0.5-4
		c-0.2-0.3-0.2-0.8-0.1-1.1c-0.6,0-0.7-0.6-0.7-1.1c0-1.4,3.7-1.6,1.2-3.9l-0.9-0.7c-0.5-1.7,4.1-6-0.6-7.7c0.4-2-1.3-3.4-1.1-4.6
		c-1.8,1.6-1.2-2.4-1.2-2.6c-0.6-2,1.3-2.7,1.4-4.8c3.3,0.9,5.5,2.8,8.9,3.5c3.1-3.2,7.2-6.8,8.5-11.1c-1.4-1-3-1.8-4.6-2.4l0.8-2.3
		l0.8-0.6l0.5,0.5l1-0.4c1,0.1,7.7,5.2,8.3,5.2c1.5,0,2.7,0,4,0.9l1.6-0.1c1.3,0.9,1.7,1.3,3.4,0.5c0.2,0.2,0.5,0.3,0.4-0.1
		c-0.2-0.9-0.8-1.7-1.2-2.4l-1.2-2.2c2.8,1.2,0.2-1.9,0.1-2.6c0-0.3,0-0.9,0.6-0.7c0.6,2,4.5-0.4,5.6,0.3c0.6,0.4,0.2,1.2,0.2,1.8
		c0,0.7,3.2,5.2,3.6,5.9c0.5-0.5,1-1.1,1.6-1.6l2.8,2.7c0.8,0.2,1.6-0.1,2.4-0.2c2.7-0.4,7,0.7,9.2,0.1l0.2-2l1.1-1.2
		c-1.3-3.8-2.9-7.3-4.4-11c-1.8-0.2-3.5,0.1-5.3,0.2c-12.1,0.4-20-1.2-30.5-7.1c-3.9-2.2-11.7-4.6-14.4-7.5c-2.4-2.6-1.1-8-4-9.7
		c-3-1.7-6.4-0.3-9.5-1.2c-1.9-0.5-3.1-2.6-4.6-3.7c-1.5-1.1-3.4-1.9-4.2-3.7c-0.4-0.9-0.4-2,0.1-2.8c2.5-4.4,10-0.2,9.3-5.7
		c-0.7-5.7-8-2.4-6.2-11c0.5-2.3-0.2-5.1,1.7-7c1.3-1.4,3.7,1.3,4.9,1.8c3.5,1.4,10.2,0.3,11.1-4c1.4-6.7-9.3-6-10.5-6.7
		c-1.8-1-0.2-4.2-2.4-5c-3.7-1.3-3,1.3-4.9,3.5c-2.5,2.8-7.8,1.7-10.2-0.4c2.2-3.1,2.3-4.5-1.3-5.7l-0.2,0.5
		c-8.2-2.2-0.8-3.7-0.5-7.6c3.7,0.6,0.2-2.5-0.9-2.2c0.2-1.5,1.5-2.4,2.4-3.4c1.5,0.7,3.4,1.6,4.6-0.1c-0.4-0.7-2.4-1.9-2.4-1.9
		c-0.9-0.6-1.1-1.2-0.6-2.2c2.3-1.3,9,0.2,6-4.8c-0.6-0.9-0.5-1-1.2-1.8c-2.4-2.6-6.5-1.7-7.5-6.4l2.2-0.4c1.5,0.9,3.9,2.2,5.5,1.9
		c2-0.4,2.9-4.5,1.2-4.9c-1.4-0.4-1.4,0.4-2.3,0.9c-0.5,0.3-1.9-0.1-2.6-0.1c-1.8,0-4.2-1.1-6-0.7c-0.5-1-0.7-1.8-0.8-2.9
		c4.1-1,9.1,1.8,11.8-1.1c0.9-0.9,1-1.4,1-2.6l-0.6-0.8c-1.5-0.3-3,0.1-4.2,1c-0.5-0.5-0.8-1.2-1.2-1.8c-1.2,0.5-2.6,1.4-3.9,1.6
		c-2.7,0.5-2.2-1.2-4.3-1.9c-4.3-1.6-10.3-3.6-2.8-7.5c0.5-0.2,2.9,1.9,4,1.8c1.9-0.1,3.7-8.5,3-9.8c-2.7-4.4-5.8,0.3-7.4,2
		c-0.4,0.5-2.7,2-3.2,1.2c-0.8-1.3,1.1-5.3,1.3-6.8c0.2-1.8,0-3.8-0.1-5.6c1.8,0.6,5.7,1.4,6.5-1.1c0.9-3.1-5.2-2.9-4.8-6.5
		c0.4-2.9,5.8-1.2,5-5.1c-0.4-0.4-1.3-0.2-1.8-0.5"/>
	<path id="path34" class="st1" d="M51.8,92.6c0.8-1,1.6-2.1,2.5-3c2.9,0.4,6.4,1.1,9.1,2c1.3-0.7,2.7-1,4.1-1.5
		c0.3,0.7,0.7,1.3,1.1,1.9l2.3,0.1c-0.7-1.7-1.4-3.4-1.8-5.2l1.3-2.8c1.1-2.3,11.8-0.9,11.9-1.1c-0.4-2.7-1.5-5.4-2.1-8
		c0.6-1.8,4.9-6.7,6.2-9.2c1.5,0.6,3.1,0.6,4.7,0.7c1.9,1.9,1.5,6.5,2,8.7c0.3,1.1,3.1-0.2,3,0.9l6.3,0.3c-0.3-0.4-0.5-0.8-0.9-1.1
		c1.6-0.5,3.7-0.3,5.4-0.3l0.6,0.9l7.7-0.4l1.9,2l1-0.8l-3.3-4.9c4.3-3,8.6-5.8,13-8.6c0.6,0.1,2.4,3,2.7,3.6l1.3-0.8
		c0.7-0.4,4.3-1.4,4.4-1.5c0.6-0.6,0.8-1.5,1.3-2.1c1.8-2.5,4.5-4.2,7-5.9c0-0.7-0.1-2.3-0.3-2.9c0.6-1,2.2-0.9,2.5-2.3l0.8,0.2
		c2.3-1.1,4.8-2.2,6.7-4l-3.1-2.9l-0.9-1.9l2.4-2.2l1.6,0.9c1.8-1.4,3.6-2.7,5.3-4.1l0.1-1.8c3.8-2.1,5.1,1.1,7.7,0.3l3.8,0.7
		l4.8-4.5c0.2,0.2,2,1.8,1.4,1c0.6,0.5,3.3,2,2.7,0.7c0.6-0.5,1.3-0.9,1.9-1.4c1.1,1.3,3.6,4.3,4.9,4.6l1-0.3c1.8,1.3,2.3,3.7,4,5
		c1.3,1,6.5,1,9.5,4.2c1.9-1.8,4-2.6,5.5-4.9c4,0.3,10.2-2.9,13.2-5.9l4,0c1,0,9.1-0.2,9.2-0.2c1.3,0.6,1.6,2.3,1.7,3.6
		c0.5,5.8,2,2.9,5,2.9l0.7,0.5l0.1,0.4c1.4-1.2,4.7-9.4,6.9-6.8l-0.4,0.5l0.4,2c0,0.2,4.6,3.6,5.1,3.6l0,0.5
		c0.9,0.7,5.7-2.3,6.7-2.8l0.4-0.7l4.2,3.7l0.4,1.9c1.3,1.4,2.6,0.2,3.7,2.6c0.8-0.4,1.6-0.9,2.4-1.3c0,0-0.2,1.3,0.8,2
		c0.5-0.7,1,0.6,2.3,0.9"/>
	<path id="path36" class="st1" d="M273.6,48.4c0.4-0.1,2.7-0.5,2.3,0.1l-0.7,0.3c-0.3,0.5-1.2,0.6-1.7,0.6c-0.5,0.5-0.3,1.1,0.2,1.6
		c-0.4,1.1,4.6,4,5.7,4.4c-0.2,0.7,0.8,2.3,1.3,2.8l-0.2,0.5c1.8,1.9,4,3.5,5.7,5.4l-0.7,0.3l-0.7,1.3c1.1,2.7,2.4,5.3,3.4,8.1
		l-0.7,0.2l-0.1,1l-0.7,0.1c2.3,3,6,5.5,9.1,7.8c2.3-0.4,4.5-0.9,6.8-1.2l5.9,3.8c1.5,4.8,2.7,9.3,5.2,13.7l5.4-1.8l-0.5-1.3l3.6-1
		c0.5,1.9,0.9,3.9,1.5,5.8l-0.5,0.2l0.3,1l-0.2,0.5l0.8,1.7l2.1-0.6c0.2,0.8,0.5,1.5,0.7,2.3l2-0.5l7.9,7.9c-0.6,1.3-1,2.6-1.5,3.9
		l0.7,0.9l0.4-0.1l0.9,3.2c1-0.3,2-0.5,3-0.7c1,2.2,1.6,4.5,2.1,6.9l-0.6,0.1l0.4,1.5l0.7-0.2l0.6,2.4c0.9-0.5,1.6,0.3,2.5,0.1
		l0.2-0.4c3.2-1.2,5.6-0.8,8.8-0.6c0.7-2.5,1.2-5,1.9-7.4l6.1,2.6c-0.4,2-0.8,4-0.9,6l-1.3,0.2c-1.4,3.3-0.8,7-1.2,10.4l0.2,0.5
		l-1,2.8l1.1,1.2c-0.4,2.3-0.4,3.3,0.5,5.5c-5.1,4.5-2.1,5.1-6.5,10.3c0.4,2.2,0.8,4.4,0.9,6.7c1.2-0.4,2.4-0.7,3.6-1
		c0.8,1.5,2.2,2.8,3.2,4.2l-0.3,0.5l2,3.2l-0.6,0.3c0.5,1.1,1.3,2.1,2,3.2c-0.2,0.1-0.8,0.3-0.9,0.5c-0.3,0.3-0.7,1-1,1.4
		c-2.8,3.9-4.4,4.1-8.4,6.2c0.4,0.7,0.3,2.7,0.3,2.7l0,1.9c7.1,0.4,9.4-1.7,15.7,3.5c0.8,0.7,1.8,3.6,2.1,3.9c0,0-2,1.7-2.4,2.3
		l0.1,0.9c0.7,0.7,3.7,3.4,4.7,3.1l0.8,0.4c1-0.1,2.1-0.2,3.1-0.2c0.2,0.8,0.4,1.5,0.6,2.2c0.4,0.1,0.8,0.3,1,0.5
		c-0.2,0.4-0.1,2.9-0.1,2.9l0.2,1.4c0.9,0.1,1.9,0.2,2.8,0.2c0.1,0.9,0.3,1.9,0.4,2.8c1.7,1.3,3.2,2.4,5,3.5c1.2,0.8,0,3.5,4.5,3.6
		l1.1,3.9c2.6-0.4,5.1-1,7.7-1.6l-0.3,4.4c1,0.1,2.2-0.7,3-1.2c0.8,1.7,1.7,3.2,2.5,4.9l2.6-1.1c0.8,0.4,1.8-0.8,2.6-0.8l2.7-0.1
		c0.5-0.6,0.9-1.2,1.5-1.7l-0.7-0.9c0.7-0.6,1.4-1.2,2-1.9c0,0,1.8,0.4,2.3-0.1c0.3,0.4,0.7,0.8,1.2,1l0,1.1c-1.2,0.7,1.1,5,1.2,6.4
		c0.8,1.1,2,1.7,2.9,2.7l-1,2.4c0.9,1.1,1.6,2.3,2.6,3.3l0.7-0.5c4.1,0.5,6.2,4.5,8.6,5.1l0.8-0.8l-0.1-0.3l1.7-1.9
		c1.3,0.8,4.6,0.7,4.6,0.7l0.8,0.9c0.6,0.3,2.2,0.8,2.2,0.8c1.3,0.5,2.3,1.6,3.4,2.5c0.5-0.3,1-0.6,1.5-0.9c1.4,0.6,2.8,1.1,4.1,1.7
		c0.4-0.8,1-1.5,1.3-2.3l1.2,0.8l1.2,1.6c2,0,2.7,3.3,3.9,3.8c2.1,0.9,4.5,1.4,6.6,2.1c0.7,1.2,0.8,3.9,2.1,4.6l0.6-0.1
		c0.8,0.4,1.6,0.6,2.4,0.2c1,1.6,3,5.6,2,7.4c-1.2,0.7-3.3,2.4-4.4,2.9c-0.9,0.4-2.2-0.6-2.8,0.6h-0.4c-0.5,0.9-0.3,2.1-1.2,2.7
		c-0.8,1.9,1.1,2.6,1.8,4.1c-0.6,0.5-1.6,1.2-1.6,2.1c-1.2,1-2.3,3-2.7,4.5c-0.9,0-2.3,2.3-0.9,2.6c0.3,0.8,0.7,1.6,1,2.4
		c-1.7,0.6-3.7,0.8-5.4,1.6l-0.5-0.4c-0.8-0.1-1.6-0.1-2.4-0.4l-0.7,1.5l-1.6,0.8c0,0-2.7-0.3-3,0.1c-0.7,0-1.4,0.8-1.6,1.4
		c0.5,1,1.4,2.2,2.2,3.3l0.9,1c0.9,0.2,3,1.8,3.8,2.3l1.4,1.3l-1.2,1.8c1.5,1.6,3.3,2.8,5.1,4l1.1-0.4c4.6,1,7.9,2.8,11.9,5.4
		c1.3-1,3.4,1,4.5,1.6l-0.1,0.5l1,1.1l-0.4,1.4c0.4,0.9,1.1,1.7,1.3,2.6l-0.2,0.5c0.4,0.7,0.4,2.6,0.4,3.4c-2.8,0.9-5.1,1.3-7.9,2
		c-0.4,0.8-1.2,1.1-1.8,1.7c-0.6,0.1-1.2,0.1-1.7,0l-0.9,0.6c-0.9-0.2-3.2-0.5-3.8,0.1l-0.1-0.5l-1.2-0.7l-1.3,0.1
		c0.2,0.6-0.7,0.8-1,1.2c-0.5,0-0.7-0.3-1.2-0.2c-1.9-1.3-1.9,0.1-3.6,0.2l-0.2,0.4c-1,0-2.2-0.5-2.9-0.4l-0.7,0.8
		c-0.6-0.3-2.5-0.3-2.5-0.3c-0.4,0.6-0.7,2.1-1.2,2.4l0,1c0,0-0.3,1.4-0.5,1.8l-0.8,1.2l1.5,1.6c0,0-0.7,0.7-1,1
		c0,0.5,0.1,1,0.4,1.4c7.1,3.2,3.3,8.3,6.3,9.8c4.8,2.3,24.5-1.2,30.8,4.2c0.6,0.5,1.4,2.1,1.7,2.9c0.7,1.4,2,3.5,2.2,5.1
		c0.6,4.2-1.6,13,3.7,15.1c2.3,0.9,5.6-1.8,8.3-1.7c2.2,0.1,3.5,2.4,5.7,2.6c2.6,0.2,4.8-1.5,7.3-1.6c3.4-0.2,4.5,1.4,7.3,2
		c1.5,0.4,3-0.7,4.5-0.7c2.8,0.1,5.3,2.1,7.8,2.2c4,0.2,3-1.9,7.2,1c2.9,2,5.7,1,8.9,1.5c2.7,2.3,1,3.4,2.3,5.6
		c0.8,1.3,2.2,1.9,3.1,3.1c0.5,0.6,0.9,1.6,0.8,2.3c-0.3,1.5-0.6,6,0.5,7.1c0.5,3.6,3.6,3.8,5.9,5.9c1.8,1.6,1.1,2.7,2,4.5
		c1,2,1.9,2,3.5,3.2c4.4,3.6,3.4,3.8,9.4,4c5.7,0.1,3.8-5.9,6.3-8.5c1.4-1.5,1.6-3.6,2.4-5.4c2.1-4.5,5.7-8.6,7.8-12.9
		c1.2-2.5,1.1-5.4,2.2-7.5c0.3-0.6,1.2-0.2,1.6-0.7l2.1-2c2.3-2.2-2.1-2.7,5.2-8c1.5-1.1,4.3,1.9,9.1-1c6.8-4.1-0.1-5.4,12.5-8.1
		c2.8,1.4,15,15.2,18.5,18.6c0.9,0.9,2.2,1.2,3.3,1.9c8.7,5.7,9.7-2.4,13.4,3.8c1.3,0.6,2.9,0.5,4.2,1.3c1.3,0.9,1.8,2.7,2.9,3.8
		c5.1,5.4,9.4,9.3,0.6,12.9c-1.9,0.8-3.8,2.4-6,2.4c-3.8,0.1-8.1-9.8-16.6-7.8c-7.7,1.8-2.1,8.4-8.4,15.1
		c-4.8,5.2-12.1-2.9-13.4,2.4c-0.6,2.4,0.2,2.7,0.9,4.9c1.4,4.2,3.3,3.9,6,6.6c0.5,0.5,0,7.6,0.3,9c0.2,1.1,1.2,1.8,1.6,2.9
		c0.9,2.2,1,4.9,2.3,6.9c0.9,1.4,2.3,2.4,3.3,3.6c0.8,1,1.2,2.2,1.9,3.2c1.2,1.6,3.2,1.8,5,2.2c2,0.5,4,1.3,6.1,1.5
		c7.1,0.7,9.6,1.4,9.6,9.5c-1.9,1.5-2.9,5.7-1.6,7.8"/>
	<path id="path42" class="st1" d="M661.5,477.1c-0.7,0.3-1,0-1.7,0.3c-0.3,0.4-0.9,1.1-1.4,1.2l-1.5,1c-0.7,1.1,0.1,1.9-1.7,3.2
		c0.7,0.1,1.3,0.4,0.9,1.2c-1,1.8-1,1.8-1,1.8c-0.1,1-1.9,0.2-1.4,0.9l-2.4,1.6c0.3,0.3,0.6,0.6,0.7,1l1.7,0.7
		c-0.2,0.6-0.5,1.8-0.3,2.5l-0.8,0.2c-0.7,1.8-2.1,7.3-1.8,9.1c0.4,2.1,1,0.1,1.4,4.2l-0.1,1.6c-1.2,0.7,0.4,1.4,1,1.7
		c-0.9,0.8-1.1,1.1-0.5,2.2c-2,0.4-4.2,0.1-6.3,0.3l-0.2,1.7c-1.2,0.4-2.6-1.3-3.8-0.3c-1.1,0.9-3.9,0.2-4.3,1.5l1.7,1.7l0.2,1.8
		c-0.4,0.4-0.7,1.3-0.7,1.8l-1.3,1.1c-2.2,1.5-5.5-0.4-7.7-0.1c-1,0.1-1.6,1.1-2.7,1.2c-1.3,0.1-2.6-0.6-3.9-0.3l-0.2,1.3
		c-1.4,0.5-6.4,0.8-4.9,2.6l-0.5,2.9c0,0.3,0.1,1.5,0.6,1.6c-0.7,2.1,0.7,3.9-0.9,7c-0.2,0.3,0.6,1.5,0.4,2.2
		c-0.5,1.6-4.9,1.1-2.4,4.9l-0.2,0.7c0.8,1.1-1.9,13-2.1,15.2c-0.1,1.9-2.1,4-3.1,5.3c-0.1,0.2-0.5,2.5-0.5,2.8
		c1.8,4.2,3,8,6.1,11.4c0.4,0,0.9,0,1.2,0.1c-0.7,2.1,0,5-1,6.5c0.1,0.5,0.6,1,1,1.4c0.5,2.1,0.9,4,0.9,6.1c0,0.6,1.6,2,2,2.6
		c0.4,0.6,0.2,1,0.8,1.5c0.7,0.5,1.6,0.5,2.3,1.1c1.1,0.9,1.6,2.3,3,3.2c0.9,0.6,2.1,0.1,3,0.6c1.1,0.6,0.8,1.5,1.1,2.5
		c2.4,1.2,0.9,3.3-0.4,4.6c1.8,2.3,2.5,4.9,1,7.4c0.1,0.8,0.7,1.5,1.4,1.8c0.4,0.9-1.1,2.7-1.2,3.6c-0.4,3.3,2,4.2,2.3,6.5
		c0.2,1.9-0.4,3.2,0.5,5.3c0.1,0.3,0.9,1.1,1.2,1.4c0.3,0.4-0.1,1.2,0.8,2.1c1.9,1.9,0.4,1.6,1.1,3.3c0.3,0.7,1,3,1.8,3.6
		c0.8,0.7,2,1.2,2.9,1.8c0.3,0.2,2.6-1,3.5-0.4c1.4,1,2.2,3.6,2.3,5.2c1.6,1.7,3.8,2,6.1,2.7c0.5-0.1,1-0.6,1.4-1l3.7,1.5
		c0,2.5,1.5,2.3,1.2,5.1c3.7,4.3,2.2,0.3,5.1,2.2l3.7-0.5c0.3,0,1.8,1.5,2.3,1.7c0.6,0.3,1.3,0,1.9,0.4c1.3,0.8,1.6,1.5,3.3,2.2
		c0.1,3.9,0.1,2.3,2.2,4.4c1.2,1.1,1.8,2.7,3,3.8c1.2,1.2,3.5,0.9,4.4,2.4c1.7,3.1-1.1,2.5,3,7.6c0.1,0.9-0.6,1.8-0.3,2.7
		c1,3.3,2,1.2,3,2.5c0.4,0.5,0.5,0.9,1.1,1.3l0.1,2.7c0,0.4,3.4,5.1,4.1,5.5c0.6,1.6,0.3,1.4,2.1,2.4c2.3,1.2,3.5,2.2,5.5,4.2
		c3.7-2.2,5.3,0.5,6.5,0c0.9,0.8,2.5,2,3.6,2.3c0.2,0.3,0.2,0.8,0.1,1.1c-0.7,0.7-3,3.8-3.2,4.6c2.1,1,1.7,3.3,1.3,5.3
		c0.8,1.4-0.8,3.5-1.5,4.7c0.1,3.9-3.1,4.2-5.4,6.7c-2.2,0.4-4,1-5.4,2.8c-0.1,1.7-1.6,4.2-1.5,5.5c-1.7,0.8-1.6,2.3-1.7,4l-3.5,2.1
		c-5.1,2.9-4.4,6.7-5.4,7.4c-1.4,0.9-5.2,2.4-6.9,3c-3.6,1.2-0.5,7.9-2.5,8.4l-0.6-0.3c-3.1,1.4,1.8,2.7-0.6,6.7
		c-0.5,0.1-1.1,0.5-1.2,1.1c-0.6,0.3-1.1,2.2-1.2,2.9c-0.9,0.5-0.8,0.6-1.1,1.6c-0.8,2.2-4.6,1.4-6.5,2.9c-0.6-0.4-1.1-1.1-1.4-1.6
		c-0.5,0.3-1.8,2.7-3.3,3.9l0.2,0.6c-1,2.1-1.7-0.3-1.9-1.4c-0.8-0.5-1.4-1.3-2.2-1.7c-2-1-2.6,2.6-4.9-1.2l-1-1.7
		c-1.7-0.4-2.7,1.7-3.6,0.1l-2.2,0.6c-1.5,4.4-1.8,0.9-1.6,6.3c-1.5-1.9-6.4-2.5-5.7-5.2c-1,0.9-2.1,1.5-2.8,2.7
		c-0.4,0.7-0.7,1.4-0.6,2.2c0,0.2,0.3,1,0.1,1.1c-2.2,2-3.6,2.1-4.5,3c-0.6,0.5-3,4-3.8,3.2l-0.5-0.6c-0.6,0.5-3.3,2.2-4.1,1.9
		l-0.3,0.6c0.2,1.2,0,2.5,0.2,3.7c0.2,1.1,1.3,0.4,1.6,2.1c2.5,1.6,0,3.4,4.1,6.5c0.1,3.8,3.6,4,4.2,6.4c-0.8,1.2-1.2,2.3-0.8,3.7
		l-1.7,0.3c-0.4,1.5-0.6,1.5-1.7,2.5c-0.2,0.8-0.3,1.7-0.7,2.4c1.3,1.4-1,2.3-2.1,2.4c-0.2,1.3,1.9,1.7,2.7,2.9
		c-0.5,2.2-0.8,3.4-2.7,4.8c0.4,0.4-0.8,1.9-0.8,1.9c1.2,1.1,3.3,0.7,1.6,3.3l-1,0.2c0.3,0.5-1.2,6.4-1.5,7.7
		c0.3,0.6-0.9,1.5-1.3,1.8c-0.5,1.6-0.1,3.6-0.4,5.2c-0.1,0.4,0.3-0.1,0.5-0.1c1-0.4,4.1,0.4,4.7,1.2c3.4,4.5,10.4,8.8,13.4,13.7
		c-1.1,1.4-0.3,3.4,0.7,4.5L642,869c-3.9,6.6-1.5,4.3-3.6,10c-0.2,0.5,0.9,0.9,0.2,2c0.2,0.8-0.7,1.3-1.1,1.9
		c-0.7,0.9-0.9,1.6-0.9,2.8c0,3.8-2.5,1.4-4.3,1.4c-1.3,0-1.3,0.9-2.9,0.4c0.2,0.6,0.4,1.2,0.6,1.8c-0.6,3-2.3,1.1-2.2,3.6
		c-3.1,4.3,1.1,4.4-2.3,8.7c-1.9-0.1-2.5,1.9-3.3,1.9l-1.4-2.4c-0.7,2.2-2.4,0-3.2,0.3c-0.2,0.4-0.5,0.9-0.7,1.3
		c-2-0.1-1.5,1.2-3.7,0.6l-1.8-0.1c0.1,0.7-0.6,2.2-1,2.7"/>
	<path id="path46" class="st1" d="M326.1,1004.2c0.4,1,3.8,5.4,4.7,5.6c2.5-2.2,6.6-8.5,9.2-2.7c1.4,3,1.1,0.5,3.3,0.4
		c1.3-0.9,2.4-1.8,3.8-2.4c0,0,1.5-0.5,2.1-1.1c0.4-0.4,0.1-2,0.4-2.7c0.6-1.3,1.3-0.7,2-1.4c2.8-2.9,1-3.6,5.6-5.6
		c0.2-0.6-1.1-1-1.4-1.2c-1.1-0.9-3.2-2.9-3.5-4.3c-0.2-0.8,2.6-1.7,1.9-3.3c-0.8-1.9-1.6-3.6-2.9-5.2c-0.1-0.2,0-8.7-0.2-9.8
		c0.6-1.4,2.1-2.3,2.5-3.7c-0.5-0.6-1.2-1.5-0.9-2.3c1.7-0.8,3.2-2.6,4.4-4.1c-0.2-0.3-0.3-0.8-0.2-1.1l1.3-1.5
		c0.6-0.2,1.1,0.2,1.7,0.3c1.1,0.2,2.7-0.4,3.9-0.5c2.2-0.4,2-3.1,2.9-3.3c1-0.2,1.2,0.4,2.5-0.2c2.9,1,4.3,1.2,6.1-1
		c0.8-1,3.3-2.6,3-3.9c0.3-0.3,0.7-1,0.6-1.5l1.2,0.2c0.8-0.5,1.8-2,2.7-2.3c1.3-0.4,2.7,0.4,4,0.2c1.1-0.2,0.6-0.9,2.4-0.6
		c1.4-1,3.3-1.1,4.2-2.5c0.9-0.3,1.9,0,2.7-0.4c0.5-1.1,1.8-2.1,2.7-3l0.8,0.1c1-0.9,1.4-2.4,2.1-3.5c0.8-1.2,2.2-1.1,3.3-1.8
		c0.8-0.5,3.4-3.8,3.8-3.8c0.8,0,1.6,0,2.4-0.2c0.4,0.4,0.4,1,1,1.2c1.2,0.4,5.4,0.3,6.5,1.1c0.5,0.4,0.4,2,0.6,2.6
		c0.3,1.2,1.4,0.6,1.2,2.4c0.4,0.3,0.7,1.2,0.8,1.7l1.6,1.5c0.4,0.4,0.8,2.5,1.2,3.2c0.5,1,2.7,2.5,2.7,3.6c0,1.3-0.6,2.9-0.5,4
		c0.1,1.6,1.5,1.8,1.4,3.7c2.7-0.6,2.3,0.5,4.3,0.9c0.6,0.1,1.9-0.8,3.5-0.6c1.5-1.6,1.6-2,3.8-2c0.1-0.8,1.5-0.4,1.9,0.3
		c0.3,0.5,2.6-0.9,2.8-1.4c-0.5-0.7-1.1-3.3-1.7-3.1c-0.7-1.4,0.3-1.2-1.4-2.6c0,0-0.8-1.4-1-1.9l1.1-0.7c0.6-1.5,1.3-2.4,2.3-3.6
		c0-0.9-0.8-1.1-0.3-2.2c0.7-1.5,2.2-2.3,2.7-3.9c0.3-1-0.7-2.1-0.3-2.8c1.2-2.6,1.6,1.8,3.2-2.4c1.1-2.9,2-1.4,3.2-3
		c1-1.3,0-1.2,2-3.2c-0.7-1.7,3.7-1.7,4-1.6c1.4,0.4,2.7,5,5.1,4.1c3.1-1.1-1.2-5.4-1-6.3c0.2-0.9,1.5-1.7,1.9-2.5
		c0.3-0.8-1.8-2.1,0.2-2.2c1.1-0.1,1.2,1.8,2.9,1.3c1.7-0.5-0.7-1.8,1.9-2.4c1.6-0.3,1.3,1.2,2.2,1.9c0.6,0.4,2-0.7,2.9,0
		c1.8,1.5,1.8,8.2,4.4,7.2c1.1-0.5,1.7-2.7,3-0.6c2-0.1,5-6.7,7.3-2.7l2.1-0.9c1.1,0.5,2.6,0.8,3.6,1.4l0.3,0.7
		c0.8,0.2,2.8-0.1,3.3,0.2c1.5,0.8,5.2,1.6,5.8,3.1c0.2,0.6,1,0.9,1.6,0.5l0.2-1.3c1.5-0.2,2.4-4.1,3.7-5.6c1.1-0.3,4.6,2,5.7,1.2
		c1-0.8,1-3.6,1.8-4.4c2.5-0.2,2.7-2.2,2.9-4.3c4.4,2.8,3.6,1.4,6-1.8c0.4-0.5,0.9-0.7,1.2-1.3c0.3-0.8-0.5-3.1,0.9-3.3l1.1,0
		c2.7-0.1,4.1,4.9,4.8,3.4c0.9,0.4,0.7,2.1,3.3,1.8c1.1-0.1,5.1-1,5.5-2.2c0.5-1.8-0.3-6.7,1.7-7.3l0.6,0.2c0.4,0.6,5.2,4.2,6,4.1
		c0.3,0.5,2.3,1,2,1.5l1.5,1l0.2,0.8c1.6,0.6,2.7,2.8,3.9,2.8c1.1,0,1-2.7,2.9-2c0.6,0.2,2.8,4,3.6,0.9c1.3,0,2.6,0.2,3.8,0.3
		c0.5-0.5,0.9-1.7,1.2-2.4l1.2,0.5c0.7-0.2,0.9-1.6,1.6-0.6c2,2.7,3.2-0.2,3.8-2.2c0.9,1.2,2.3,0.7,2.7,1.8l0.7,0.5l1.4-2
		c1.6,0.2,0.7-2.2,1.2-2.9c0.7-0.3,3.6-1.9,3.7-0.6l4-0.3c0.4,0,2.5-1.9,2.2-2.3c-0.6,0.1,0-0.8,0.4-1.3c0.2-2.8,1-1.4,2.5-2.9
		c0.7,0.2,0.9,1.3,1.5,1.2c1.8-0.3,0.3-2.9,6.1-2.9c-1.1,0.5-1.4,1.1-1.8,2.2c-0.3,1-1.6,2.1-0.9,3.3c0.8,1.6,5.4,4.7,6.7,6.5
		c0.1,0.2,0.7,0.3,0.9,0.3c1.2,0.3,2.3,0.9,3.2,1.7"/>
	<path id="path50" class="st1" d="M326.1,1004.2c0-3.2-2.1-6-3-9l1.3,0c1.5-1.1,1.1-3.8,3.8-2.7c0.9-1.3,0.3-0.8,1.7-1.9
		c1-0.8,1.8-7.5,1-8.7c-0.9-1.4-1.8-1.5-2.4-3.5c-0.6-2.3,0-4.7-2-6.7c-0.1-8.4-2.2-5.3-4.2-8.6c-1-1.7-1.6-3.6-2.5-5.3
		c-0.2-0.4,1.7-2.3,1.7-3.4c-2.3-3.2,0.5-3,0.4-5.3c-0.1-2-3.1-3.7-1.5-5.7c-0.6-1.1-1.8-1.8-2.4-2.8c0.4-0.5,0.4-1.2,0-1.7
		c-2-2.6-2-8.2-3.2-10.1c-0.7-1.1-1.2-1.4-1.5-2.8c-4.2-1.4-1.2-3.1-3.8-4.5c-0.9-2.1-1.9-0.8-2.7-3.8c-1.1-0.9-2.1-1.8-3.2-2.7
		c-0.4-0.3-1.6-0.3-2.2-0.9l-2.3-0.2l-0.5-1c-1-0.2-2.5-0.1-3.3-0.8c-0.6-0.6-0.8-3.5-1.9-3.1l-0.5-0.1c-0.5-0.7-4.6-1.9-5.6-2.1
		c0.2-0.3,0.2-1.2,0.2-1.6c-0.5-0.5-0.8-1.2-1.3-1.7c-0.9-0.2-0.8-0.6-1.2-0.7c-2.7-0.9-4,4.1-6.2,2.1c-0.4-0.4-0.8-0.3-1-1
		c-1.5-0.9-5.1,2.1-6,0c-0.5-0.3-1.2,0-1.6-0.5c0.4-1.9-0.2-4.1-2-5c0.6-0.5,1.3-0.9,1.9-1.4c0-1.1,0-2.2,0.2-3.4
		c-0.7-1.2-0.4-1.7-0.8-2.8c-0.8-0.4-5.4-4.2-5.4-4.6c0.5-0.4,0.5-1.1,0.7-1.7c0.3-1,2.5-0.5,2.2-2.7c-0.1-0.9-1-2.9-1.5-3.6
		c-1.7-0.2-1.3-1.9-2-2.5c-2.2-1.7-2.8-0.1-1.2-3.1c0.4-0.7-1.7-2.2-2.1-2.6c-0.7-0.8-0.3-2.1-0.6-3.1c-1.1-0.9-1.6-1.5-2.2-2.8
		c0.3-0.4,0.3-1.1,0.1-1.6c-2.2-0.7-8.4-4.9-10.8-6c-0.5-1.4-0.8-1.9-1.8-3.1c0.1-1.2-0.7-1.5-1.6-2.1"/>
	<path id="path54" class="st1" d="M107,632.6c-2,4.1,0.5,4.2,0.3,5.7l-0.6,4.3c0.8,0.6,1.5,1.8,2.2,2.5c1.6,1.7,4.1,2.2,5.7,3.8
		l0.6-0.1c1.3,0.8,2.6,1.9,4,2.6c0.7,0.3,1.8-0.2,2.1,0c2.8,1.7,5.7,3.4,8.4,5.2c1.7,1.1,3.6,4.6,5.3,5.1c2,0.7,4.6,0.4,6.3,1.8
		c0.8,0.7,0.6,1.9,0.7,2.9c0.2,1.1,1.3,1.9,1.4,2.9c0.1,0.8-0.2,1.6-0.4,2.3c1.1,2,1.6,1.1,2.6,2.1c0.8,0.8,0.9,2.3,1.5,2.8
		c0.9,0.9,2.8,1.1,4.2,2.2c1.1,4.2-1.8,9.7,2.3,13.5c6.2,5.7,6.1,2.1,8.9,3.8c0.8,0.5,7.3,9.9,7.5,11.1c0.3,1.3-0.2,3.9,1,4.7
		c3.9,2.8,11.5,1.1,16.1,1.5c1.4,0.1,1.9,1.2,3.1,1.7c2.8,1,5.8-2,5.4,3.8c0,0.4-0.3,0.9-0.6,1.2c0.2,0.9,2.4,2.3,3.2,2.8l0.6,1.3
		c4.5,2,3.7,4.9,4.9,5.4c0.8,0.3,1.8-1.4,3.7-1c1.1,0.2,1.7,1.3,2.7,1.6c1.9,0.6,10.4,2.6,11.9,2.2c1-0.3,1.6-1.2,2.5-1.5
		c0.4,0.9,0.4,1.9,0.8,2.7c3.4,7.7,4.4,7.1,11,11.5c1,0,1.6,0.9,2.5,1.2c0.9,0.3,2,0.2,3,0.4l0.5,1c-0.3,0.8-6.3,4.8-6.1,6.2
		c0.9,0.4,4.7-1.7,5.9-1.7c1.5,1.4,3.2,1.9,2.6,4.3l1.1,0.4c0.2,0.7,0.1,0.5,0.7,0.6c2.5-1.1,2.8,1.8,3.7,1.8c0.4-1,1.6-1.4,2.3-2.6
		c1-0.6,3.1-0.3,3.1-0.3l0.7,0l0.2,0.8c2.4,0.3,2.5,1.2,4.2,2.6c2.1,1.7,2.6,0.6,3.6,1c1.1,0.4,1.4,2.1,2.5,2.8
		c1.7,1.1,4,0.8,5.8,1.8c1.5,0.8,2.3,1.9,4.2,1.8c4.5,4.4,3.4,0.4,6.6,0.5c0.3,0.2,0.5,0.7,0.5,1.1c0.7,0.3,1.9-0.2,2.6-0.3
		c-1.5,1.9,0.5,4,0.3,5.9c-0.2,1.9-0.9,4-1.2,6c-0.1,1,0.7,2.3,0.9,3.3c0.2,1.5-0.7,2,1,3.1c0.1,0.6-0.1,1.4,0.5,1.7l0,0.5
		c-0.5-0.3-1.5-0.2-2.1-0.1c-0.7-0.9-1.2-0.9-2.2-0.8l-1.8,1.5l0.1,0.7c-0.6,0.4-1.8,1-2.3,1.6c-0.6-0.2-2.1-1.1-2.2-1.8
		c-2.1,0.2-4.1,1.8-6,2.6c-0.3,0.1-1.4,1.9-2.2,2.4l0.1,1.2c-1.1,1.8-2.1,3.4-4.5,2.9c0.5,2.1,2.5,5.4-0.8,2.9
		c-0.6,0.2-1.2,3.5-1.3,4.3c-1.1,0.1-1.4-0.3-2.4-0.5l-1.8,0.2c-1.3,0.2-2.7,0.5-4.1,0.6c-1.4-0.6-2.5-2-4-2.3
		c-1.3-0.3-0.7,1.1-2.1,0.3c-0.5-0.3-0.6-1.1-1.2-1.4c-0.6-0.4-2.9-0.8-3.8-1.2c-0.9-0.4-1.6-1.3-2.4-1.7c-2.9,0.9-4.7,4-6.1,3.3
		l-1,0.5l-0.9-0.2c-2.1,4.3-4.8,2.5-5.4,5.8c0.5,0.4,0.8,1,1.3,1.3c-0.2,1.4-0.7,1.7-0.2,3.2l-2.5,0.8c0.7,0.9,0.8,1.3,0.7,2.3
		l1.3,0.2c0.7,1.8-0.5,3.5,2.7,3.4l-0.2,1.3c2.3,0.8,6.2,0.4,7.6,0.7c1.4,0.4,3.2,3.5,6.9,4c0.2,0.6,1.2,1.2,1.8,1.4
		c0.5,0,1,0,1.4,0.2l-0.3,1.4c-3.3,2.3-2.4,3.5-3.5,4.4c-4.7,4.1-0.3,7.1-0.1,11.7c0.1,0.9-1.9,3.4-1.2,4.9"/>
</g>
<circle class="st2" cx="231.1" cy="231.1" r="7.8"/>
<circle class="st2" cx="305.1" cy="302.3" r="7.8"/>
<circle class="st2" cx="242.1" cy="458" r="7.8"/>
<circle class="st2" cx="365.6" cy="495.8" r="7.8"/>
<path class="st3" d="M240.4,197.7L240.4,197.7c-5.2-5.2-13.6-5.2-18.7,0l0,0c-4.7,4.7-5.2,13.4-1.2,18.7l10.6,15.3l10.6-15.3
	C245.6,211.1,245.1,202.3,240.4,197.7z M231.2,211.3c-2.4,0-4.4-2-4.4-4.4c0-2.4,2-4.4,4.4-4.4c2.4,0,4.4,2,4.4,4.4
	C235.6,209.3,233.6,211.3,231.2,211.3z"/>
<path class="st4" d="M249.4,431.3L249.4,431.3c-4.1-4.1-10.6-4.1-14.7,0l0,0c-3.7,3.7-4.1,10.5-1,14.7l8.3,12l8.3-12
	C253.5,441.9,253.1,435,249.4,431.3z M242.2,442c-1.9,0-3.4-1.5-3.4-3.4s1.5-3.4,3.4-3.4c1.9,0,3.4,1.5,3.4,3.4S244.1,442,242.2,442
	z"/>
<path class="st4" d="M312.4,275.6L312.4,275.6c-4.1-4.1-10.6-4.1-14.7,0l0,0c-3.7,3.7-4.1,10.5-1,14.7l8.3,12l8.3-12
	C316.5,286.2,316.1,279.3,312.4,275.6z M305.2,286.3c-1.9,0-3.4-1.5-3.4-3.4c0-1.9,1.5-3.4,3.4-3.4c1.9,0,3.4,1.5,3.4,3.4
	C308.6,284.8,307.1,286.3,305.2,286.3z"/>
<path class="st4" d="M372.9,469.1L372.9,469.1c-4.1-4.1-10.6-4.1-14.7,0l0,0c-3.7,3.7-4.1,10.5-1,14.7l8.3,12l8.3-12
	C377,479.7,376.6,472.8,372.9,469.1z M365.7,479.8c-1.9,0-3.4-1.5-3.4-3.4c0-1.9,1.5-3.4,3.4-3.4c1.9,0,3.4,1.5,3.4,3.4
	C369.1,478.3,367.6,479.8,365.7,479.8z"/>
<g>
	<path class="st3" d="M534.2,36.5h4.4v25.9h-3.5l-14-18.2v18.2h-4.4V36.5h3.5l13.9,18.1V36.5z"/>
	<path class="st3" d="M547.4,61.5c-1.4-0.8-2.5-1.9-3.3-3.3c-0.8-1.4-1.1-3.1-1.1-5.1c0-1.9,0.4-3.6,1.1-5.1
		c0.8-1.4,1.9-2.6,3.3-3.3c1.4-0.8,3.1-1.2,4.9-1.2c1.8,0,3.5,0.4,4.9,1.2c1.4,0.8,2.5,1.9,3.3,3.3c0.8,1.4,1.1,3.1,1.1,5.1
		c0,1.9-0.4,3.6-1.1,5.1c-0.8,1.4-1.9,2.6-3.3,3.3c-1.4,0.8-3,1.2-4.9,1.2C550.4,62.7,548.8,62.3,547.4,61.5z M555.8,57.6
		c0.8-1,1.2-2.5,1.2-4.5c0-2-0.4-3.5-1.2-4.5c-0.8-1-2-1.5-3.5-1.5c-1.5,0-2.7,0.5-3.5,1.5c-0.8,1-1.2,2.5-1.2,4.5
		c0,2,0.4,3.5,1.2,4.5c0.8,1,2,1.5,3.5,1.5C553.8,59.1,555,58.6,555.8,57.6z"/>
	<path class="st3" d="M578.1,44h4.5l-8,18.3h-4L562.6,44h4.8l5.3,13.2L578.1,44z"/>
	<path class="st3" d="M584.7,35.7h5.1v4.5h-5.1V35.7z M584.9,62.4V44h4.5v18.4H584.9z"/>
	<path class="st3" d="M607.9,61.9c-1.7-0.5-3.2-1.3-4.4-2.3l1.6-3.4c1.3,0.9,2.6,1.6,3.9,2.1c1.4,0.4,2.9,0.7,4.5,0.7
		c1.8,0,3.2-0.3,4.2-0.9c1-0.6,1.5-1.5,1.5-2.7c0-1-0.5-1.7-1.4-2.2c-0.9-0.5-2.4-1-4.5-1.5c-3.3-0.7-5.6-1.6-7.1-2.7
		S604,46.2,604,44c0-1.5,0.4-2.9,1.2-4.1c0.8-1.2,2-2.1,3.5-2.8c1.5-0.7,3.3-1,5.3-1c1.8,0,3.5,0.3,5.2,0.8s3,1.3,4,2.3l-1.6,3.4
		c-2.3-1.8-4.9-2.8-7.6-2.8c-1.7,0-3,0.3-4,1c-1,0.7-1.5,1.6-1.5,2.8c0,1,0.4,1.8,1.3,2.3c0.9,0.5,2.3,1,4.4,1.5
		c2.2,0.5,3.9,1.1,5.3,1.7c1.4,0.6,2.4,1.4,3.1,2.3c0.7,0.9,1.1,2.1,1.1,3.5c0,1.6-0.4,2.9-1.2,4.1c-0.8,1.2-2,2-3.6,2.7
		c-1.6,0.6-3.4,0.9-5.5,0.9C611.5,62.7,609.7,62.4,607.9,61.9z"/>
	<path class="st3" d="M645.4,44v18.4H641v-2.9c-0.6,1-1.4,1.8-2.4,2.4c-1,0.6-2.2,0.9-3.6,0.9c-1.6,0-3-0.4-4.3-1.2
		c-1.2-0.8-2.2-1.9-2.9-3.3c-0.7-1.4-1-3.1-1-5c0-1.9,0.3-3.6,1-5c0.7-1.5,1.7-2.6,2.9-3.4c1.2-0.8,2.6-1.2,4.2-1.2
		c1.3,0,2.5,0.3,3.6,0.9c1,0.6,1.8,1.4,2.4,2.4V44H645.4z M639.7,57.5c0.8-1,1.2-2.5,1.2-4.4c0-1.9-0.4-3.4-1.2-4.5s-2-1.6-3.5-1.6
		c-1.5,0-2.7,0.5-3.5,1.6c-0.8,1.1-1.3,2.6-1.3,4.5c0,1.9,0.4,3.3,1.3,4.4c0.8,1,2,1.5,3.5,1.5C637.7,59.1,638.9,58.6,639.7,57.5z"
		/>
	<path class="st3" d="M668,35.6v26.8h-4.5v-2.9c-0.6,1-1.4,1.8-2.4,2.4c-1,0.6-2.2,0.9-3.6,0.9c-1.6,0-3-0.4-4.2-1.2
		c-1.2-0.8-2.2-1.9-2.9-3.4c-0.7-1.5-1-3.1-1-5c0-1.9,0.3-3.6,1-5c0.7-1.4,1.6-2.5,2.9-3.3c1.2-0.8,2.7-1.2,4.3-1.2
		c1.3,0,2.5,0.3,3.5,0.8c1,0.5,1.8,1.3,2.4,2.3V35.6H668z M662.2,57.5c0.8-1,1.3-2.5,1.3-4.4s-0.4-3.4-1.2-4.4s-2-1.6-3.5-1.6
		c-1.5,0-2.7,0.5-3.5,1.5c-0.8,1-1.3,2.5-1.3,4.4c0,1.9,0.4,3.4,1.3,4.5c0.8,1.1,2,1.6,3.5,1.6C660.2,59.1,661.4,58.6,662.2,57.5z"
		/>
</g>
<g>
	<path class="st5" d="M535.4,94c0.8,1.1,1.2,2.4,1.2,4c0,2.3-0.8,4-2.3,5.2c-1.5,1.2-3.6,1.8-6.4,1.8h-10.8V79.2h10.4
		c2.6,0,4.7,0.6,6.2,1.8c1.5,1.2,2.2,2.8,2.2,5c0,1.4-0.4,2.6-1.1,3.6c-0.7,1-1.7,1.8-3,2.2C533.4,92.2,534.5,93,535.4,94z
		 M520.2,90.7h7c1.9,0,3.4-0.4,4.4-1.2c1-0.8,1.5-1.9,1.5-3.4c0-3-2-4.4-5.9-4.4h-7V90.7z M532.2,101.5c1-0.8,1.4-1.9,1.4-3.5
		c0-3.2-2-4.8-5.9-4.8h-7.6v9.4h7.6C529.8,102.7,531.3,102.3,532.2,101.5z"/>
	<path class="st5" d="M557,95.9h-13.4c0,2.3,0.6,4.1,1.6,5.3c1.1,1.2,2.6,1.8,4.6,1.8c2.1,0,4.1-0.7,5.9-2.1l1,2.1
		c-0.8,0.8-1.8,1.3-3.1,1.8s-2.5,0.7-3.8,0.7c-2.9,0-5.1-0.8-6.7-2.5c-1.6-1.7-2.4-4-2.4-6.9c0-1.9,0.4-3.5,1.1-5
		c0.7-1.4,1.7-2.6,3.1-3.4c1.3-0.8,2.8-1.2,4.5-1.2c2.4,0,4.3,0.8,5.7,2.4c1.4,1.6,2.1,3.8,2.1,6.6V95.9z M545.5,90.1
		c-1,0.9-1.6,2.2-1.8,3.9h10.7c-0.1-1.7-0.6-3-1.5-3.9c-0.9-0.9-2.1-1.3-3.6-1.3C547.7,88.7,546.4,89.1,545.5,90.1z"/>
	<path class="st5" d="M564.5,104.2c-1.3-0.8-2.3-1.9-3-3.3c-0.7-1.4-1.1-3.1-1.1-5c0-1.9,0.4-3.6,1.1-5c0.7-1.4,1.7-2.5,3-3.3
		c1.3-0.8,2.8-1.2,4.6-1.2c1.7,0,3.2,0.4,4.5,1.2c1.3,0.8,2.3,1.9,3,3.3c0.7,1.4,1.1,3.1,1.1,5c0,1.9-0.4,3.6-1.1,5
		c-0.7,1.4-1.7,2.5-3,3.3c-1.3,0.8-2.8,1.2-4.5,1.2C567.3,105.4,565.8,105,564.5,104.2z M573.2,101.1c1-1.2,1.5-3,1.5-5.3
		c0-2.2-0.5-4-1.5-5.2c-1-1.2-2.4-1.8-4.1-1.8c-1.8,0-3.2,0.6-4.2,1.8c-1,1.2-1.5,3-1.5,5.2c0,2.3,0.5,4.1,1.5,5.3
		c1,1.2,2.4,1.8,4.2,1.8C570.8,102.9,572.2,102.3,573.2,101.1z"/>
	<path class="st5" d="M598.6,86.8V105c0,2.7-0.7,4.8-2.1,6.2c-1.4,1.4-3.5,2.1-6.2,2.1c-2.8,0-5.2-0.6-7.2-1.9l0.5-2.4
		c1.2,0.7,2.3,1.1,3.3,1.4c1,0.3,2.2,0.4,3.4,0.4c1.8,0,3.1-0.5,4-1.4c0.9-0.9,1.3-2.3,1.3-4.2v-4.3c-0.6,1.2-1.4,2.1-2.5,2.7
		c-1.1,0.6-2.4,1-3.8,1c-1.6,0-3-0.4-4.3-1.1c-1.3-0.8-2.2-1.8-2.9-3.2c-0.7-1.4-1-3-1-4.8c0-1.8,0.3-3.4,1-4.8
		c0.7-1.4,1.6-2.5,2.9-3.2c1.3-0.8,2.7-1.1,4.3-1.1c1.5,0,2.7,0.3,3.8,0.9c1.1,0.6,1.9,1.5,2.5,2.7v-3.2H598.6z M594.1,100.3
		c1-1.2,1.5-2.8,1.5-4.9c0-2.1-0.5-3.7-1.5-4.9c-1-1.2-2.4-1.8-4.2-1.8c-1.8,0-3.2,0.6-4.2,1.8c-1,1.2-1.5,2.8-1.5,4.9
		c0,2.1,0.5,3.7,1.5,4.9c1,1.2,2.4,1.8,4.2,1.8C591.7,102.1,593.1,101.5,594.1,100.3z"/>
	<path class="st5" d="M614.4,86.6l-0.1,2.7c-0.6-0.2-1.2-0.3-1.9-0.3c-1.8,0-3.1,0.6-3.9,1.7c-0.9,1.1-1.3,2.4-1.3,4v10.4h-2.9V92
		c0-1.9-0.1-3.6-0.3-5.1h2.8l0.3,3.4c0.5-1.2,1.2-2.2,2.2-2.8c1-0.7,2.2-1,3.5-1C613.4,86.4,613.9,86.5,614.4,86.6z"/>
	<path class="st5" d="M633.2,86.8v18.3h-2.9v-3.3c-0.5,1.1-1.3,2-2.4,2.6c-1.1,0.6-2.3,0.9-3.8,0.9c-1.6,0-3.1-0.4-4.3-1.2
		c-1.2-0.8-2.2-1.9-2.8-3.3c-0.7-1.4-1-3.1-1-5c0-1.9,0.3-3.6,1-5c0.7-1.4,1.6-2.6,2.9-3.4s2.6-1.2,4.2-1.2c1.4,0,2.7,0.3,3.7,0.9
		c1.1,0.6,1.9,1.5,2.4,2.7v-3.2H633.2z M628.8,101.1c1-1.2,1.5-3,1.5-5.2s-0.5-4-1.5-5.2s-2.4-1.8-4.1-1.8s-3.2,0.6-4.2,1.9
		c-1,1.3-1.5,3-1.5,5.2c0,2.2,0.5,4,1.5,5.2s2.4,1.8,4.2,1.8C626.5,102.9,627.8,102.3,628.8,101.1z"/>
	<path class="st5" d="M655,78.3v26.8h-2.9v-3.3c-0.5,1.1-1.3,2-2.4,2.6c-1.1,0.6-2.3,0.9-3.8,0.9c-1.6,0-3-0.4-4.2-1.2
		s-2.2-1.9-2.9-3.4c-0.7-1.4-1-3.1-1-5c0-1.9,0.3-3.5,1-5c0.7-1.4,1.6-2.5,2.9-3.3c1.2-0.8,2.7-1.2,4.3-1.2c1.4,0,2.7,0.3,3.7,0.9
		c1.1,0.6,1.9,1.5,2.4,2.6V78.3H655z M650.6,101.1c1-1.2,1.5-3,1.5-5.2c0-2.2-0.5-4-1.5-5.2c-1-1.2-2.4-1.8-4.1-1.8
		s-3.2,0.6-4.2,1.8c-1,1.2-1.5,2.9-1.5,5.1c0,2.3,0.5,4,1.5,5.3c1,1.3,2.4,1.9,4.2,1.9S649.7,102.3,650.6,101.1z"/>
</g>
<g>
	<path class="st5" d="M517.2,123.6h10.3c2.7,0,4.8,0.6,6.2,1.9c1.5,1.3,2.2,3.1,2.2,5.3s-0.8,4-2.3,5.3c-1.5,1.3-3.6,1.9-6.2,1.9
		h-7.4v11.4h-3V123.6z M527.3,135.7c1.9,0,3.4-0.4,4.3-1.2c1-0.8,1.5-2,1.5-3.6c0-1.6-0.5-2.7-1.5-3.5c-1-0.8-2.4-1.2-4.3-1.2h-7.1
		v9.6H527.3z"/>
	<path class="st5" d="M555.3,140.3h-13.4c0,2.3,0.6,4.1,1.6,5.3c1.1,1.2,2.6,1.8,4.6,1.8c2.1,0,4.1-0.7,5.9-2.1l1,2.1
		c-0.8,0.8-1.8,1.3-3.1,1.8s-2.5,0.7-3.8,0.7c-2.9,0-5.1-0.8-6.7-2.5c-1.6-1.7-2.4-4-2.4-6.9c0-1.9,0.4-3.5,1.1-5
		c0.7-1.4,1.7-2.6,3.1-3.4c1.3-0.8,2.8-1.2,4.5-1.2c2.4,0,4.3,0.8,5.7,2.4c1.4,1.6,2.1,3.8,2.1,6.6V140.3z M543.8,134.5
		c-1,0.9-1.6,2.2-1.8,3.9h10.7c-0.1-1.7-0.6-3-1.5-3.9c-0.9-0.9-2.1-1.3-3.6-1.3C546,133.1,544.8,133.5,543.8,134.5z"/>
	<path class="st5" d="M563.6,133.5v10c0,1.4,0.3,2.3,0.8,2.9c0.6,0.5,1.3,0.8,2.4,0.8c0.7,0,1.3-0.1,2-0.3v2.5
		c-0.8,0.2-1.6,0.4-2.5,0.4c-1.7,0-3.1-0.5-4.1-1.5c-1-1-1.5-2.4-1.5-4.4v-10.4h-3.6v-2.3h3.6v-4.7l2.9-1.1v5.8h5.2v2.3H563.6z"/>
	<path class="st5" d="M588.1,138v11.5h-2.9v-11.4c0-1.7-0.3-2.9-1-3.7c-0.7-0.8-1.7-1.2-3.2-1.2c-1.7,0-3.1,0.5-4.1,1.6
		c-1,1-1.5,2.5-1.5,4.2v10.5h-2.9v-13.2c0-1.9-0.1-3.6-0.3-5.1h2.8l0.3,3.3c0.6-1.2,1.4-2.1,2.5-2.7c1.1-0.6,2.4-1,3.8-1
		C585.9,130.8,588.1,133.2,588.1,138z"/>
	<path class="st5" d="M593.4,123.5h3.6v3.3h-3.6V123.5z M593.7,149.5v-18.3h2.9v18.3H593.7z"/>
	<path class="st5" d="M605.4,148.6c-1.3-0.8-2.3-1.9-3.1-3.3c-0.7-1.4-1.1-3.1-1.1-5c0-1.9,0.4-3.6,1.1-5c0.7-1.4,1.8-2.6,3.1-3.4
		c1.3-0.8,2.9-1.2,4.7-1.2c1.2,0,2.4,0.2,3.6,0.6c1.2,0.4,2.1,1,2.9,1.8l-1,2.2c-0.9-0.7-1.8-1.3-2.7-1.6c-0.9-0.3-1.7-0.5-2.6-0.5
		c-1.9,0-3.3,0.6-4.4,1.9c-1.1,1.3-1.6,3-1.6,5.2c0,2.2,0.5,3.9,1.6,5.2c1.1,1.2,2.5,1.8,4.4,1.8c0.9,0,1.8-0.2,2.6-0.5
		c0.9-0.3,1.8-0.9,2.7-1.6l1,2.2c-0.8,0.7-1.8,1.3-2.9,1.7c-1.2,0.4-2.4,0.6-3.7,0.6C608.3,149.8,606.7,149.4,605.4,148.6z"/>
	<path class="st5" d="M636.5,131.2v18.3h-2.9v-3.3c-0.5,1.1-1.3,2-2.4,2.6c-1.1,0.6-2.3,0.9-3.8,0.9c-1.6,0-3.1-0.4-4.3-1.2
		c-1.2-0.8-2.2-1.9-2.8-3.3c-0.7-1.4-1-3.1-1-5c0-1.9,0.3-3.6,1-5c0.7-1.4,1.6-2.6,2.9-3.4s2.6-1.2,4.2-1.2c1.4,0,2.7,0.3,3.7,0.9
		c1.1,0.6,1.9,1.5,2.4,2.7v-3.2H636.5z M632.1,145.5c1-1.2,1.5-3,1.5-5.2s-0.5-4-1.5-5.2s-2.4-1.8-4.1-1.8s-3.2,0.6-4.2,1.9
		c-1,1.3-1.5,3-1.5,5.2c0,2.2,0.5,4,1.5,5.2s2.4,1.8,4.2,1.8C629.8,147.3,631.1,146.7,632.1,145.5z"/>
</g>
<g>
	<path class="st5" d="M537.4,193h-3.9l-13.4-12.3V193h-3v-25.9h3V179l12.7-11.9h3.8l-13.5,12.6L537.4,193z"/>
	<path class="st5" d="M550.1,174.5l-0.1,2.7c-0.6-0.2-1.2-0.3-1.9-0.3c-1.8,0-3.1,0.6-3.9,1.7c-0.9,1.1-1.3,2.4-1.3,4V193h-2.9
		v-13.2c0-1.9-0.1-3.6-0.3-5.1h2.8l0.3,3.4c0.5-1.2,1.2-2.2,2.2-2.8c1-0.7,2.2-1,3.5-1C549,174.3,549.6,174.3,550.1,174.5z"/>
	<path class="st5" d="M568.9,174.7V193h-2.9v-3.3c-0.5,1.1-1.3,2-2.4,2.6c-1.1,0.6-2.3,0.9-3.8,0.9c-1.6,0-3.1-0.4-4.3-1.2
		c-1.2-0.8-2.2-1.9-2.8-3.3c-0.7-1.4-1-3.1-1-5c0-1.9,0.3-3.6,1-5c0.7-1.4,1.6-2.6,2.9-3.4s2.6-1.2,4.2-1.2c1.4,0,2.7,0.3,3.7,0.9
		c1.1,0.6,1.9,1.5,2.4,2.7v-3.2H568.9z M564.5,189c1-1.2,1.5-3,1.5-5.2s-0.5-4-1.5-5.2s-2.4-1.8-4.1-1.8s-3.2,0.6-4.2,1.9
		c-1,1.3-1.5,3-1.5,5.2c0,2.2,0.5,4,1.5,5.2s2.4,1.8,4.2,1.8C562.1,190.8,563.5,190.2,564.5,189z"/>
	<path class="st5" d="M590.9,174.7v18.2c0,2.7-0.7,4.8-2.1,6.2c-1.4,1.4-3.5,2.1-6.2,2.1c-2.8,0-5.2-0.6-7.2-1.9l0.5-2.4
		c1.2,0.7,2.3,1.1,3.3,1.4c1,0.3,2.2,0.4,3.4,0.4c1.8,0,3.1-0.5,4-1.4c0.9-0.9,1.3-2.3,1.3-4.2v-4.3c-0.6,1.2-1.4,2.1-2.5,2.7
		c-1.1,0.6-2.4,1-3.8,1c-1.6,0-3-0.4-4.3-1.1c-1.3-0.8-2.2-1.8-2.9-3.2c-0.7-1.4-1-3-1-4.8c0-1.8,0.3-3.4,1-4.8
		c0.7-1.4,1.6-2.5,2.9-3.2c1.3-0.8,2.7-1.1,4.3-1.1c1.5,0,2.7,0.3,3.8,0.9c1.1,0.6,1.9,1.5,2.5,2.7v-3.2H590.9z M586.4,188.2
		c1-1.2,1.5-2.8,1.5-4.9c0-2.1-0.5-3.7-1.5-4.9c-1-1.2-2.4-1.8-4.2-1.8c-1.8,0-3.2,0.6-4.2,1.8c-1,1.2-1.5,2.8-1.5,4.9
		c0,2.1,0.5,3.7,1.5,4.9c1,1.2,2.4,1.8,4.2,1.8C584,190,585.4,189.4,586.4,188.2z"/>
	<path class="st5" d="M611.9,174.7V193H609v-3.2c-0.6,1.1-1.4,2-2.4,2.5c-1,0.6-2.2,0.9-3.5,0.9c-2.2,0-3.8-0.6-4.9-1.8
		c-1.1-1.2-1.7-3-1.7-5.4v-11.4h2.9V186c0,1.7,0.3,2.9,1,3.6c0.7,0.8,1.7,1.2,3.1,1.2c1.6,0,2.9-0.5,3.9-1.6c1-1.1,1.5-2.4,1.5-4.2
		v-10.3H611.9z"/>
	<path class="st5" d="M614.5,198.5c2,0,3.1-1.2,3.1-3.6v-20.1h2.9v20.5c0,1.9-0.5,3.4-1.4,4.4s-2.3,1.5-3.9,1.5
		c-0.8,0-1.6-0.1-2.4-0.3v-2.5C613.4,198.4,614,198.5,614.5,198.5z M617.2,166.9h3.6v3.3h-3.6V166.9z"/>
	<path class="st5" d="M641.5,183.8h-13.4c0,2.3,0.6,4.1,1.6,5.3c1.1,1.2,2.6,1.8,4.6,1.8c2.1,0,4.1-0.7,5.9-2.1l1,2.1
		c-0.8,0.8-1.8,1.3-3.1,1.8s-2.5,0.7-3.8,0.7c-2.9,0-5.1-0.8-6.7-2.5c-1.6-1.7-2.4-4-2.4-6.9c0-1.9,0.4-3.5,1.1-5
		c0.7-1.4,1.7-2.6,3.1-3.4c1.3-0.8,2.8-1.2,4.5-1.2c2.4,0,4.3,0.8,5.7,2.4c1.4,1.6,2.1,3.8,2.1,6.6V183.8z M630.1,177.9
		c-1,0.9-1.6,2.2-1.8,3.9h10.7c-0.1-1.7-0.6-3-1.5-3.9c-0.9-0.9-2.1-1.3-3.6-1.3C632.3,176.5,631,177,630.1,177.9z"/>
	<path class="st5" d="M658.9,174.7h2.9L654,193h-2.8l-7.8-18.3h3.1l6.2,15.1L658.9,174.7z"/>
	<path class="st5" d="M681,174.7V193h-2.9v-3.3c-0.5,1.1-1.3,2-2.4,2.6c-1.1,0.6-2.3,0.9-3.8,0.9c-1.6,0-3.1-0.4-4.3-1.2
		c-1.2-0.8-2.2-1.9-2.8-3.3c-0.7-1.4-1-3.1-1-5c0-1.9,0.3-3.6,1-5c0.7-1.4,1.6-2.6,2.9-3.4s2.6-1.2,4.2-1.2c1.4,0,2.7,0.3,3.7,0.9
		c1.1,0.6,1.9,1.5,2.4,2.7v-3.2H681z M676.7,189c1-1.2,1.5-3,1.5-5.2s-0.5-4-1.5-5.2s-2.4-1.8-4.1-1.8s-3.2,0.6-4.2,1.9
		c-1,1.3-1.5,3-1.5,5.2c0,2.2,0.5,4,1.5,5.2s2.4,1.8,4.2,1.8C674.3,190.8,675.7,190.2,676.7,189z"/>
	<path class="st5" d="M689.8,192.1c-1.3-0.8-2.3-1.9-3.1-3.3c-0.7-1.4-1.1-3.1-1.1-5c0-1.9,0.4-3.6,1.1-5c0.7-1.4,1.8-2.6,3.1-3.4
		c1.3-0.8,2.9-1.2,4.7-1.2c1.2,0,2.4,0.2,3.6,0.6c1.2,0.4,2.1,1,2.9,1.8l-1,2.2c-0.9-0.7-1.8-1.3-2.7-1.6c-0.9-0.3-1.7-0.5-2.6-0.5
		c-1.9,0-3.3,0.6-4.4,1.9c-1.1,1.3-1.6,3-1.6,5.2c0,2.2,0.5,3.9,1.6,5.2c1.1,1.2,2.5,1.8,4.4,1.8c0.9,0,1.8-0.2,2.6-0.5
		c0.9-0.3,1.8-0.9,2.7-1.6l1,2.2c-0.8,0.7-1.8,1.3-2.9,1.7c-1.2,0.4-2.4,0.6-3.7,0.6C692.7,193.3,691.1,192.9,689.8,192.1z"/>
</g>
<circle class="st2" cx="326.2" cy="573" r="7.8"/>
<path class="st4" d="M333.5,546.3L333.5,546.3c-4.1-4.1-10.6-4.1-14.7,0l0,0c-3.7,3.7-4.1,10.5-1,14.7l8.3,12l8.3-12
	C337.6,556.9,337.1,550,333.5,546.3z M326.2,557c-1.9,0-3.4-1.5-3.4-3.4s1.5-3.4,3.4-3.4c1.9,0,3.4,1.5,3.4,3.4S328.1,557,326.2,557
	z"/>
<g>
	<path class="st5" d="M537.9,237.9H534l-13.1-12.1v12.1H518v-25.5h2.9v11.7l12.5-11.7h3.8l-13.3,12.4L537.9,237.9z"/>
	<path class="st5" d="M550.3,219.7l-0.1,2.7c-0.5-0.2-1.2-0.3-1.9-0.3c-1.7,0-3,0.5-3.9,1.6c-0.8,1.1-1.3,2.4-1.3,4v10.3h-2.9v-13
		c0-1.9-0.1-3.5-0.3-5.1h2.8l0.3,3.3c0.5-1.2,1.2-2.1,2.2-2.8c1-0.6,2.1-1,3.4-1C549.3,219.5,549.8,219.6,550.3,219.7z"/>
	<path class="st5" d="M568.8,219.9v18h-2.9v-3.3c-0.5,1.1-1.3,2-2.4,2.6s-2.3,0.9-3.7,0.9c-1.6,0-3-0.4-4.2-1.1
		c-1.2-0.8-2.1-1.8-2.8-3.2c-0.7-1.4-1-3-1-4.9c0-1.9,0.3-3.5,1-4.9c0.7-1.4,1.6-2.5,2.8-3.3c1.2-0.8,2.6-1.2,4.2-1.2
		c1.4,0,2.6,0.3,3.7,0.9c1.1,0.6,1.9,1.5,2.4,2.6v-3.1H568.8z M564.5,234c1-1.2,1.4-2.9,1.4-5.1s-0.5-3.9-1.4-5.1s-2.3-1.8-4.1-1.8
		c-1.8,0-3.1,0.6-4.1,1.8c-1,1.2-1.5,2.9-1.5,5.1c0,2.2,0.5,3.9,1.5,5.1c1,1.2,2.4,1.8,4.2,1.8C562.2,235.8,563.5,235.2,564.5,234z"
		/>
	<path class="st5" d="M574.4,237.9v-26.4h2.9v26.4H574.4z"/>
	<path class="st5" d="M579.9,243.3c2,0,3-1.2,3-3.6v-19.8h2.9v20.2c0,1.9-0.5,3.3-1.4,4.3s-2.2,1.5-3.9,1.5c-0.8,0-1.6-0.1-2.4-0.3
		V243C578.8,243.2,579.4,243.3,579.9,243.3z M582.6,212.3h3.5v3.3h-3.5V212.3z"/>
	<path class="st5" d="M606.5,228.8h-13.2c0,2.3,0.6,4,1.6,5.2c1,1.2,2.5,1.8,4.5,1.8c2.1,0,4-0.7,5.8-2.1l1,2.1
		c-0.8,0.7-1.8,1.3-3,1.8c-1.2,0.4-2.5,0.6-3.8,0.6c-2.8,0-5-0.8-6.6-2.5c-1.6-1.7-2.4-3.9-2.4-6.8c0-1.8,0.4-3.5,1.1-4.9
		c0.7-1.4,1.7-2.5,3-3.3c1.3-0.8,2.8-1.2,4.4-1.2c2.4,0,4.3,0.8,5.6,2.3s2,3.7,2,6.5V228.8z M595.2,223.1c-0.9,0.9-1.5,2.2-1.8,3.8
		h10.5c-0.1-1.7-0.6-3-1.5-3.9c-0.8-0.9-2-1.3-3.5-1.3C597.4,221.7,596.2,222.2,595.2,223.1z"/>
	<path class="st5" d="M623.7,220h2.9l-7.8,18H616l-7.7-18h3l6.1,14.8L623.7,220z"/>
	<path class="st5" d="M632.5,237c-1.3-0.8-2.3-1.9-3-3.3c-0.7-1.4-1.1-3.1-1.1-4.9c0-1.9,0.4-3.5,1.1-4.9c0.7-1.4,1.7-2.5,3-3.3
		c1.3-0.8,2.8-1.1,4.5-1.1c1.7,0,3.2,0.4,4.5,1.1c1.3,0.8,2.3,1.9,3,3.3c0.7,1.4,1.1,3.1,1.1,4.9c0,1.9-0.4,3.5-1.1,4.9
		c-0.7,1.4-1.7,2.5-3,3.3c-1.3,0.8-2.8,1.1-4.5,1.1C635.3,238.2,633.8,237.8,632.5,237z M641.1,234c1-1.2,1.4-2.9,1.4-5.2
		c0-2.2-0.5-3.9-1.5-5.1c-1-1.2-2.3-1.8-4.1-1.8c-1.8,0-3.1,0.6-4.1,1.8c-1,1.2-1.5,2.9-1.5,5.1c0,2.3,0.5,4,1.5,5.2
		c1,1.2,2.3,1.8,4.1,1.8C638.8,235.8,640.1,235.2,641.1,234z"/>
</g>
</svg>
