<?xml version="1.0" encoding="UTF-8" standalone="no"?>
<svg
   xmlns:dc="http://purl.org/dc/elements/1.1/"
   xmlns:cc="http://creativecommons.org/ns#"
   xmlns:rdf="http://www.w3.org/1999/02/22-rdf-syntax-ns#"
   xmlns:svg="http://www.w3.org/2000/svg"
   xmlns="http://www.w3.org/2000/svg"
   xmlns:sodipodi="http://sodipodi.sourceforge.net/DTD/sodipodi-0.dtd"
   xmlns:inkscape="http://www.inkscape.org/namespaces/inkscape"
   version="1.0"
   width="680.000000pt"
   height="680.000000pt"
   viewBox="0 0 680.000000 680.000000"
   preserveAspectRatio="xMidYMid meet"
   id="svg3769"
   sodipodi:docname="startit.svg"
   inkscape:version="0.92.2 (5c3e80d, 2017-08-06)">
  <metadata
     id="metadata3775">
    <rdf:RDF>
      <cc:Work
         rdf:about="">
        <dc:format>image/svg+xml</dc:format>
        <dc:type
           rdf:resource="http://purl.org/dc/dcmitype/StillImage" />
      </cc:Work>
    </rdf:RDF>
  </metadata>
  <defs
     id="defs3773" />
  <sodipodi:namedview
     pagecolor="#ffffff"
     bordercolor="#666666"
     borderopacity="1"
     objecttolerance="10"
     gridtolerance="10"
     guidetolerance="10"
     inkscape:pageopacity="0"
     inkscape:pageshadow="2"
     inkscape:window-width="1364"
     inkscape:window-height="730"
     id="namedview3771"
     showgrid="false"
     inkscape:zoom="0.32"
     inkscape:cx="754.60034"
     inkscape:cy="620.0105"
     inkscape:window-x="0"
     inkscape:window-y="18"
     inkscape:window-maximized="0"
     inkscape:current-layer="svg3769" />
  <path
     style="fill:#000000;stroke:none;stroke-width:0.13427231"
     d="M 339.99998,4.8437541 A 335.15627,335.15627 0 0 0 4.8437546,340 335.15627,335.15627 0 0 0 339.99998,675.15623 335.15627,335.15627 0 0 0 675.15623,340 335.15627,335.15627 0 0 0 658.66788,237.4823 c -5.28508,7.9006 -14.6958,22.33159 -25.70318,39.43398 -40.68451,63.51078 -81.77143,125.94806 -96.27284,146.35745 -21.75211,30.61408 -38.40292,43.63745 -72.23954,56.66186 -28.60002,11.1446 -83.24883,20.54524 -171.19719,29.81003 -45.92112,4.69953 -102.44963,2.5509 -131.45245,-4.96835 -19.73802,-5.23662 -29.27004,-11.6826 -35.58083,-24.43846 -3.62536,-7.11644 -4.16388,-9.66682 -4.16388,-19.33443 0,-27.25728 15.17433,-52.3675 35.85227,-59.08113 9.80186,-3.22253 24.57024,-3.08656 89.02096,1.07589 61.09389,3.89389 131.05041,4.16178 160.45605,0.6707 83.51737,-9.93614 98.55639,-16.78364 130.78174,-60.01932 17.05257,-22.69202 51.42562,-73.58095 85.26224,-125.94715 l 16.87584,-26.12016 A 335.15627,335.15627 0 0 0 339.99998,4.8437541 Z M 640.32674,191.62451 a 335.15627,335.15627 0 0 1 7.48397,16.72635 335.15627,335.15627 0 0 0 -7.48397,-16.72635 z m 7.48397,16.72635 a 335.15627,335.15627 0 0 1 10.8552,29.12555 335.15627,335.15627 0 0 0 -10.8552,-29.12555 z"
     id="path3765"
     inkscape:connector-curvature="0" />
</svg>
