<?xml version="1.0" encoding="utf-8"?>
<!-- Generator: Adobe Illustrator 22.0.1, SVG Export Plug-In . SVG Version: 6.00 Build 0)  -->
<svg version="1.0" id="Layer_1" xmlns="http://www.w3.org/2000/svg" xmlns:xlink="http://www.w3.org/1999/xlink" x="0px" y="0px"
	 viewBox="0 0 600 366.7" style="enable-background:new 0 0 600 366.7;" xml:space="preserve">
<style type="text/css">
	.st0{fill:#9D1C20;}
</style>
<g>
	<path class="st0" d="M362.1,136.8c-6.2,10.6-12.1,20.7-18.2,31.2c11.9,0,23.2,0,34.8,0C373,157.4,367.7,147.3,362.1,136.8z"/>
	<path class="st0" d="M543.8,229.6c-7.3-0.4-14.3,4.7-14.9,10.7c8.3,0,16.6,0,25,0C553.7,234.3,549.5,229.9,543.8,229.6z"/>
	<path class="st0" d="M597.3,0C399.2,0,201.1,0.1,3,0C0.7,0,0,0.5,0,2.9c0.1,120.3,0.1,240.6,0,360.9c0,1.6,0.3,2.4,1.3,2.7
		c0.4,0.1,0.9,0.2,1.6,0.2c198.1-0.1,396.2-0.1,594.3-0.1c0.9,0,1.8-0.1,2.7-0.2v0c0-122.3,0-244.2,0-366.5C598.9,0,598.1,0,597.3,0
		z M62.5,52.3c8.7-10.9,19.8-18.9,31.5-26.1c16.5-10.1,34.1-18,52-25.3c0.9-0.4,2-0.5,3.1-0.5c149.3,0,298.7,0,448,0
		c0.8,0,1.5,0,2.5,0c0,122,0,243.7,0,365.6c-175.1,0-350.2,0-526,0c5.4-4.3,10.2-8.2,15-12.1c22.3-18.1,44.9-35.9,65.6-55.9
		c12-11.6,23.3-23.7,32.2-37.9c5.1-8.1,9.1-16.7,10.4-26.3c1.9-13.8-2.9-25.4-12.2-35.4c-6.5-6.9-14.2-12.2-22.5-16.9
		c-23.4-13.3-46.4-27-67.7-43.6c-12-9.3-23.2-19.4-32-31.9c-4.9-7-8.6-14.6-9.6-23.2C51.3,71.2,55.5,61.3,62.5,52.3z"/>
	<path class="st0" d="M454.2,229.4c-8.6,0-15.5,7-15.5,15.9c0,7.3,4.9,12.3,12.2,12.3c8.7,0,15.3-6.9,15.3-16
		C466.1,234.4,461.3,229.5,454.2,229.4z"/>
	<path class="st0" d="M495.6,257.7c8.8,0,15.4-6.9,15.5-15.9c0-7.2-5-12.3-12.2-12.3c-8.6,0-15.5,7.1-15.5,16
		C483.4,252.7,488.4,257.7,495.6,257.7z"/>
	<path class="st0" d="M196.6,182.5c32.1,23.4,64.2,46.7,96.4,69.9c17.1,12.4,34.3,24.5,49.8,38.9c7.9,7.3,15.2,15.1,20,24.9
		c4.6,9.5,4.9,18.9-0.3,28.4c-0.3,0.5-0.4,1.1-0.7,1.7c72.3,0,144.4,0,216.5,0c0-108.1,0-216.1,0-324.2c-0.9,0-1.6,0-2.3,0
		c-71.9,0-143.9,0-215.8,0c-1.1,0-2.3,0.2-3.3,0.6c-32.2,12.9-64,26.6-94.6,43.1c-20.2,10.8-39.9,22.6-57.5,37.5
		c-9.6,8.2-18.5,17.1-24.3,28.5c-7.3,14.1-5.9,27.8,4.4,39.8C188.3,175.6,192.3,179.4,196.6,182.5z M411.6,230.3c-2.4,0-4.7,0-7.3,0
		c-1.4,10.3-2.8,20.4-4.2,30.7c-1.4,0-2.8,0-4.6,0c1.3-10.1,2.7-20.2,4.1-30.5c-1.9,0-3.7,0-5.8,0c0.2-1.6,0.3-2.8,0.5-4.2
		c2,0,3.8,0,5.9,0c0.5-3.4,0.9-6.6,1.4-9.7c0.5-3.7,0.7-3.8,5-3c-0.5,4.1-1.1,8.3-1.7,12.7c2.5,0,4.7,0,7.2,0
		C411.9,227.6,411.7,228.8,411.6,230.3z M467.9,260.9c-1.6,0-3,0-4.5,0c0.2-1.5,0.3-2.8,0.5-4.7c-4.1,3.5-8.2,5.7-13.1,5.8
		c-10,0.1-16.5-6.4-16.5-16.4c0-11.8,9-20.8,20.7-20.5c5.1,0.1,9,2.5,12.2,7c0.4-2.4,0.7-4.1,0.9-5.9c1.5,0,2.9,0,4.5,0
		C471,237.8,469.5,249.3,467.9,260.9z M558.1,244.7c-5.2,0-10.2,0-15.3,0c-5,0-10,0-14.9,0c-0.8,4.9,1.6,9.6,5.8,11.8
		c5.5,2.8,12,1.2,17.8-4.4c1,0.8,2.1,1.6,3.3,2.6c-3.7,4.7-8.4,6.9-14.1,7.4c-15.3,1.1-19.8-13.1-16.9-22.3
		c2.8-8.9,10.4-14.6,19.4-14.6C553.3,225.1,560.4,234.2,558.1,244.7z M513.8,105.8c6.8-4.5,14.4-6.2,22.3-6.1
		c7.5-0.2,14.3,1.4,20.6,5.1c1.5,0.9,2.8,2.1,4.1,3.3c1.1,1,1.9,2.3,0.7,3.7c-1.3,1.4-2.6,0.6-3.7-0.5c-3.8-3.6-8.3-5.9-13.4-6.9
		c-2.7-0.5-5.6-0.7-8.3-0.3c-3.7,0.5-5.1,3.3-3.5,6.6c1.2,2.5,2.8,4.9,4.6,7c6.5,7.4,13.3,14.5,19.6,22c3.4,4,6.6,8.3,8.8,13.1
		c4.8,10.6,0.9,21.3-9.1,27.2c-8.7,5.1-18.1,6.3-27.9,5.6c-8.8-0.6-16.5-3.9-23.1-9.7c-0.7-0.6-1.7-1.3-1.9-2.1
		c-0.4-1.2-0.8-2.9-0.2-3.7c1-1.4,2.5-0.5,3.6,0.6c3.5,3.8,7.5,7,12.5,8.6c3.9,1.3,8.1,2.1,12.3,2.4c5.6,0.3,7.7-3.2,4.6-8
		c-2.7-4.2-6.3-8-9.6-11.8c-5.7-6.8-11.7-13.4-17.3-20.2c-3.3-4.1-5.5-8.8-6.2-14.1C502.2,118,506,110.9,513.8,105.8z M502.9,225.6
		c3.8,0.8,6.5,3.2,9.1,6.7c0.8-5.8,1.5-11,2.3-16.2c0.5-3.7,0.6-3.7,5-3.1c-2.1,15.9-4.3,31.8-6.4,47.8c-1.5,0-3,0-4.5,0
		c0.1-1.5,0.2-2.8,0.4-4.6c-1.5,1.1-2.7,2-3.9,2.8c-9,5.8-20.9,2.8-24.5-6.4c-2.8-7.1-1.8-14.1,3.2-20.1
		C488.5,226.5,494.9,223.9,502.9,225.6z M441.7,105.8c6.8-4.5,14.4-6.2,22.3-6.1c7.4-0.2,14.1,1.3,20.4,4.9c1.5,0.9,2.9,2,4.2,3.2
		c1.1,1,2.2,2.4,0.9,3.9c-1.4,1.5-2.7,0.5-3.9-0.6c-3.7-3.5-8.2-5.7-13.2-6.7c-2.4-0.5-4.9-0.8-7.3-0.6c-4.7,0.4-6.4,3.7-4.1,7.9
		c1.2,2.2,2.7,4.4,4.4,6.2c6.4,7.2,13.1,14.2,19.3,21.6c3.4,4.1,6.7,8.5,8.9,13.2c4.9,10.7,0.9,21.5-9.3,27.3
		c-8.7,5-18.1,6.2-27.9,5.5c-8.7-0.6-16.3-3.9-22.8-9.6c-0.9-0.7-1.9-1.5-2.2-2.5c-0.3-1.1,0.1-2.4,0.1-3.6c1.1,0.2,2.4,0.1,3.3,0.7
		c3.3,2.3,6.2,5.2,9.6,7.3c4.7,2.9,10,4.1,15.6,3.9c5.3-0.2,7.4-3.3,4.5-7.8c-2.8-4.3-6.4-8.1-9.7-12.1
		c-5.7-6.8-11.7-13.4-17.3-20.2c-3.3-4.1-5.5-8.8-6.2-14.1C430,118,433.9,110.9,441.7,105.8z M434.3,226.1c-0.7,1.4-1.3,2.7-2,4
		c-6.5-0.7-10.5,1.7-12,8.2c-1.5,6.7-2.3,13.7-3.4,20.5c-0.1,0.7-0.2,1.4-0.4,2.1c-1.5,0-2.8,0-4.5,0c1.6-11.6,3.1-23,4.6-34.6
		c1.5,0,2.9,0,4.4,0c0,0.9,0,1.8,0,3.2C425.1,225.8,429.1,223.9,434.3,226.1z M331.1,181.8c0.4-1.4,1.2-2.7,2-4
		c14.1-24,28.3-48,42.4-72c1.6-2.8,3.2-5.6,5.1-8.7c15.9,28.9,31.6,57.4,47.5,86.1c-1,0.1-1.7,0.1-2.3,0.1c-12.3,0-24.6,0-36.8,0
		c-1.6,0-2.5-0.5-3.2-2c-1.1-2.5-2.4-4.9-3.9-7.2c-0.4-0.7-1.6-1.5-2.4-1.5c-12.2-0.1-24.4-0.2-36.6-0.2c-1,0-2.2,0.9-2.8,1.7
		c-1.5,2.3-2.7,4.9-4.1,7.4c-0.4,0.8-0.8,1.7-1.5,2.1c-0.8,0.5-2,0.7-2.9,0.4C331.3,184.1,330.9,182.5,331.1,181.8z M254.6,102.1
		c12.1,0,24,0,36.1,0c0,25.8,0,51.5,0,77.2c4.9,0,9.6,0,14.3,0c6.6-0.1,13.1-0.2,19.7-0.3c0.8,0,1.7-0.1,2.3,0.3
		c0.6,0.4,1.3,1.3,1.3,2c0,0.7-0.8,1.4-1.4,1.9c-0.4,0.3-1.2,0.2-1.8,0.2c-23.1,0-46.1,0-69.2,0c-0.3,0-0.7-0.1-1.2-0.1
		C254.6,156.1,254.6,129.1,254.6,102.1z"/>
</g>
</svg>
