<svg xmlns="http://www.w3.org/2000/svg" viewBox="0 0 277.4 277.4"><defs><style>.cls-1{fill:#fff;}</style></defs><title>Asset 2</title><g id="Layer_2" data-name="Layer 2"><g id="Layer_1-2" data-name="Layer 1"><path d="M136,268.37c1.06-2.89,2-5.81,3.22-8.65.27-.65,1.23-1,1.88-1.51a5.93,5.93,0,0,1,.11,2.2c-1.23,3.5-2.54,7-4,10.4a1.77,1.77,0,0,1-3.44-.14c-1.31-3.7-2.47-7.45-3.63-11l-6.15-.38c-.16,1.21-.31,2.31-.47,3.54,1.26.23,2.33.35,3.35.64a4.67,4.67,0,0,1,1.32.91c-.53.27-1,.59-1.59.81a2.66,2.66,0,0,1-.93,0c-2.45-.1-3,.4-2.7,2.88a2.19,2.19,0,0,0,1.27,1.44c.93.32,2,.19,3,.45.46.12.81.68,1.21,1-.5.25-1,.72-1.49.7a30.15,30.15,0,0,1-5.3-.56,2.2,2.2,0,0,1-1.15-1.8c.31-3.62.74-7.24,1.33-10.82a2.32,2.32,0,0,1,1.81-1.34A50.4,50.4,0,0,1,131,258c.65.13,1.37,1.1,1.63,1.83,1,2.81,1.81,5.68,2.69,8.53Z"/><path d="M215,236.31c.68,2.77,1.43,5.52,2,8.31a8.29,8.29,0,0,1-.31,2.57,8.88,8.88,0,0,1-2.47-.64,53.74,53.74,0,0,0-7.38-4.05c1.49,2.1,3,4.17,4.41,6.33.35.54.17,1.41.23,2.12-.67-.29-1.58-.4-2-.9-2-2.64-4-5.34-5.83-8.12a2.9,2.9,0,0,1-.22-2.56c.67-1,1.83-1.15,3-.35,2.5,1.68,5.08,3.23,8.19,5.19-.76-3.46-1.28-6.37-2.07-9.2-.44-1.57-.15-2.78,1.32-3.13.65-.16,1.81.72,2.36,1.43,2,2.56,3.81,5.27,5.76,7.88.87,1.16.81,1.92-.88,2.54L215.51,236Z"/><path d="M224,222.94c2.8,3,5.66,6.05,8.45,9.15.31.34.39,1.47.22,1.55a4.1,4.1,0,0,1-2.46.71c-2.54-.64-5-1.54-7.52-2.34a3.25,3.25,0,0,0-2.11-.06c.89,1,1.77,1.92,2.66,2.87a38.49,38.49,0,0,1,2.65,2.93,5.41,5.41,0,0,1,.46,1.91c-.7-.17-1.59-.14-2.07-.57a42.6,42.6,0,0,1-3.18-3.39c-1.21-1.3-2.52-2.53-3.62-3.93a7.62,7.62,0,0,1-.8-2.37c.9-.28,1.88-.93,2.68-.75,2.17.48,4.27,1.32,6.41,2a5,5,0,0,0,2.63.31c-1.68-1.86-3.34-3.75-5.07-5.57C222.26,224.3,222.36,223.57,224,222.94Z"/><path d="M259,93c-2.88,1-5.25,1.87-7.67,2.59-.54.16-1.25-.23-1.89-.37.38-.51.67-1.28,1.17-1.48,3-1.17,6.09-2.28,9.19-3.26a6.8,6.8,0,0,1,2.49.23c-.16.94,0,2.1-.52,2.76a79,79,0,0,0-5.35,6.92c2.21-.77,4.4-1.61,6.64-2.26.6-.17,1.37.26,2.07.41-.43.52-.77,1.3-1.32,1.51-3.1,1.19-6.25,2.29-9.41,3.32a5.88,5.88,0,0,1-2.06-.15c.09-.84-.13-1.92.3-2.48,1.72-2.2,3.64-4.24,5.47-6.35A15.13,15.13,0,0,0,259,93Z"/><path d="M197.85,245.86a30.19,30.19,0,0,0-4,1,4.33,4.33,0,0,0-2.67,5.3c.64,2.72,2.89,4.94,5.08,4.6a5,5,0,0,0,3.29-1.74c.41-.68-.53-2.17-.9-3.4a21.67,21.67,0,0,1-2.7,1,1.24,1.24,0,0,1-1.05-.56,1.14,1.14,0,0,1,.37-1.08c1.13-.66,2.34-1.21,3.53-1.77.19-.09.59-.12.65,0a30,30,0,0,1,2.7,5.05c.23.68-.58,2-1.27,2.64-2.61,2.38-6.07,2.73-8.55,1.08a8.6,8.6,0,0,1-3.28-8.85,7.21,7.21,0,0,1,6.79-4.74,7.52,7.52,0,0,1,2.27,1Z"/><path d="M100.93,255.06a23.47,23.47,0,0,0-3.19-2.23c-2.51-1.21-5-.08-6.27,2.63-1.35,2.94-.63,5.63,1.89,6.75,1.11.49,2.37,1.12,3.18-.51.71-1.43.92-2.63-1.14-3.12-.42-.1-.68-.82-1-1.25.57-.17,1.23-.6,1.68-.44,1.27.45,3.51,1.23,3.47,1.74a22.8,22.8,0,0,1-1.69,5.68c-.09.25-.62.41-1,.49-2.9.64-6.84-1.38-8-4.05A8.33,8.33,0,0,1,92,251.3c2.61-1.65,7-1.07,9,1.31a6.44,6.44,0,0,1,.68,2.26Z"/><path d="M71.4,246.27c-1.25,2-2,3.36-2.92,4.56-.29.38-1.09.37-1.66.54-.08-.54-.42-1.22-.21-1.59,1.92-3.36,3.93-6.67,6-10a1.64,1.64,0,0,1,1.12-.66c1.6-.09,5.29,3.17,5.51,4.78.31,2.23-.63,3.38-3.71,4.65l-1,6.68c-1.76.16-2.27-.58-2-2a14.89,14.89,0,0,0,.44-3.66C72.79,248.62,72.09,247.72,71.4,246.27Zm.46-.8a18.83,18.83,0,0,0,4,.53c.42,0,1.23-1.42,1-1.76a18.46,18.46,0,0,0-2.52-3Z"/><path d="M38.69,216.56l-3.53,6-1-.1a7.41,7.41,0,0,1-.06-2.52c.34-1,1.28-1.81,1.58-2.82a16,16,0,0,0,.26-3.48l-.79-.24-4.74,3.31c-1.27-.87-1.55-1.64-.15-2.65,2.89-2.08,5.75-4.22,8.6-6.37,1-.76,1.79-.79,2.52.33.29.45.66.86,1,1.31,1.12,1.61,2.33,3.25,1.21,5.31S40.65,217,38.69,216.56Zm2-6.74-.94-.15a17,17,0,0,0-2.41,2.93c-.12.21,1.21,1.52,2,1.8.54.18,2-.58,2-.94A16.21,16.21,0,0,0,40.7,209.82Z"/><path d="M250.45,89.9a6.41,6.41,0,0,1-6-6.47c.11-3.16,4.37-6.43,8.32-6.39a6.17,6.17,0,0,1,5.88,6.5C258.6,86.84,254.6,89.93,250.45,89.9Zm6.11-7a3.77,3.77,0,0,0-3.65-3.76c-2.81,0-6.38,2.73-6.32,4.84a3.9,3.9,0,0,0,3.73,3.72C253.25,87.79,256.59,85.22,256.56,83Z"/><path d="M51.77,239.8c-1.84-.5-2.11-1.49-1.29-2.7,1.49-2.19-.39-3.07-1.48-4.37s-2.28-1.25-3.6-.32c-1.11.78-2,.6-2.63-1.1,1.76-.92,3.5-1.83,5.26-2.72,2.13-1.09,4.25-2.23,6.43-3.22.59-.26,1.68-.34,2,0a2.51,2.51,0,0,1,.58,2.18C55.41,231.63,53.59,235.63,51.77,239.8Zm2.59-11.43-.44-.47-4.69,2.48,3,2.7Z"/><path d="M237,72.33c3.82-2.4,7.14-4.52,10.51-6.56a2,2,0,0,1,1.67-.09c1.36.78,2.83,4.66,2.5,6.22-.42,2-2.09,2.81-5.21,2.45-1.27,1.8-2.53,3.61-3.84,5.46-1.49-.75-1.68-1.55-.84-2.65a11.77,11.77,0,0,0,1.86-2.65,11.39,11.39,0,0,0,.35-3.05C241.29,71,240,75,237,72.33Zm7.73-2.28a15,15,0,0,0,2.91,2.24c.41.18,1.76-.58,1.77-1a16.83,16.83,0,0,0-.67-3.71Z"/><path d="M242.74,222.15c-.5,1.62-1.32,2.6-3.11,1.5a2,2,0,0,0-3.15.71c-.78,1.3-3,2.13-1.33,4.24.83,1.08,1.14,2.23-.78,3.1-2.2-4-4.43-8-6.53-12a1.88,1.88,0,0,1,.34-1.81,2.89,2.89,0,0,1,2.26-.36c3.26,1.18,6.46,2.55,9.7,3.82.86.34,1.76.55,2.64.81Zm-11.71-2-.4.51,2.63,4.49,2.57-3.08Z"/><path d="M113,255c.31.69,1,1.47.87,2.08a72.4,72.4,0,0,1-2,7.61c-1,3.16-3.45,4.36-6.56,3.44s-4.45-3.08-3.67-6.38c.59-2.48,1.21-5,1.94-7.4.14-.46.89-.74,1.35-1.11.26.55.8,1.15.71,1.62-.4,2-1,4.06-1.51,6.09a14.14,14.14,0,0,0-.34,2.05,2.77,2.77,0,0,0,2.35,3.23,2.72,2.72,0,0,0,3.48-2c.73-2.28,1.28-4.62,1.93-6.93.2-.72.46-1.42.69-2.13Z"/><path d="M74.53,255.41c1.33-1,2.74-2,4-3.1,2.06-1.89,4-3.93,6-5.81a2.1,2.1,0,0,1,1.8-.42,2,2,0,0,1,1.14,1.46c-.39,4.59-.91,9.17-1.39,13.77-2,0-2.33-1.09-2-2.34.65-2.71-1.62-2.84-3.08-3.78s-2.16,0-3.15.78a7.12,7.12,0,0,1-2.45.77Zm10.55-6.1L80.9,253l3.62,1.75C84.72,252.82,84.88,251.22,85.08,249.31Z"/><path d="M255.35,203.65c-2-1.85-3.87-3.62-5.74-5.43a35.11,35.11,0,0,1-2.69-2.9c-.76-.93-2.58-1.71-1.41-3.16.56-.71,2.14-.92,3.22-.82,3.91.34,7.8.91,11.67,1.39.3,1.93-.77,2.33-2,2-2.66-.7-3,1.4-3.88,2.92s-.17,2.45.89,3.35S256.36,202.75,255.35,203.65Zm-2.86-6.22,1.48-3.26-5.17-.55-.26.53Z"/><path d="M153.18,271.26c-2,.89-2.66.11-3-1.19-.71-2.64-2.83-1.4-4.42-1.62s-2,.71-2.27,2-.75,2.24-2.69,1.45q1.2-4.14,2.43-8.3c.45-1.56.85-3.14,1.42-4.66a1.67,1.67,0,0,1,3-.31C149.57,262.76,151.31,267,153.18,271.26Zm-8.62-4.6,4-.43c-.74-1.77-1.38-3.29-2-4.81l-.55.06C145.54,263.05,145.12,264.62,144.56,266.66Z"/><path d="M175.16,266.5c-.57,1.84-1.74,1.44-2.82.63a38.88,38.88,0,0,0-5.25-3.67c.31,1.38.71,2.75.89,4.15.06.53-.41,1.12-.63,1.68-.5-.32-1.33-.56-1.44-1-1.07-4.09-2-8.2-3-12.36,1.46-.65,2.27-.58,2.55,1,.18,1,.55,2,1,3.76.9-1.84,1.48-3.11,2.14-4.34s.87-2.95,3.4-2.32l-3.4,7.19,6.6,5.36Z"/><path d="M63.9,238.38c2.87.64,5.46-2.68,8.27.29l-7.46,2.05v8.59c-2.76-.14-2.06-2-2.13-3.41-.08-1.52,0-3.05,0-4.57l-.62-.28a32.12,32.12,0,0,1-2.57,3.31c-.39.4-1.25.34-1.9.49,0-.6-.16-1.35.13-1.77,2.13-3.06,4.31-6.07,6.59-9,.32-.42,1.23-.39,1.87-.56,0,.59.17,1.29-.08,1.77A35.1,35.1,0,0,1,63.9,238.38Z"/><path d="M175.21,266.57c.21-4.17.36-8.34.68-12.5a3.16,3.16,0,0,1,1.29-2.23c.4-.23,1.63.44,2.12,1,2.72,3.25,5.33,6.61,8,10-1.28,1.37-2.25,1.14-3.07-.19s-1.73-1.83-3.24-1.11-3.59.67-3.3,3.32c.2,1.82-.65,2.72-2.55,1.64Zm3.26-11.28-.54.16v5.12l3.65-1.25Z"/><path d="M176.69,26.05c-3.19-1-2.21-4.88-4.38-7A34.39,34.39,0,0,1,171,22.67c-.26.55-.95.89-1.44,1.32-.22-.58-.76-1.25-.63-1.73q1.42-5.27,3.12-10.44c.15-.43.95-.65,1.45-1a4.56,4.56,0,0,1,.5,1.7,23.1,23.1,0,0,1-.82,3.22c2.84-.32,4.16-3.95,8-2.63a50.56,50.56,0,0,1-4.69,3.27c-1.75.93-2,2-1.15,3.72a57.82,57.82,0,0,1,2,5.53Z"/><path d="M232.43,51.76c2.21.1,4.41.19,6.61.36.21,0,.38.58.88,1.39a41.72,41.72,0,0,1-5.5.39c-1.8-.11-2.45.64-2.7,2.27a31.91,31.91,0,0,1-1.49,6c-2.67-2.58.07-5.45-.53-8.51l-4.08,3.55c-1.27-.66-1.77-1.34-.54-2.45,2.93-2.63,5.84-5.28,9.19-8.31l1.7,1.66-3.84,3.13Z"/><path d="M256.21,120.34c-.45-3.32,3.48-4.21,4.23-6.94-1.79.13-3.55.29-5.33.33-.14,0-.3-.77-.61-1.59,3.38-.68,6.58-1.35,9.79-2a16.64,16.64,0,0,1,3-.43,1.43,1.43,0,0,1,1,.94c.05.31-.44.94-.81,1.07-1.14.37-2.34.57-3.72.88,1.59,2.32,5.36,1.88,5.41,5.6-1.65-.86-3.33-1.64-4.92-2.59a1.92,1.92,0,0,0-2.95.52c-1.32,1.66-2.85,3.16-4.28,4.74Z"/><path d="M24.3,207.34c-1.28-1.06-1.25-1.85.05-2.63q4.57-2.78,9.1-5.61c1.06-.66,1.89-.57,2.52.56s1.2,2,1.68,3c1,2.09.31,3.78-1.49,5.07a4,4,0,0,1-5.51-.3,28.75,28.75,0,0,1-2.2-2.53ZM35,200.79l-5.14,3.33c1.47.9,2.43,1.8,3.53,2a2.52,2.52,0,0,0,2.13-1.27C35.7,203.79,35.24,202.56,35,200.79Z"/><path d="M242.78,222.17c-1.31-2.77-2.64-5.54-3.91-8.33-.54-1.18-1-2.4-1.63-4.05-1.12,1.45-1.93,2.64-2.89,3.68-.38.41-1.11.48-1.68.7,0-.61-.14-1.37.16-1.81,1.33-2,2.8-3.86,4.49-6.14,3.3,3.62,3.46,8.34,6,12.35,1.09-1.44,2-2.81,3.11-4.07.3-.36,1-.41,1.46-.6.07.53.39,1.25.16,1.56-1.71,2.27-3.53,4.46-5.3,6.69Z"/><path d="M45.25,214c1.61.66,1.91,1.41,1.17,2.65-1.6,2.72-3.12,5.48-4.68,8.23l.35.56,4.45-1.88A39.56,39.56,0,0,1,51,221.67c.69-.19,1.56.31,2.35.49l0,.85c-4.26,1.75-8.52,3.53-12.81,5.2a1.77,1.77,0,0,1-1.56-.59,2.13,2.13,0,0,1-.29-1.81C40.8,221.87,43,218,45.25,214Z"/><path d="M216.55,48.9l8.54-9.22c.11-.12.32-.29.37-.26a48.64,48.64,0,0,1,4,2.78,11.4,11.4,0,0,1,1.59,2.12c-.62.09-1.43.46-1.8.21a29.82,29.82,0,0,1-3.08-2.75l-2.48,2.74,3.17,2.93c-.82,1.14-.82,1.14-4.65-1.4L219.9,48.6c.21,2.21,3.77,2.43,2.73,5.75Z"/><path d="M262.84,124.31l-4.09.55c.13,1.57.31,2.94.32,4.31,0,.4-.48.8-.74,1.2-.35-.32-.93-.61-1-1a42.92,42.92,0,0,1-.62-5.53c0-.38.85-1.07,1.37-1.14,3.53-.49,7.07-.9,10.62-1.21a1.86,1.86,0,0,1,1.49,1,37.62,37.62,0,0,1,.54,5.31c0,.38-.47.78-.73,1.17-.34-.33-.83-.6-1-1a5.13,5.13,0,0,1-.32-2c.09-1.61-.51-2.19-2.17-2.07s-1.74,1.1-1.45,2.39a3.07,3.07,0,0,1,.05,1.38,5.62,5.62,0,0,1-.69,1.3c-.37-.39-.93-.73-1.06-1.19A26.6,26.6,0,0,1,262.84,124.31Z"/><path d="M206.59,33.76l-2.31,3.42a38.71,38.71,0,0,1,3.26,2.35c.41.35.5,1.06.74,1.6-.6,0-1.21-.05-1.81-.09-.06,0-.13-.08-.19-.12-5.11-3.11-5.11-3.11-1.83-8.05,1.11-1.67,2.18-3.38,3.37-5,.36-.49,1.28-1.2,1.53-1.06a56.36,56.36,0,0,1,5.24,3.38c.19.13.15,1-.07,1.18a1.33,1.33,0,0,1-1.23.05c-1.2-.66-2.34-1.44-3.66-2.28l-1.94,2.93c1.06.76,2.05,1.37,2.9,2.12.3.27.29.91.42,1.38-.48,0-1.06.29-1.43.11A34,34,0,0,1,206.59,33.76Z"/><path d="M125.82,14.5v2.33c0,1.32.63,1.82,1.93,1.55a3.44,3.44,0,0,1,1.39-.06c.86.21,1.7.53,2.55.81a7.17,7.17,0,0,1-2.28,1.08c-6,.41-5.48,1.14-5.8-4.49-.13-2.24-.4-4.48-.69-6.7-.17-1.25.12-1.93,1.49-2,1.62-.09,3.24-.33,4.86-.38.37,0,.76.5,1.14.76-.34.31-.64.82-1,.9-1.26.29-2.57.42-3.94.63v3.3a31.21,31.21,0,0,1,3.51,0c.48.05.92.54,1.38.83-.39.28-.74.71-1.17.82C128.11,14.18,127,14.29,125.82,14.5Z"/><path d="M185.28,16.76c-.45,1.09-.86,2.06-1.35,3.21,1.21.53,2.29.92,3.28,1.47.36.2.5.78.74,1.18-.45.18-.95.58-1.33.48a29.94,29.94,0,0,1-3.28-1.19l-1.67,3.77c1.41.6,2.71,1.06,3.9,1.71.4.21.52.92.78,1.4-.47.12-1,.47-1.4.33-1.94-.71-3.85-1.53-6-2.42,1.54-3.92,2.94-7.67,4.55-11.33a2.35,2.35,0,0,1,2.25-.5c1.6,1,4.33.24,4.86,2.93,0,.16-.24.37-.44.66Z"/><path d="M160.45,10.1c-1.85-.34-3.28-.55-4.67-.91-.37-.09-.63-.64-.94-1,.38-.26.79-.77,1.14-.73,1.92.18,3.85.42,5.74.79s2.13,1.15.88,2.7c-1.66,2-3.44,4-5.17,6-.5.57-1,1.16-1.79,2.12,1.73.31,3.14.46,4.48.84.59.17,1,.83,1.55,1.27-.58.21-1.18.64-1.73.58-1.77-.17-3.52-.51-5.27-.82-2.12-.39-2.44-1.19-1-2.88,1.78-2.14,3.68-4.18,5.53-6.28C159.51,11.38,159.81,10.94,160.45,10.1Z"/><path d="M9.37,127.89c-.53,1.35-1,2.07-1,2.77a8.78,8.78,0,0,0,.77,2.43A7.31,7.31,0,0,0,11.41,132a17.57,17.57,0,0,0,1.75-2.72,3.27,3.27,0,0,1,4.3-1.27A5.26,5.26,0,0,1,20,131.5c.16,1.49-.75,3.12-1.33,4.65-.07.18-.91.08-1.69.13.51-1.36,1.2-2.42,1.2-3.47,0-.9-.8-1.8-1.24-2.7a8,8,0,0,0-2.26,1.2c-.79.83-1.2,2-2,2.88a3.52,3.52,0,0,1-5.33.33c-1.48-1.51-1.55-5,0-6.18C7.69,128.05,8.34,128.1,9.37,127.89Z"/><path d="M261.45,161.84a4.14,4.14,0,1,1,.06,8.28,4.14,4.14,0,1,1-.06-8.28Z"/><path d="M17.58,170.79a4.27,4.27,0,0,1-.2,8.54,4.27,4.27,0,0,1,.2-8.54Z"/><path d="M141.6,8.28l-.17,4a21.79,21.79,0,0,1,3.37.05c.52.09.95.7,1.42,1.08a11,11,0,0,1-1.36.89,1.69,1.69,0,0,1-.92,0c-2.08-.36-3.1.38-2.78,2.6a2.23,2.23,0,0,1,0,1.15,20.57,20.57,0,0,1-1.08,1.87c-.35-.64-1-1.28-1-1.92,0-3.34.15-6.68.23-10,0-1.38.68-1.92,2.06-1.8s2.79,0,4.18.19c.41,0,.76.6,1.14.92-.42.33-.82.89-1.28.94A34.05,34.05,0,0,1,141.6,8.28Z"/><path d="M240.05,55c.6.15,1.45.09,1.77.47,1.63,2,3.16,4,4.64,6.08.26.37.09,1.06.12,1.6-.58-.19-1.47-.2-1.68-.58-1.2-2.19-2.35-1.45-3.8-.26-2.2,1.81-4.54,3.46-6.91,5.24-1.48-.89-1.5-1.71-.1-2.72,1.95-1.4,3.76-3,5.75-4.31,1.69-1.11,2.27-2.16.59-3.72a4.9,4.9,0,0,1-.63-1Z"/><path d="M212.72,43.21a32.65,32.65,0,0,1,2.92,2.42c.3.32.21,1,.3,1.56-.49,0-1.1.15-1.44-.08a23.72,23.72,0,0,1-3.65-2.88,2,2,0,0,1-.13-2c2.16-2.94,4.43-5.8,6.74-8.62.26-.32,1-.23,1.53-.33,0,.6.29,1.38,0,1.76C217,37.77,214.94,40.37,212.72,43.21Z"/><path d="M250.12,208.28c1.71-1.94,1.69-2.2-.55-3.57s-4.69-2.69-7-4.17c-.44-.29-.5-1.17-.74-1.78.61,0,1.35-.35,1.79-.1,2.83,1.58,5.65,3.2,8.36,5,1.84,1.2,2.15,3.37.72,4.74-.55.53-1.6.53-2.43.78Z"/><path d="M112.51,267.48c2.52.86,2.77.71,3.25-1.92s.91-5.16,1.4-7.74c.31-1.65.46-1.7,2.47-.9-.62,3.45-1.16,6.95-1.9,10.4-.54,2.52-2.38,3.54-4.43,2.52-.64-.32-1-1.23-1.47-1.87Z"/><path d="M200.56,241.12c2.16,3.65,4.28,7.14,6.28,10.7.26.46-.08,1.27-.15,1.92-.59-.27-1.45-.38-1.74-.84-2-3.13-3.79-6.35-5.71-9.51C198.39,242,199,241.48,200.56,241.12Z"/><path d="M239.34,203.38c3.55,2.31,7.11,4.6,10.62,7,.35.24.37,1,.54,1.5-.59.11-1.36.52-1.74.29-3.28-2-6.54-4.12-9.7-6.35-.44-.31-.31-1.44-.45-2.19Z"/><path d="M148.55,20.07c.38-4.06.75-8.13,1.21-12.18,0-.43.67-.8,1-1.2.36.5,1,1,1,1.49-.23,3.7-.55,7.4-1,11.09-.06.51-1,.93-1.45,1.39Z"/><path d="M266.81,105.64c-4,1.1-8,2.23-12,3.24-.33.08-1-.52-1.22-.95-.11-.18.38-1,.72-1.09,3.78-1.09,7.57-2.15,11.39-3.07.36-.09,1,.76,1.44,1.18Z"/><path d="M200.58,22c-.19.45-.3.74-.44,1-1.64,3.16-3.24,6.33-5,9.44-.24.44-1.13.53-1.72.79-.07-.59-.4-1.31-.18-1.76,1.58-3.19,3.22-6.34,4.95-9.44a2.58,2.58,0,0,1,1.58-.86C200,21.09,200.34,21.69,200.58,22Z"/><path d="M163.57,21.67c.9-4,1.68-7.73,2.58-11.4.09-.37.84-.7,1.32-.78.19,0,.76.79.7,1.13q-1.12,5.67-2.44,11.3a1.42,1.42,0,0,1-1.18.72C164.13,22.53,163.82,21.94,163.57,21.67Z"/><path class="cls-1" d="M71.86,245.47l2.51-4.2a18.46,18.46,0,0,1,2.52,3c.18.34-.63,1.73-1,1.76A18.83,18.83,0,0,1,71.86,245.47Z"/><path class="cls-1" d="M40.7,209.82a16.21,16.21,0,0,1,.69,3.64c0,.36-1.46,1.12-2,.94-.83-.28-2.16-1.59-2-1.8a17,17,0,0,1,2.41-2.93Z"/><path class="cls-1" d="M256.56,83c0,2.27-3.31,4.84-6.24,4.8A3.9,3.9,0,0,1,246.59,84c-.06-2.11,3.51-4.85,6.32-4.84A3.77,3.77,0,0,1,256.56,83Z"/><path class="cls-1" d="M54.36,228.37l-2.13,4.71-3-2.7,4.69-2.48Z"/><path class="cls-1" d="M244.74,70.05l4-2.42a16.83,16.83,0,0,1,.67,3.71c0,.37-1.36,1.13-1.77,1A15,15,0,0,1,244.74,70.05Z"/><path class="cls-1" d="M231,220.16l4.8,1.92-2.57,3.08-2.63-4.49Z"/><path class="cls-1" d="M85.08,249.31c-.2,1.91-.36,3.51-.56,5.43L80.9,253Z"/><path class="cls-1" d="M252.49,197.43l-4-3.28.26-.53,5.17.55Z"/><path class="cls-1" d="M144.56,266.66c.56-2,1-3.61,1.41-5.18l.55-.06c.63,1.52,1.27,3,2,4.81Z"/><path class="cls-1" d="M178.47,255.29l3.11,4-3.65,1.25v-5.12Z"/><path class="cls-1" d="M35,200.79c.27,1.77.73,3,.52,4.11a2.52,2.52,0,0,1-2.13,1.27c-1.1-.25-2.06-1.15-3.53-2Z"/><path d="M0,133.34c.33-2.83.67-5.66,1-8.49C5.11,87.5,21.36,56.54,50.06,32.29c19-16.08,41-25.94,65.54-30.2,5-.86,10-1.06,15-1.59.92-.1,1.82-.33,2.72-.5h10.72c2.75.32,5.5.69,8.25,1a136,136,0,0,1,75.76,31.93A134.72,134.72,0,0,1,273.46,107c1.8,7.73,2.32,15.75,3.44,23.64.13.91.33,1.81.5,2.72v10.72c-.33,2.83-.67,5.66-1,8.49-4.12,37.34-20.39,68.29-49.08,92.55a133.23,133.23,0,0,1-60.08,29.09c-6.65,1.37-13.49,1.82-20.24,2.7-1,.13-2,.34-2.95.51H133.34c-2.83-.33-5.66-.67-8.49-1-37.43-4.13-68.43-20.46-92.7-49.26-16-19-25.8-40.95-30.06-65.36-.87-5-1.06-10-1.59-15-.1-.91-.33-1.81-.5-2.72Zm275.08,5.54C274.83,64.09,215.83,3.26,139.93,2.44,64.39,1.62,3.07,61.56,2.43,137.82,1.79,213,61.61,274.51,138.17,275,213.15,275.43,274.28,215.67,275.08,138.88Z"/><path class="cls-1" d="M275.08,138.88c-.8,76.79-61.93,136.55-136.91,136.1C61.61,274.51,1.79,213,2.43,137.82c.64-76.26,62-136.2,137.5-135.38C215.83,3.26,274.83,64.09,275.08,138.88ZM175.21,266.57l-6.6-5.36L172,254c-2.53-.63-2.77,1.13-3.4,2.32s-1.24,2.5-2.14,4.34c-.48-1.72-.85-2.72-1-3.76-.28-1.56-1.09-1.63-2.55-1,1,4.16,2,8.27,3,12.36.11.43.94.67,1.44,1,.22-.56.69-1.15.63-1.68-.18-1.4-.58-2.77-.89-4.15a38.88,38.88,0,0,1,5.25,3.67c1.08.81,2.25,1.21,2.82-.62,1.9,1.08,2.75.18,2.55-1.64-.29-2.65,1.79-2.59,3.3-3.32s2.45-.15,3.24,1.11,1.79,1.56,3.07.19c-2.69-3.38-5.3-6.74-8-10-.49-.58-1.72-1.25-2.12-1a3.16,3.16,0,0,0-1.29,2.23C175.57,258.23,175.42,262.4,175.21,266.57Zm67.57-44.4c-.88-.26-1.78-.47-2.64-.81-3.24-1.27-6.44-2.64-9.7-3.82a2.89,2.89,0,0,0-2.26.36,1.88,1.88,0,0,0-.34,1.81c2.1,4,4.33,8,6.53,12,1.92-.87,1.61-2,.78-3.1-1.64-2.11.55-2.94,1.33-4.24a2,2,0,0,1,3.15-.71c1.79,1.1,2.61.12,3.09-1.51,1.78-2.22,3.6-4.41,5.31-6.68.23-.31-.09-1-.16-1.56-.5.19-1.16.24-1.46.6-1.08,1.26-2,2.63-3.11,4.07-2.52-4-2.68-8.73-6-12.35-1.69,2.28-3.16,4.17-4.49,6.14-.3.44-.12,1.2-.16,1.81.57-.22,1.3-.29,1.68-.7,1-1,1.77-2.23,2.89-3.68.65,1.65,1.09,2.87,1.63,4.05C240.14,216.63,241.47,219.4,242.78,222.17Zm-84.41,34c1-1.94,2.1-3.53,4.59-3.71a25.83,25.83,0,0,0,4.51-1c59.66-15.34,97.24-74.49,85.44-134.82-5.14-26.23-17.86-48.37-38.28-65.67-29.4-24.92-63.31-33.63-101-25.52-30.94,6.67-55.15,23.89-72.38,50.4-16.4,25.24-22,53-17,82.71a113.19,113.19,0,0,0,29,58.82,115.84,115.84,0,0,0,95,37.24c3-.24,6.37-1.68,8.64,1.75-4.18,3.27-5.25,6.84-3.25,11.09a6.07,6.07,0,0,0,9.42,2c.49-.45.49-1.42.72-2.15-2.56,1.08-4.5,2.43-6.77.69-1.69-1.29-2.38-4.92-1.51-7.12,1.35-3.38,4.1-2.13,6.59-1.8C162.43,255.87,159.84,256.89,158.37,256.19ZM136,268.37l-.66,0c-.88-2.85-1.7-5.72-2.69-8.53-.26-.73-1-1.7-1.63-1.83a50.4,50.4,0,0,0-7.36-.83,2.32,2.32,0,0,0-1.81,1.34c-.59,3.58-1,7.2-1.33,10.82a2.2,2.2,0,0,0,1.15,1.8,30.15,30.15,0,0,0,5.3.56c.48,0,1-.45,1.49-.7-.4-.36-.75-.92-1.21-1-1-.26-2-.13-3-.45a2.19,2.19,0,0,1-1.27-1.44c-.29-2.48.25-3,2.7-2.88a2.66,2.66,0,0,0,.93,0c.55-.22,1.06-.54,1.59-.81a4.67,4.67,0,0,0-1.32-.91c-1-.29-2.09-.41-3.35-.64.16-1.23.31-2.33.47-3.54l6.15.38c1.16,3.55,2.32,7.3,3.63,11a1.77,1.77,0,0,0,3.44.14c1.42-3.42,2.73-6.9,4-10.4a5.93,5.93,0,0,0-.11-2.2c-.65.49-1.61.86-1.88,1.51C138.06,262.56,137.08,265.48,136,268.37Zm79-32.06.53-.27,5.64,7.69c1.69-.62,1.75-1.38.88-2.54-1.95-2.61-3.76-5.32-5.76-7.88-.55-.71-1.71-1.59-2.36-1.43-1.47.35-1.76,1.56-1.32,3.13.79,2.83,1.31,5.74,2.07,9.2-3.11-2-5.69-3.51-8.19-5.19-1.21-.8-2.37-.69-3,.35a2.9,2.9,0,0,0,.22,2.56c1.83,2.78,3.8,5.48,5.83,8.12.39.5,1.3.61,2,.9-.06-.71.12-1.58-.23-2.12-1.38-2.16-2.92-4.23-4.41-6.33a53.74,53.74,0,0,1,7.38,4.05,8.88,8.88,0,0,0,2.47.64,8.29,8.29,0,0,0,.31-2.57C216.41,241.83,215.66,239.08,215,236.31ZM63.06,42.54c-1.16-.61-1.82-.94-2.47-1.3a68.62,68.62,0,0,0-6.1-3.37c-.65-.28-1.79.3-2.58.72-.26.13-.35,1.21-.1,1.55,2.46,3.26,5,6.46,7.62,9.79L61,48.51l-5.48-7.09a49.71,49.71,0,0,1,6.95,3.37,10.27,10.27,0,0,0,2.72.57,10.22,10.22,0,0,0,0-2.59c-.59-2.52-1.34-5-2-7.51L63.7,35l5.58,6.86c1.73-.54,1.65-1.32.75-2.43C68,37,66.15,34.4,64.1,32c-.53-.62-1.68-1.34-2.29-1.16-1.38.41-1.56,1.63-1.13,3C61.51,36.55,62.18,39.3,63.06,42.54ZM224,222.94c-1.61.63-1.71,1.36-.67,2.46,1.73,1.82,3.39,3.71,5.07,5.57a5,5,0,0,1-2.63-.31c-2.14-.69-4.24-1.53-6.41-2-.8-.18-1.78.47-2.68.75a7.62,7.62,0,0,0,.8,2.37c1.1,1.4,2.41,2.63,3.62,3.93a42.6,42.6,0,0,0,3.18,3.39c.48.43,1.37.4,2.07.57a5.41,5.41,0,0,0-.46-1.91,38.49,38.49,0,0,0-2.65-2.93c-.89-.95-1.77-1.91-2.66-2.87a3.25,3.25,0,0,1,2.11.06c2.5.8,5,1.7,7.52,2.34a4.1,4.1,0,0,0,2.46-.71c.17-.08.09-1.21-.22-1.55C229.63,229,226.77,226,224,222.94ZM87.74,25.84l-.46.37c-2.4-1.69-4.75-3.45-7.23-5a2.87,2.87,0,0,0-2.46.06c-.35.18-.41,1.54-.13,2.16q1.91,4.35,4.12,8.56c.34.63,1.22,1,1.85,1.45a6.59,6.59,0,0,0,0-2.31c-.87-2.14-1.92-4.21-2.9-6.3L81,24.5c2.46,1.72,4.88,3.51,7.42,5.1.63.4,1.67.14,2.52.17a6.32,6.32,0,0,0-.08-2.31c-1.32-3-2.74-5.89-4.23-8.77-.28-.53-1-.81-1.58-1.21-.08.71-.44,1.54-.21,2.13C85.71,21.73,86.76,23.77,87.74,25.84ZM259,93a15.13,15.13,0,0,1-.89,1.39c-1.83,2.11-3.75,4.15-5.47,6.35-.43.56-.21,1.64-.3,2.48a5.88,5.88,0,0,0,2.06.15c3.16-1,6.31-2.13,9.41-3.32.55-.21.89-1,1.32-1.51-.7-.15-1.47-.58-2.07-.41-2.24.65-4.43,1.49-6.64,2.26a79,79,0,0,1,5.35-6.92c.51-.66.36-1.82.52-2.76a6.8,6.8,0,0,0-2.49-.23c-3.1,1-6.16,2.09-9.19,3.26-.5.2-.79,1-1.17,1.48.64.14,1.35.53,1.89.37C253.71,94.84,256.08,94,259,93ZM111.14,13.79l.62-.17c1.89,2.25,3.7,4.58,5.72,6.71.56.59,1.72.62,2.61.91a7,7,0,0,0,.46-2.31c-.51-3.13-1.13-6.24-1.84-9.33-.14-.59-.83-1.06-1.27-1.58-.26.6-.81,1.24-.73,1.8.31,2.34.81,4.67,1.33,7.48a16,16,0,0,1-1.35-1.22c-1.66-1.95-3.2-4-5-5.83-.55-.56-1.77-.45-2.69-.65a7,7,0,0,0-.39,2.24c.53,3.21,1.15,6.4,1.88,9.56.13.57.93,1,1.42,1.47a5.12,5.12,0,0,0,.52-1.88C112.08,18.58,111.58,16.19,111.14,13.79Zm86.71,232.07.24-.53a7.52,7.52,0,0,0-2.27-1,7.21,7.21,0,0,0-6.79,4.74,8.6,8.6,0,0,0,3.28,8.85c2.48,1.65,5.94,1.3,8.55-1.08.69-.63,1.5-2,1.27-2.64a30,30,0,0,0-2.7-5.05c-.06-.09-.46-.06-.65,0-1.19.56-2.4,1.11-3.53,1.77a1.14,1.14,0,0,0-.37,1.08,1.24,1.24,0,0,0,1.05.56,21.67,21.67,0,0,0,2.7-1c.37,1.23,1.31,2.72.9,3.4a5,5,0,0,1-3.29,1.74c-2.19.34-4.44-1.88-5.08-4.6a4.33,4.33,0,0,1,2.67-5.3A30.19,30.19,0,0,1,197.85,245.86Zm-96.92,9.2.73-.19a6.44,6.44,0,0,0-.68-2.26c-1.94-2.38-6.34-3-9-1.31a8.33,8.33,0,0,0-3.11,9.45c1.12,2.67,5.06,4.69,8,4.05.35-.08.88-.24,1-.49a22.8,22.8,0,0,0,1.69-5.68c0-.51-2.2-1.29-3.47-1.74-.45-.16-1.11.27-1.68.44.33.43.59,1.15,1,1.25,2.06.49,1.85,1.69,1.14,3.12-.81,1.63-2.07,1-3.18.51-2.52-1.12-3.24-3.81-1.89-6.75,1.25-2.71,3.76-3.84,6.27-2.63A23.47,23.47,0,0,1,100.93,255.06ZM71.4,246.27c.69,1.45,1.39,2.35,1.49,3.31a14.89,14.89,0,0,1-.44,3.66c-.22,1.45.29,2.19,2,2l1-6.68c3.08-1.27,4-2.42,3.71-4.65-.22-1.61-3.91-4.87-5.51-4.78a1.64,1.64,0,0,0-1.12.66c-2,3.29-4,6.6-6,10-.21.37.13,1.05.21,1.59.57-.17,1.37-.16,1.66-.54C69.41,249.63,70.15,248.27,71.4,246.27ZM38.69,216.56c2,.41,3.81.08,4.9-1.92s-.09-3.7-1.21-5.31c-.3-.45-.67-.86-1-1.31-.73-1.12-1.52-1.09-2.52-.33-2.85,2.15-5.71,4.29-8.6,6.37-1.4,1-1.12,1.78.15,2.65l4.74-3.31.79.24a16,16,0,0,1-.26,3.48c-.3,1-1.24,1.81-1.58,2.82a7.41,7.41,0,0,0,.06,2.52l1,.1ZM250.45,89.9c4.15,0,8.15-3.06,8.21-6.36a6.17,6.17,0,0,0-5.88-6.5c-3.95,0-8.21,3.23-8.32,6.39A6.41,6.41,0,0,0,250.45,89.9ZM45.2,56.45c1.8-2.54,3.63-1.16,5.36-.58,1.32.44,2.63,1.14,3.46-1.11l-6.35-2.25.49-.39c-1.09-1.31-1.94-3.1-3.34-3.81-1.88-.94-3.48.57-4.77,2-.31.34-.61.7-.95,1-1,.95-1,1.79.1,2.71q3.84,3.39,7.59,6.87c1.17,1.09,1.85.77,2.52-1.14ZM51.77,239.8c1.82-4.17,3.64-8.17,5.29-12.24a2.51,2.51,0,0,0-.58-2.18c-.34-.35-1.43-.27-2,0-2.18,1-4.3,2.13-6.43,3.22-1.76.89-3.5,1.8-5.26,2.72.64,1.7,1.52,1.88,2.63,1.1,1.32-.93,2.42-1.08,3.6.32s3,2.18,1.48,4.37C49.66,238.31,49.93,239.3,51.77,239.8ZM237,72.33c3,2.62,4.28-1.31,7-.87a11.39,11.39,0,0,1-.35,3.05,11.77,11.77,0,0,1-1.86,2.65c-.84,1.1-.65,1.9.84,2.65,1.31-1.85,2.57-3.66,3.84-5.46,3.12.36,4.79-.43,5.21-2.45.33-1.56-1.14-5.44-2.5-6.22a2,2,0,0,0-1.67.09C244.15,67.81,240.83,69.93,237,72.33ZM113,255l-.8.21c-.23.71-.49,1.41-.69,2.13-.65,2.31-1.2,4.65-1.93,6.93a2.72,2.72,0,0,1-3.48,2,2.77,2.77,0,0,1-2.35-3.23,14.14,14.14,0,0,1,.34-2.05c.5-2,1.11-4,1.51-6.09.09-.47-.45-1.07-.71-1.62-.46.37-1.21.65-1.35,1.11-.73,2.44-1.35,4.92-1.94,7.4-.78,3.3.47,5.44,3.67,6.38s5.53-.28,6.56-3.44a72.4,72.4,0,0,0,2-7.61C114,256.51,113.34,255.73,113,255Zm-38.5.37.86,1.33a7.12,7.12,0,0,0,2.45-.77c1-.82,1.71-1.72,3.15-.78s3.73,1.07,3.08,3.78c-.31,1.25,0,2.31,2,2.34.48-4.6,1-9.18,1.39-13.77a2,2,0,0,0-1.14-1.46,2.1,2.1,0,0,0-1.8.42c-2.06,1.88-4,3.92-6,5.81C77.27,253.44,75.86,254.38,74.53,255.41Zm180.82-51.76c1-.9,1.08-1.74,0-2.65s-1.83-1.81-.89-3.35,1.22-3.62,3.88-2.92c1.28.33,2.35-.07,2-2-3.87-.48-7.76-1-11.67-1.39-1.08-.1-2.66.11-3.22.82-1.17,1.45.65,2.23,1.41,3.16a35.11,35.11,0,0,0,2.69,2.9C251.48,200,253.39,201.8,255.35,203.65ZM153.18,271.26c-1.87-4.31-3.61-8.5-5.51-12.63a1.67,1.67,0,0,0-3,.31c-.57,1.52-1,3.1-1.42,4.66q-1.23,4.15-2.43,8.3c1.94.79,2.45-.17,2.69-1.45s.75-2.22,2.27-2,3.71-1,4.42,1.62C150.52,271.37,151.2,272.15,153.18,271.26ZM63.9,238.38A35.1,35.1,0,0,0,66,235.27c.25-.48.06-1.18.08-1.77-.64.17-1.55.14-1.87.56-2.28,2.95-4.46,6-6.59,9-.29.42-.1,1.17-.13,1.77.65-.15,1.51-.09,1.9-.49a32.12,32.12,0,0,0,2.57-3.31l.62.28c0,1.52-.06,3,0,4.57.07,1.37-.63,3.27,2.13,3.41v-8.59l7.46-2.05C69.36,235.7,66.77,239,63.9,238.38ZM37.67,76.54l-.26-1c-4.34-.74-8.67-1.52-13-2.16a2,2,0,0,0-1.5,1.07,2.09,2.09,0,0,0,.28,1.79c1.29,1.65,2.72,3.19,4.1,4.77l4.35,5,.92-.4c-.16-.79-.06-1.84-.54-2.32-1.17-1.17-1.38-2.13-.47-3.61s1.65-2.91,3.88-2.33C36.05,77.51,36.91,76.83,37.67,76.54Zm139-50.49.75-.39a57.82,57.82,0,0,0-2-5.53c-.82-1.74-.6-2.79,1.15-3.72a50.56,50.56,0,0,0,4.69-3.27c-3.89-1.32-5.21,2.31-8,2.63a23.1,23.1,0,0,0,.82-3.22,4.56,4.56,0,0,0-.5-1.7c-.5.32-1.3.54-1.45,1Q170.39,17,169,22.26c-.13.48.41,1.15.63,1.73.49-.43,1.18-.77,1.44-1.32A34.39,34.39,0,0,0,172.31,19C174.48,21.17,173.5,25.06,176.69,26.05Zm55.74,25.71-.3-.48L236,48.15l-1.7-1.66c-3.35,3-6.26,5.68-9.19,8.31-1.23,1.11-.73,1.79.54,2.45l4.08-3.55c.6,3.06-2.14,5.93.53,8.51a31.91,31.91,0,0,0,1.49-6c.25-1.63.9-2.38,2.7-2.27a41.72,41.72,0,0,0,5.5-.39c-.5-.81-.67-1.38-.88-1.39C236.84,52,234.64,51.86,232.43,51.76ZM14,111.52A23.43,23.43,0,0,0,10.9,111a6.75,6.75,0,0,0-1.9.46c.47.55.86,1.45,1.43,1.6,3.29.87,6.61,1.6,10,2.25.56.11,1.24-.37,1.86-.58-.49-.52-.89-1.27-1.5-1.53a21.45,21.45,0,0,0-3.4-.87A15.47,15.47,0,0,1,21.23,110c1.21-.6,3-.75,2.24-3.27-2,.88-4,1.63-5.92,2.58a1.88,1.88,0,0,1-2.87-.75c-1-1.55-2.31-2.94-3.48-4.41l-.71.46C9.81,107.58,13.33,108.7,14,111.52Zm242.19,8.82.8.54c1.43-1.58,3-3.08,4.28-4.74a1.92,1.92,0,0,1,2.95-.52c1.59.95,3.27,1.73,4.92,2.59-.05-3.72-3.82-3.28-5.41-5.6,1.38-.31,2.58-.51,3.72-.88.37-.13.86-.76.81-1.07a1.43,1.43,0,0,0-1-.94,16.64,16.64,0,0,0-3,.43c-3.21.64-6.41,1.31-9.79,2,.31.82.47,1.59.61,1.59,1.78,0,3.54-.2,5.33-.33C259.69,116.13,255.76,117,256.21,120.34Zm-231.91,87,4.15-2.4a28.75,28.75,0,0,0,2.2,2.53,4,4,0,0,0,5.51.3c1.8-1.29,2.44-3,1.49-5.07-.48-1-1.11-2-1.68-3s-1.46-1.22-2.52-.56q-4.53,2.84-9.1,5.61C23.05,205.49,23,206.28,24.3,207.34Zm21,6.61c-2.25,4-4.45,7.92-6.55,11.86a2.13,2.13,0,0,0,.29,1.81,1.77,1.77,0,0,0,1.56.59c4.29-1.67,8.55-3.45,12.81-5.2l0-.85c-.79-.18-1.66-.68-2.35-.49a39.56,39.56,0,0,0-4.49,1.84l-4.45,1.88-.35-.56c1.56-2.75,3.08-5.51,4.68-8.23C47.16,215.36,46.86,214.61,45.25,214Zm171.3-165,6.08,5.45c1-3.32-2.52-3.54-2.73-5.75l2.33-2.55c3.83,2.54,3.83,2.54,4.65,1.4l-3.17-2.93,2.48-2.74a29.82,29.82,0,0,0,3.08,2.75c.37.25,1.18-.12,1.8-.21a11.4,11.4,0,0,0-1.59-2.12,48.64,48.64,0,0,0-4-2.78c-.05,0-.26.14-.37.26ZM99.87,14.1c1.35-.42,2.62-.73,3.82-1.23.42-.18.66-.82,1-1.25-.5-.19-1.06-.63-1.5-.53-1.5.32-3,.85-4.44,1.27a1.53,1.53,0,0,0-1.22,2.24c.65,2,1.23,4,1.82,6,1.77,5.92,1.89,6,7.65,3.58.07,0,.19,0,.22-.06.27-.46.52-.94.78-1.41-.44-.13-.92-.44-1.32-.36-1.33.28-2.64.7-3.91,1.05-1.83-3.64-1.81-3.65,1.48-4.87.54-.2.92-.8,1.38-1.21-.63-.18-1.31-.62-1.86-.5C100.54,17.54,100.55,17.58,99.87,14.1ZM69.48,28c1.4-.87,2.53-1.52,3.6-2.27a1.66,1.66,0,0,0,.62-1.08c0-.22-.62-.76-.7-.71-2,1.15-4,2.32-5.84,3.6-.15.1.19,1.14.48,1.64,1,1.68,2,3.33,3,5,3.3,5.43,3.31,5.45,8.46,1.65.4-.3.48-1,.71-1.58a5,5,0,0,0-1.78.08c-1.16.53-2.23,1.24-3.46,2l-2.13-3.47A22.29,22.29,0,0,0,75.09,31a4.82,4.82,0,0,0,.77-1.61,4.32,4.32,0,0,0-1.61,0A24.27,24.27,0,0,0,71.46,31ZM39,65.36c.33-.57.77-1.21,1.09-1.9a4.35,4.35,0,0,0-2.35-6.13c-2.26-.93-7.05,2.37-6.83,4.74a1.86,1.86,0,0,0,.72,1.12c3.13,2.39,6.3,4.74,9.73,7.32C43.41,67.3,39.39,67.38,39,65.36Zm223.81,59a26.6,26.6,0,0,0,.54,3.45c.13.46.69.8,1.06,1.19a5.62,5.62,0,0,0,.69-1.3,3.07,3.07,0,0,0-.05-1.38c-.29-1.29-.36-2.26,1.45-2.39s2.26.46,2.17,2.07a5.13,5.13,0,0,0,.32,2c.15.4.64.67,1,1,.26-.39.75-.79.73-1.17a37.62,37.62,0,0,0-.54-5.31,1.86,1.86,0,0,0-1.49-1c-3.55.31-7.09.72-10.62,1.21-.52.07-1.38.76-1.37,1.14a42.92,42.92,0,0,0,.62,5.53c.07.37.65.66,1,1,.26-.4.74-.8.74-1.2,0-1.37-.19-2.74-.32-4.31ZM206.59,33.76a34,34,0,0,0,3,1.91c.37.18.95-.06,1.43-.11-.13-.47-.12-1.11-.42-1.38-.85-.75-1.84-1.36-2.9-2.12l1.94-2.93c1.32.84,2.46,1.62,3.66,2.28a1.33,1.33,0,0,0,1.23-.05c.22-.19.26-1.05.07-1.18a56.36,56.36,0,0,0-5.24-3.38c-.25-.14-1.17.57-1.53,1.06-1.19,1.63-2.26,3.34-3.37,5-3.28,4.94-3.28,4.94,1.83,8.05.06,0,.13.12.19.12.6,0,1.21.06,1.81.09-.24-.54-.33-1.25-.74-1.6a38.71,38.71,0,0,0-3.26-2.35ZM125.82,14.5c1.22-.21,2.29-.32,3.33-.59.43-.11.78-.54,1.17-.82-.46-.29-.9-.78-1.38-.83a31.21,31.21,0,0,0-3.51,0V8.92c1.37-.21,2.68-.34,3.94-.63.4-.08.7-.59,1-.9-.38-.26-.77-.77-1.14-.76-1.62,0-3.24.29-4.86.38-1.37.08-1.66.76-1.49,2,.29,2.22.56,4.46.69,6.7.32,5.63-.2,4.9,5.8,4.49a7.17,7.17,0,0,0,2.28-1.08c-.85-.28-1.69-.6-2.55-.81a3.44,3.44,0,0,0-1.39.06c-1.3.27-1.93-.23-1.93-1.55Zm-111.11,108a31.25,31.25,0,0,0,.45-3.17c0-.43-.37-.86-.57-1.29a4.86,4.86,0,0,0-1.3,1,2.83,2.83,0,0,0-.15,1.36c0,1.73-1,2-2.45,1.84-1.69-.19-1.49-1.2-1.26-2.35a8.2,8.2,0,0,0,.22-2.3c0-.39-.53-.74-.82-1.11-.3.29-.78.54-.85.88-.32,1.43-.45,2.91-.78,4.34-.37,1.58.25,2.32,1.78,2.52,2.23.29,4.44.72,6.68.9,5.31.42,4.67,1.88,5.42-3.79a12.06,12.06,0,0,0-.46-3.27,9.9,9.9,0,0,0-1.33,3c-.13,2-1.06,2.38-2.74,2C16,122.92,15.52,122.76,14.71,122.53ZM185.28,16.76l4.87,1.7c.2-.29.47-.5.44-.66-.53-2.69-3.26-1.91-4.86-2.93a2.35,2.35,0,0,0-2.25.5c-1.61,3.66-3,7.41-4.55,11.33,2.17.89,4.08,1.71,6,2.42.38.14.93-.21,1.4-.33-.26-.48-.38-1.19-.78-1.4-1.19-.65-2.49-1.11-3.9-1.71l1.67-3.77a29.94,29.94,0,0,0,3.28,1.19c.38.1.88-.3,1.33-.48-.24-.4-.38-1-.74-1.18-1-.55-2.07-.94-3.28-1.47C184.42,18.82,184.83,17.85,185.28,16.76ZM160.45,10.1c-.64.84-.94,1.28-1.29,1.68-1.85,2.1-3.75,4.14-5.53,6.28-1.4,1.69-1.08,2.49,1,2.88,1.75.31,3.5.65,5.27.82.55.06,1.15-.37,1.73-.58-.51-.44-1-1.1-1.55-1.27-1.34-.38-2.75-.53-4.48-.84.81-1,1.29-1.55,1.79-2.12,1.73-2,3.51-3.93,5.17-6,1.25-1.55,1-2.34-.88-2.7s-3.82-.61-5.74-.79c-.35,0-.76.47-1.14.73.31.34.57.89.94,1C157.17,9.55,158.6,9.76,160.45,10.1ZM9.37,127.89c-1,.21-1.68.16-2.06.45-1.51,1.18-1.44,4.67,0,6.18a3.52,3.52,0,0,0,5.33-.33c.75-.88,1.16-2.05,2-2.88a8,8,0,0,1,2.26-1.2c.44.9,1.24,1.8,1.24,2.7,0,1.05-.69,2.11-1.2,3.47.78-.05,1.62.05,1.69-.13.58-1.53,1.49-3.16,1.33-4.65A5.26,5.26,0,0,0,17.46,128a3.27,3.27,0,0,0-4.3,1.27A17.57,17.57,0,0,1,11.41,132a7.31,7.31,0,0,1-2.29,1.06,8.78,8.78,0,0,1-.77-2.43C8.33,130,8.84,129.24,9.37,127.89ZM25.1,96.36l-.74.45c0,2.24.5,4.72-2.28,5.75-1.8.68-5.34-.42-6.61-2-2.13-2.65.07-4.48,1.47-6.41-2.09-.8-3.75.52-4.22,3.11C11.88,101.94,17,106.21,22,105a5.94,5.94,0,0,0,4.35-6.72C26.21,97.57,25.54,97,25.1,96.36Zm236.35,65.48a4.14,4.14,0,1,0,.06,8.28,4.14,4.14,0,1,0-.06-8.28ZM17.58,170.79a4.27,4.27,0,0,0-.2,8.54,4.27,4.27,0,0,0,.2-8.54ZM141.6,8.28a34.05,34.05,0,0,0,3.81,0c.46-.05.86-.61,1.28-.94-.38-.32-.73-.87-1.14-.92-1.39-.16-2.8-.07-4.18-.19s-2,.42-2.06,1.8c-.08,3.33-.24,6.67-.23,10,0,.64.63,1.28,1,1.92A20.57,20.57,0,0,0,141.14,18a2.23,2.23,0,0,0,0-1.15c-.32-2.22.7-3,2.78-2.6a1.69,1.69,0,0,0,.92,0,11,11,0,0,0,1.36-.89c-.47-.38-.9-1-1.42-1.08a21.79,21.79,0,0,0-3.37-.05ZM240.05,55l-.25.85a4.9,4.9,0,0,0,.63,1c1.68,1.56,1.1,2.61-.59,3.72-2,1.32-3.8,2.91-5.75,4.31-1.4,1-1.38,1.83.1,2.72,2.37-1.78,4.71-3.43,6.91-5.24,1.45-1.19,2.6-1.93,3.8.26.21.38,1.1.39,1.68.58,0-.54.14-1.23-.12-1.6-1.48-2.08-3-4.12-4.64-6.08C241.5,55,240.65,55.1,240.05,55ZM212.72,43.21c2.22-2.84,4.31-5.44,6.28-8.13.28-.38,0-1.16,0-1.76-.52.1-1.27,0-1.53.33-2.31,2.82-4.58,5.68-6.74,8.62a2,2,0,0,0,.13,2,23.72,23.72,0,0,0,3.65,2.88c.34.23.95.06,1.44.08-.09-.54,0-1.24-.3-1.56A32.65,32.65,0,0,0,212.72,43.21Zm37.4,165.07.19.87c.83-.25,1.88-.25,2.43-.78,1.43-1.37,1.12-3.54-.72-4.74-2.71-1.77-5.53-3.39-8.36-5-.44-.25-1.18.05-1.79.1.24.61.3,1.49.74,1.78,2.27,1.48,4.65,2.77,7,4.17S251.83,206.34,250.12,208.28Zm-137.61,59.2-.68.49c.48.64.83,1.55,1.47,1.87,2,1,3.89,0,4.43-2.52.74-3.45,1.28-6.95,1.9-10.4-2-.8-2.16-.75-2.47.9-.49,2.58-.94,5.16-1.4,7.74S115,268.34,112.51,267.48ZM18.27,82.64l.14,1c2.64,1.23,5.27,2.48,7.93,3.67,1.76.79,3.25,1.6,1.13,4,1,0,1.92.06,2.35-.38a2.9,2.9,0,0,0-.94-4.79c-2.79-1.46-5.68-2.77-8.59-4C19.78,81.93,19,82.46,18.27,82.64ZM92.52,26.81c.42,2.16,1.71,1.82,2.76,1.42,1.54-.58,2.42-1.78,1.84-3.48q-1.53-4.48-3.31-8.89c-.22-.53-1-.83-1.54-1.23-.14.71-.55,1.5-.36,2.11.72,2.28,1.57,4.52,2.49,6.73C95.19,25.37,95.4,26.85,92.52,26.81Zm108,214.31c-1.52.36-2.17.87-1.32,2.27,1.92,3.16,3.75,6.38,5.71,9.51.29.46,1.15.57,1.74.84.07-.65.41-1.46.15-1.92C204.84,248.26,202.72,244.77,200.56,241.12Zm38.78-37.74-.73.23c.14.75,0,1.88.45,2.19,3.16,2.23,6.42,4.32,9.7,6.35.38.23,1.15-.18,1.74-.29-.17-.51-.19-1.26-.54-1.5C246.45,208,242.89,205.69,239.34,203.38ZM56.39,53.07c0-.43.31-1.45,0-1.87-2.43-2.73-5-5.35-7.55-7.93-.34-.33-1.14-.2-1.72-.29,0,.61-.13,1.47.2,1.79C50.2,47.53,53.22,50.21,56.39,53.07ZM29,94.28c-.56-.69-.73-1.1-1-1.22-3.64-1.49-7.29-3-11-4.34-.32-.12-.93.5-1.41.77.25.42.41,1.06.77,1.21,3.49,1.47,7,2.89,10.53,4.21C27.37,95.09,28.09,94.58,29,94.28ZM148.55,20.07l.8.59c.5-.46,1.39-.88,1.45-1.39.45-3.69.77-7.39,1-11.09,0-.48-.65-1-1-1.49-.36.4-1,.77-1,1.2C149.3,11.94,148.93,16,148.55,20.07Zm118.26,85.57.3-.69c-.48-.42-1.08-1.27-1.44-1.18-3.82.92-7.61,2-11.39,3.07-.34.1-.83.91-.72,1.09.24.43.89,1,1.22.95C258.81,107.87,262.8,106.74,266.81,105.64ZM200.58,22c-.24-.27-.6-.87-.78-.82a2.58,2.58,0,0,0-1.58.86c-1.73,3.1-3.37,6.25-4.95,9.44-.22.45.11,1.17.18,1.76.59-.26,1.48-.35,1.72-.79,1.73-3.11,3.33-6.28,5-9.44C200.28,22.7,200.39,22.41,200.58,22Zm-37-.29c.25.27.56.86,1,1a1.42,1.42,0,0,0,1.18-.72q1.32-5.62,2.44-11.3c.06-.34-.51-1.15-.7-1.13-.48.08-1.23.41-1.32.78C165.25,13.94,164.47,17.63,163.57,21.67Z"/><path d="M158.37,256.19c1.47.7,4.06-.32,3.72,2.84-2.49-.33-5.24-1.58-6.59,1.8-.87,2.2-.18,5.83,1.51,7.12,2.27,1.74,4.21.39,6.77-.69-.23.73-.23,1.7-.72,2.15a6.07,6.07,0,0,1-9.42-2c-2-4.25-.93-7.82,3.25-11.09-2.27-3.43-5.65-2-8.64-1.75A115.84,115.84,0,0,1,53.3,217.35a113.19,113.19,0,0,1-29-58.82c-5-29.74.55-57.47,17-82.71,17.23-26.51,41.44-43.73,72.38-50.4,37.66-8.11,71.57.6,101,25.52,20.42,17.3,33.14,39.44,38.28,65.67,11.8,60.33-25.78,119.48-85.44,134.82a25.83,25.83,0,0,1-4.51,1C160.47,252.66,159.39,254.25,158.37,256.19Zm-29-137.34c.3.86.42,1.3.6,1.71,4.39,9.82,5.9,20.24,5.84,30.85-.08,15.23-3,30-7.61,44.52-2.43,7.67-5.26,15.22-7.68,22.9-1.33,4.23-.14,5.62,4.15,5.62,28.52,0,57,0,85.54-.18a6.63,6.63,0,0,0,4.29-1.67c4.54-4.57,9.24-9.06,13.16-14.13,21-27.17,28.45-57.85,22.05-91.54a108.07,108.07,0,0,0-36.8-63.36c-27-23.08-58.18-31.95-93.27-26.18A107.61,107.61,0,0,0,54.82,63.3c-26,29.58-34.66,64-25.81,102.4,5.25,22.77,17.2,41.87,34.68,57.43a5.17,5.17,0,0,0,3,1.27c4.27.14,8.55,0,12.82.06a2.08,2.08,0,0,0,2.4-1.6c1.59-5.1,3.43-10.12,4.88-15.26,3.39-12,4.94-24.27,6-36.64.31-3.59.48-7.2.72-11.07-1,.42-1.62.66-2.23,1-4.23,2-7.77.16-7.77-4.44a2.42,2.42,0,0,0-.84-1.47c-2.07-2-2-3.87.3-5.57,2.92-2.18,2.83-5.71-.2-7.85Q72,133.92,61.3,126.34c-2.6-1.85-2.75-3-.78-5.55,3.86-5,7.69-10,11.65-14.84,1.17-1.45,1.26-2.45.07-4a21.79,21.79,0,0,1-4.17-18c2.86-14.89,19-26.53,35.4-25,3.93.36,6.47,2.44,7.1,5.93s-.75,6.73-3,9.43a43.93,43.93,0,0,1-4.18,4,12.81,12.81,0,0,1,2.45.86c.54.31,1.21,1,1.21,1.45s-.67,1.2-1.21,1.43a14.6,14.6,0,0,1-4.19,1.33q-9,.85-18.07,1.4c-1.71.1-2.65.47-2.35,2.56a30.8,30.8,0,0,0,4.23,1c7.1.64,14.21,1.27,21.33,1.71a3.78,3.78,0,0,1,3.84,3c.35,1,.83,2.56,1.64,2.88,4.56,1.83,9.23,3.35,13.87,5,.16-.43.28-.58.25-.71-.54-2.73-1.11-5.45-1.63-8.18-.79-4.15.12-6.13,3.52-8.51a10.56,10.56,0,0,0,2.12-2.58c1.32-1.78,2.38-3.83,4-5.28a3.9,3.9,0,0,1,3.77-.34c.93.67,1.39,2.47,1.41,3.78s-.78,2.6-1.35,4.26a24.91,24.91,0,0,0,4.16.81c3.65.1,7.3,0,11,0a15.88,15.88,0,0,1,4.36.52c3,.93,3.87,4,1.55,6.19A16.17,16.17,0,0,1,154,94c-4.28,1.57-8.66,2.9-13.07,4-1.9.49-2.3,1.24-2,3.06.89,4.79,1.66,9.61,2.37,14.44.46,3.14-.6,4.1-3.72,3.82C135,119.16,132.38,119,129.4,118.85Zm-16.07,114.7c0-1.69-.29-3.13,0-4.41,2-7.7,3.85-15.48,6.38-23C125,190.44,130,174.75,130.9,158.07a96.6,96.6,0,0,0-3.23-32.7c-1.16-4-2.7-7.84-4.14-12,3.81.27,7.44.5,11.06.81,1.65.14,2.67.13,2.24-2.15-.88-4.64-1.33-9.36-2.21-14-.41-2.12.26-2.87,2.2-3.43,5.36-1.54,10.66-3.27,16-5a12.84,12.84,0,0,0,2.29-1.26l-.26-.75a16.78,16.78,0,0,0-2.43-.23c-2.25.12-4.51.63-6.72.44-3-.27-6-1.06-9-1.58-2.86-.5-3.07-.91-1.65-3.38.65-1.12,1.76-2.19.4-4.26-.73,1.26-1.22,2.2-1.79,3.09-1.3,2-2.66,4.06-3.92,6.13A3.64,3.64,0,0,0,129,90c.64,4.21,1.46,8.4,2.13,12.6.47,2.93-.92,4.09-3.75,3.19-5.17-1.63-10.31-3.36-15.49-4.94-2.45-.74-4.18-2-4.45-4.69-.17-1.68-1.16-2.09-2.7-2.17-4.49-.22-9-.3-13.45-1a104.42,104.42,0,0,1-11.7-2.86c-1.09-.28-2-.91-1.63-2.34.52-2.16,1-4.33,1.57-6.9h16.8l0-.62c-1.35,0-2.7,0-4,0s-3.54,1-3.77-1.33,2.06-1.57,3.33-1.9a26.58,26.58,0,0,0,13-7.26c2.26-2.39,1.62-5-1.53-5.87a13.26,13.26,0,0,0-5.7-.37A36.93,36.93,0,0,0,75.48,76.73c-7.56,9-6.65,18.82,2.24,26.41.33.29.61.64,1,1L65.5,120.61c-1.9,2.39-1.82,2.74.7,4.54q10.23,7.32,20.42,14.68c.67.49,1.69,1.12,1.72,1.73.18,3.07.08,6.14.08,9L84.72,152l.17.82a16.63,16.63,0,0,1,2.12.29c.69.17,1.7.34,1.91.8s-.29,1.35-.55,2-.59,1.2-1.06,2.13c4.88-.4,6.14-4.55,9.06-7.49a19.54,19.54,0,0,1,.45,3c-.42,11-.51,22-1.41,33A149.85,149.85,0,0,1,85,229.82c-1.06,2.7-2.08,4.77-5.46,4-.23-.05-.52.14-.9.25,12.92,9.29,37.35,19,65.36,17.7a105.89,105.89,0,0,0,55.48-18.26Z"/><path d="M63.06,42.54c-.88-3.24-1.55-6-2.38-8.69-.43-1.41-.25-2.63,1.13-3,.61-.18,1.76.54,2.29,1.16C66.15,34.4,68,37,70,39.43c.9,1.11,1,1.89-.75,2.43L63.7,35l-.51.26c.69,2.5,1.44,5,2,7.51a10.22,10.22,0,0,1,0,2.59,10.27,10.27,0,0,1-2.72-.57,49.71,49.71,0,0,0-6.95-3.37L61,48.51l-1.58,1.42c-2.61-3.33-5.16-6.53-7.62-9.79-.25-.34-.16-1.42.1-1.55.79-.42,1.93-1,2.58-.72a68.62,68.62,0,0,1,6.1,3.37C61.24,41.6,61.9,41.93,63.06,42.54Z"/><path d="M87.74,25.84c-1-2.07-2-4.11-2.89-6.23-.23-.59.13-1.42.21-2.13.54.4,1.3.68,1.58,1.21,1.49,2.88,2.91,5.81,4.23,8.77A6.32,6.32,0,0,1,91,29.77c-.85,0-1.89.23-2.52-.17-2.54-1.59-5-3.38-7.42-5.1l-.51.34c1,2.09,2,4.16,2.9,6.3a6.59,6.59,0,0,1,0,2.31c-.63-.48-1.51-.82-1.85-1.45q-2.2-4.2-4.12-8.56c-.28-.62-.22-2,.13-2.16a2.87,2.87,0,0,1,2.46-.06c2.48,1.54,4.83,3.3,7.23,5Z"/><path d="M111.14,13.79c.44,2.4.94,4.79,1.29,7.2a5.12,5.12,0,0,1-.52,1.88c-.49-.48-1.29-.9-1.42-1.47-.73-3.16-1.35-6.35-1.88-9.56A7,7,0,0,1,109,9.6c.92.2,2.14.09,2.69.65,1.8,1.82,3.34,3.88,5,5.83A16,16,0,0,0,118,17.3c-.52-2.81-1-5.14-1.33-7.48-.08-.56.47-1.2.73-1.8.44.52,1.13,1,1.27,1.58.71,3.09,1.33,6.2,1.84,9.33a7,7,0,0,1-.46,2.31c-.89-.29-2-.32-2.61-.91-2-2.13-3.83-4.46-5.72-6.71Z"/><path d="M45.2,56.45l4.11,3.33C48.64,61.69,48,62,46.79,60.92Q43,57.44,39.2,54.05c-1.05-.92-1.12-1.76-.1-2.71.34-.32.64-.68.95-1,1.29-1.44,2.89-3,4.77-2,1.4.71,2.25,2.5,3.34,3.81l-.49.39L54,54.76c-.83,2.25-2.14,1.55-3.46,1.11C48.83,55.29,47,53.91,45.2,56.45ZM44,55.34a15.41,15.41,0,0,0,1.27-3.55c0-.44-1.12-1.5-1.47-1.39a16.14,16.14,0,0,0-3.21,1.8Z"/><path d="M37.67,76.54c-.76.29-1.62,1-2.26.81-2.23-.58-2.93.8-3.88,2.33s-.7,2.44.47,3.61c.48.48.38,1.53.54,2.32l-.92.4-4.35-5c-1.38-1.58-2.81-3.12-4.1-4.77a2.09,2.09,0,0,1-.28-1.79,2,2,0,0,1,1.5-1.07c4.35.64,8.68,1.42,13,2.16Zm-11.48-.69-.32.55,3.36,3.69L31,76.69Z"/><path d="M14,111.52c-.69-2.82-4.21-3.94-3.53-7l.71-.46c1.17,1.47,2.44,2.86,3.48,4.41a1.88,1.88,0,0,0,2.87.75c1.89-1,3.88-1.7,5.92-2.58.79,2.52-1,2.67-2.24,3.27a15.47,15.47,0,0,0-3.89,2.35,21.45,21.45,0,0,1,3.4.87c.61.26,1,1,1.5,1.53-.62.21-1.3.69-1.86.58-3.34-.65-6.66-1.38-9.95-2.25-.57-.15-1-1-1.43-1.6a6.75,6.75,0,0,1,1.9-.46A23.43,23.43,0,0,1,14,111.52Z"/><path d="M99.87,14.1c.68,3.48.67,3.44,3.89,2.7.55-.12,1.23.32,1.86.5-.46.41-.84,1-1.38,1.21-3.29,1.22-3.31,1.23-1.48,4.87,1.27-.35,2.58-.77,3.91-1.05.4-.08.88.23,1.32.36-.26.47-.51.95-.78,1.41,0,0-.15,0-.22.06-5.76,2.4-5.88,2.34-7.65-3.58-.59-2-1.17-4-1.82-6a1.53,1.53,0,0,1,1.22-2.24c1.48-.42,2.94-.95,4.44-1.27.44-.1,1,.34,1.5.53-.33.43-.57,1.07-1,1.25C102.49,13.37,101.22,13.68,99.87,14.1Z"/><path d="M69.48,28l2,3a24.27,24.27,0,0,1,2.79-1.58,4.32,4.32,0,0,1,1.61,0A4.82,4.82,0,0,1,75.09,31a22.29,22.29,0,0,1-2.66,1.77l2.13,3.47c1.23-.71,2.3-1.42,3.46-2a5,5,0,0,1,1.78-.08c-.23.54-.31,1.28-.71,1.58-5.15,3.8-5.16,3.78-8.46-1.65-1-1.65-2-3.3-3-5-.29-.5-.63-1.54-.48-1.64,1.89-1.28,3.86-2.45,5.84-3.6.08-.05.72.49.7.71a1.66,1.66,0,0,1-.62,1.08C72,26.46,70.88,27.11,69.48,28Z"/><path d="M39,65.36c.36,2,4.38,1.94,2.36,5.15-3.43-2.58-6.6-4.93-9.73-7.32a1.86,1.86,0,0,1-.72-1.12c-.22-2.37,4.57-5.67,6.83-4.74a4.35,4.35,0,0,1,2.35,6.13C39.8,64.15,39.36,64.79,39,65.36Zm-5.75-3.63,3.9,2.65c1.66-2.38,1.7-3.8.16-4.64C35.34,58.63,34.44,60.11,33.28,61.73Z"/><path d="M14.71,122.53c.81.23,1.32.39,1.84.52,1.68.43,2.61,0,2.74-2a9.9,9.9,0,0,1,1.33-3,12.06,12.06,0,0,1,.46,3.27c-.75,5.67-.11,4.21-5.42,3.79-2.24-.18-4.45-.61-6.68-.9-1.53-.2-2.15-.94-1.78-2.52.33-1.43.46-2.91.78-4.34.07-.34.55-.59.85-.88.29.37.79.72.82,1.11a8.2,8.2,0,0,1-.22,2.3c-.23,1.15-.43,2.16,1.26,2.35,1.48.16,2.45-.11,2.45-1.84a2.83,2.83,0,0,1,.15-1.36,4.86,4.86,0,0,1,1.3-1c.2.43.58.86.57,1.29A31.25,31.25,0,0,1,14.71,122.53Z"/><path d="M25.1,96.36c.44.63,1.11,1.21,1.26,1.9A5.94,5.94,0,0,1,22,105c-5,1.23-10.13-3-9.29-7.71.47-2.59,2.13-3.91,4.22-3.11-1.4,1.93-3.6,3.76-1.47,6.41,1.27,1.57,4.81,2.67,6.61,2,2.78-1,2.28-3.51,2.28-5.75Z"/><path d="M18.27,82.64c.68-.18,1.51-.71,2-.49,2.91,1.21,5.8,2.52,8.59,4a2.9,2.9,0,0,1,.94,4.79c-.43.44-1.32.43-2.35.38,2.12-2.44.63-3.25-1.13-4-2.66-1.19-5.29-2.44-7.93-3.67Z"/><path d="M92.52,26.81c2.88,0,2.67-1.44,1.88-3.34-.92-2.21-1.77-4.45-2.49-6.73-.19-.61.22-1.4.36-2.11.53.4,1.32.7,1.54,1.23q1.78,4.39,3.31,8.89c.58,1.7-.3,2.9-1.84,3.48C94.23,28.63,92.94,29,92.52,26.81Z"/><path d="M56.39,53.07c-3.17-2.86-6.19-5.54-9.12-8.3-.33-.32-.15-1.18-.2-1.79.58.09,1.38,0,1.72.29,2.58,2.58,5.12,5.2,7.55,7.93C56.7,51.62,56.39,52.64,56.39,53.07Z"/><path d="M29,94.28c-.92.3-1.64.81-2.11.63-3.54-1.32-7-2.74-10.53-4.21-.36-.15-.52-.79-.77-1.21.48-.27,1.09-.89,1.41-.77,3.69,1.38,7.34,2.85,11,4.34C28.28,93.18,28.45,93.59,29,94.28Z"/><path class="cls-1" d="M44,55.34,40.56,52.2a16.14,16.14,0,0,1,3.21-1.8c.35-.11,1.52,1,1.47,1.39A15.41,15.41,0,0,1,44,55.34Z"/><path class="cls-1" d="M26.19,75.85l4.79.84-1.75,3.4L25.87,76.4Z"/><path class="cls-1" d="M33.28,61.73c1.16-1.62,2.06-3.1,4.06-2,1.54.84,1.5,2.26-.16,4.64Z"/><path d="M227,156.7c-2.05,2.87-3.8,6-6.21,8.55-9.82,10.32-21.87,13.11-35.11,8.54-12-4.13-19.43-12.92-21.42-25.59-2.05-13.15,2.4-23.93,13-32.08,11.42-8.75,29.74-8.46,41.14,1.74,10.92,9.77,13.89,23.73,9,37.16-.21.57-.35,1.17-.52,1.76Zm-46.44-40.57-1.35,1.16,4.45,3.78.46-.57-3.54-4.36,3.22,3.19c.65.65,1.24,1.06,1.32-.37,1.34.25,1.52-.4,1.15-1.48l1.27.58c.1-.38.21-.75.32-1.13l1.82.41L187.48,113l-1,.47,1.44,3.55c-.51-.74-1-1.52-1.53-2.2a7.25,7.25,0,0,0-1.34-.93,16.91,16.91,0,0,0-.1,1.74,2.86,2.86,0,0,0,.31.84l-2-1.93-.71.65,2.59,3.86a20.22,20.22,0,0,1-2.37-2.54C182.09,115.43,181.4,115.61,180.55,116.13Zm29.21,1.66-1.94,2.39,2.35-.48-.46,1.09.32.28,3.26-2.23-2.91,2.81.59.69,4.12-2.86c-1,.9-2.08,1.76-3,2.72s-.68,1.47.68,1.29c-.7,1.35-.14,1.5,1,1,1.46-.6,2.9-1.23,4.36-1.85L213,125.52l.21.72,2.64-.37-2.09,1.39.17.48h1.44l-1.45.59.59.75,3.95-.37-3.73,1.18.1.6h3.5l-1.72,1c3.32-.17,6.06.44,8.66-.39l-.06-.92-6.95.37,6.25-1,.21-.75c-.6-.26-1.21-.76-1.78-.72-1.52.1-3,.45-4.53.69l5.26-1.56c-1.31-2.13-2.66-.74-3.9-.51l2.65-1.59c-1.79-2-3.11-.09-4.51.2l2.91-2-.11-.71-2.72.16.94-1.61-2,0,.29-1.81-2.09.11.32-1.37-2,.36.71-1.48-.66-.48-3.44,3.31,2.51-3.61-.52-.57-2.4,2.27c.44-.84.87-1.68,1.3-2.53l-.39-.57-1.87,1.17-.19-2a6.23,6.23,0,0,0-1.41,1.22,23.88,23.88,0,0,0-1.25,2.77l.58.38,1.64-1.63-.88,2.33.45.28Zm-33.65,2.65-2.56.77,6.09,3.33c-1.68-.71-3.33-1.5-5-2.08-.58-.19-1.34.16-2,.27l.05.69,2.21,1.15a7.83,7.83,0,0,0-1.34-.23,18.84,18.84,0,0,0-2,.15l1.1,1.64c-1.07-.24-2.29-.83-2.62,1.16l6.32,1.56a25.87,25.87,0,0,1-4.12-.58c-2.76-.55-2.75-.55-3.25,1.13l3.27,1c-1.41-.26-2.84-.82-4.13.07v.69h8.34l-.92-1,3,.54c1-2.42-.43-3-2-3.55a1.89,1.89,0,0,1-.21-.09l3.12.63.19-.57-3.06-2a13.11,13.11,0,0,0,2.11.85,5.35,5.35,0,0,0,1.61-.18l-.67-1.31,2.08-.1-4.46-3,5.16,2.24-1.17-2.23,1.53.77.66-.89c-1.3-1.11-2.57-2.27-3.92-3.31s-1.59-.13-1.72,1C176.45,118.65,175.84,119.08,176.11,120.44Zm3,47.46.11.15a22.59,22.59,0,0,0,3.47,2.6c14.19,6.92,29.93,3.08,39.41-9.63a26.62,26.62,0,0,0,4.69-10.12c-2.22,0-4,.1-5.76,0-1.62-.12-2.36.59-3.22,2a37.46,37.46,0,0,1-5.88,7.7c-8.06,7.44-22.36,7.23-30,.34a33,33,0,0,1-6.91-9c-.32-.59-1-1.33-1.57-1.37-2.14-.16-4.3-.06-6.82-.06a13.24,13.24,0,0,0,.66,2.78c1.59,3,2.94,6.23,5,8.86C174.1,164.41,176.78,166,179.08,167.9Zm3.44-39.33c9.61-7.58,19.19-7.35,28.71.19-1.68,1.2-4.7-1.46-6.09,2l8.48.57c.23-.49.3-.56.29-.63a17.49,17.49,0,0,0-16.08-14.34c-8.77-.31-16.48,5.28-18.17,13.23-.11.51,0,1.37.31,1.6a2,2,0,0,0,1.74.08,2.71,2.71,0,0,0,1.12-1.55C183,129.32,182.58,128.75,182.52,128.57Zm28.12,14.31h17.43c-.18-1.78-.39-3.37-.48-5s-.84-2.3-2.5-2.27q-6.53.08-13.05-.09a3,3,0,0,1-2.24-1c-.36-.61,0-1.66.1-2.73-1.77-.23-4-1.41-5.46,1.31-2.64-2.45-9-2.36-10.59.1-.72-2.06-1.77-2.37-4.37-1.38a21.93,21.93,0,0,1-.44,3.56,21.62,21.62,0,0,1-1.65,3.24l2.84-.13c.73-1.75-1.34-4.11,2.08-5.25a27.21,27.21,0,0,1,1,3.36c.18,1.15,0,2.37,1.72,2.38.32-2,.62-4,.95-6,3.46,1.37.72,4.18,2.55,6.09.41-.74,1-1.33,1-1.86-.15-1.89.55-3.18,2.89-4.31.18,2.26.35,4.27.54,6.68l2.31-2,1.16-5.1,1.84,1.61-.53,6.19,2.77-1.67C210.51,140.24,210.57,141.38,210.64,142.88Zm-27.59,13.18c1,4.26,7.87,9.32,14.89,8.65,5.4-.52,11.4-4.5,12.18-8.67-2.34,0-4.71-.31-6.94.12-1.28.25-2.55,1.52-3.44,2.64a29.63,29.63,0,0,0-2.5,4.45l-1,0c-1.43-1.87-2.85-3.75-4.31-5.6-.45-.57-1-1.45-1.55-1.48C188,156,185.64,156.06,183.05,156.06Zm-.32-20.52c-5.11,0-10.12,0-15.13.07a2.28,2.28,0,0,0-1.55,1.55,32.86,32.86,0,0,0-.14,5.16c0,.1.54.26.83.26,4.87,0,9.75-.05,14.61-.18a1.81,1.81,0,0,0,1.32-1.16C182.82,139.43,182.73,137.6,182.73,135.54ZM191,151a25.59,25.59,0,0,1-.12-4.25c.08-.52.95-.93,1.45-1.39.33.52.91,1,.92,1.57a28.94,28.94,0,0,1-.38,3.8l.64.51c.61-.6,1.44-1.1,1.78-1.82s-.16-1.54,0-2.25a8.11,8.11,0,0,1,1.13-1.93c.42.6,1.08,1.16,1.18,1.81a23.08,23.08,0,0,1,.06,3.63l.74.39a9.13,9.13,0,0,0,1.47-2.11c.21-.59-.32-1.42-.13-2s.86-1,1.32-1.55c.37.52,1,1,1.06,1.55a33.15,33.15,0,0,1-.29,4.06c1.54.19,2.41-.15,2.47-1.91.16-4.6.09-4.84-2.59-5.22l1.93-.34-.07-.48H198.4v-.2l3-.19a78,78,0,0,0-8.79.1c-1.63,0-3.09.47-3.42,1.87a20.93,20.93,0,0,0-.11,5.71C189.09,150.5,190.07,150.66,191,151Zm-21.47-7c-.13.59-.24,1.11-.34,1.63-.67,3.79,0,4.62,3.77,4.62,2.87,0,5.73,0,8.6-.06a5,5,0,0,0,.88-.24l-2.34-.46.17-2.81.6-.39,2,1.72c-.51-.92,1.16-2.77-1.24-3.08-3.38-.43-1.61,2.56-2.5,4h-2.12l.32-4,2.6-.41v-.65a25.66,25.66,0,0,0-5.76.16c-.52.13-.68,2.28-.79,3.51-.16,1.74-1.3,2-2.41,1.37-.52-.28-.5-1.57-.73-2.4l.26-.07.36,2.17c.45-1.59.87-3,1.28-4.49Zm56.82,6.62,0-.37-2.32-.54V145.8c.47-.08.84-.13,1.21-.21s.81-.18,1.22-.27v-.79c-4.73-1.57-9.67-.76-14.52-1l0,.75h7.15l.33.81c-2.4-.8-2.29.81-2.8,2a4.6,4.6,0,0,1-1.81,1.95,28.5,28.5,0,0,1-3.84,1.53Zm-46.54.05v-.1a4.07,4.07,0,0,0-1.16,0c-.83.28-2.28.58-2.34,1-.21,1.59,1.16,1.78,2.36,1.76,2.55,0,5.1-.07,7.64-.25.58,0,1.1-.69,1.65-1.06-.56-.46-1.1-1.28-1.7-1.33C184.08,150.51,181.92,150.61,179.77,150.61Zm3.13-18.7c.34.45,1,1.07.92,1.25-.92,1.66-1.16,3.21.14,4.81a4.79,4.79,0,0,1,.55,1.53h.78c.13-.87.27-1.74.38-2.61s-.11-2,.36-2.55,1.57-.21,2.41-.27C188.86,131.07,188.13,131,182.9,131.91Zm27.19,11.62c-2,.44-4.27.3-4.85,1.24a6.12,6.12,0,0,0-.13,5c.34.75,2.78.53,4.6.8C209.85,148.09,210,146.14,210.09,143.53Zm-22.66.29-.46.37c.13,1.2.34,2.4.35,3.59,0,.4-.49.8-.75,1.2-.35-.41-.94-.79-1-1.23a13.52,13.52,0,0,1,.25-2.51,14,14,0,0,0-.05-1.44,5.36,5.36,0,0,0-1.51.1c-2.67,1.06,0,3.27-.94,4.78-.12.19.51,1.12,1,1.34,2.21,1.07,3.87,0,4-2.43a11.15,11.15,0,0,0,0-2.31A5.08,5.08,0,0,0,187.43,143.82Zm17.49-13.69c-2.69-1-14.88-.77-16,.27C193.07,131.51,203,131.42,204.92,130.13Zm6,20.9c-.61,2,.47,2.51,2,2.41s3.87.68,4.05-2.41Zm-3.26,3.11c1.16-.8,2.57-1.31,2.58-1.84,0-2.11-1.83-1.25-2.94-1.38-.82-.09-2.39-.55-2.12,1.07C205.28,152.73,206.6,153.28,207.64,154.14Zm-12.4-41.68-1.63-1.19.46,4.38a15.18,15.18,0,0,0,1.81-.18c1.1-.24,1.29-3.44.06-3.88Zm-7.15,17.81c-1.48-1.29-3.11-1-4.77-.22A4,4,0,0,0,188.09,130.27Zm16.27-13c2.46-1.44,3-2.83,1.7-4.33Z"/><path d="M177.79,181.34c-.21-.47-.28-1.16-.64-1.38a54.68,54.68,0,0,1-14.36-12.76c-.55-.69-1.79-.82-2.91-1.29a2.47,2.47,0,0,1,.16-1c.91-1.54.38-2.07-1.25-2.24-7.58-.81-10.36-7.76-9.49-13.19l9.75,11.82a75,75,0,0,0-2.62-7,5.82,5.82,0,0,0-2.64-2.13c-1.57-.79-1-1.5-.09-2.24a4.6,4.6,0,0,0,1.75-4.11c-.36-11.14,3-21,11.27-28.72,2.53-2.34,6-3.69,9.07-5.4a28.63,28.63,0,0,1,3.7-1.39c-.57,2.74-2.44,4.11-4.55,5.21a8.87,8.87,0,0,1-3.26,1.19c-6.24.52-8.58,5.28-11,10l0,0-1,3.57c-2.08,0-2,2.33-2.38,4.29-2,11.51-.77,22.37,6.25,32.17,2.72,3.8,11.37,11.05,15.89,12.89.53-4,1.85-5,6-4s7.92,2.67,11.93,3.84a65.46,65.46,0,0,0,7.27,1.48,2.31,2.31,0,0,0,2.94-1.87c.89-3,2-3.29,4.66-1.5.46.31.86.69,1.33,1,1.48.79,2.53.24,2.42-1.37-.31-4.12,1.35-7.16,4.66-9.51a23.81,23.81,0,0,0,2.94-3.11c1.56,6.4-4.18,8.58-6.7,12.61,4-1,8.64-5.9,9.08-9.56s.72-7.18,1.07-10.76l-.09.08,2.41-3.78c1.69,2.44,1.48,4.08-1.79,14.06l.54.31c1.94-3.4,3.88-6.81,5.71-10-4.53-4.89-2.54-10.4-3-15.51l.75-.18q2,5,4,10a36.46,36.46,0,0,0,1-6.31c0-1.08-1-2.34-1.91-3.2a18.74,18.74,0,0,1-5.5-12c4.69,2.57,5.62,7.32,7.16,11.72.6-4.21-.49-8-2.23-11.67a1.66,1.66,0,0,0-1.06-.72c-4.5-1-7-4.19-9.3-8.58a18.2,18.2,0,0,1,8.61,6.77c-.69-3.81-3.06-6.49-5.36-6.29-.07-.27-.3-.64-.2-.84,1.15-2.21-.28-2.92-2-3-3.75-.09-6-2.56-8.18-5.34l5.1,1.36.32-.25-3.22-2.47.58-.61,5.46,4.83c-.35-5-4.37-6.46-6.47-9.63a38,38,0,0,1,5.64,2.1c2.9,1.6,3.41,3.07,2.3,6.14a3.79,3.79,0,0,0,.85,4.21,43,43,0,0,1,10.33,21.53c.13.86,1.13,1.59,2,2.68-.43.72.78,2.73-1.56,3.29-.31.07-.48,1.07-.59,1.66-.46,2.44-.87,4.89-1.33,7.47l1.81,1.13,0,.71-2.75.51-4.31,8.69.07-.06a38.22,38.22,0,0,1-2.81,3.26c-3.67,3.43-7.41,6.77-11.13,10.14a3.93,3.93,0,0,1-.85.41l.14.9c2.32.58,4.63,1.52,7,1.66a47.07,47.07,0,0,0,8.78-.58c1.28-.17,1.83,0,2.13,1.28a43.64,43.64,0,0,0,1.51,4.46,44.74,44.74,0,0,1-5.71,1.22c-3,.26-6,.29-9,.25a6.61,6.61,0,0,1-2.27-1c5.49,1.65,10.79.85,16.18-.88L233,181.81a11,11,0,0,0-1.29,0c-7.09,1-14,.95-19.85-4a2.84,2.84,0,0,0-1.67-.72c-.57,0-1.47.33-1.64.75a39.86,39.86,0,0,0-1.22,4.14l8,4.88-4.08-2c-.41,3.21-2.81,2.7-4.79,2.4-5-.78-10-1.77-15-2.77a6.31,6.31,0,0,1-1.89-1.18c6.34,2.34,12.76,4.16,19.79,3.23-2.59-.74-3.62-2.21-2.65-4.63a6.8,6.8,0,0,0-.86-.42c-6.1-1.67-12.2-3.4-18.33-5a20.79,20.79,0,0,0-5.27-.65c-1.67,0-2.31,1.33-1.83,2.8.43,1.31-.3,3.41,2.43,3.43,2,0,4,.77,6.08,1.2l-2.26-.17c-.58,3.82-.57,4-4.34,4.47-9.27,1.27-17.79-1.12-26.14-5.51l2.77-5.13a47.88,47.88,0,0,0,19,4.36c-3.89-.41-7.8-.66-11.65-1.31a52.21,52.21,0,0,1-7-2.14c-.83,1.39-1.54,2.56-2.36,3.92,8.56,4.53,17.34,6.9,26.91,5.14a7.71,7.71,0,0,0,2.21-1.26c-1.82-.79-3.9-1-4.44-2.08A3.65,3.65,0,0,0,177.79,181.34Z"/><path class="cls-1" d="M215.29,186.85l-8-4.88a39.86,39.86,0,0,1,1.22-4.14c.17-.42,1.07-.74,1.64-.75a2.84,2.84,0,0,1,1.67.72c5.89,5,12.76,5,19.85,4a11,11,0,0,1,1.29,0l1.66,4.83c-5.39,1.73-10.69,2.53-16.18.88Z"/><path class="cls-1" d="M188.88,183.28c-2-.43-4-1.18-6.08-1.2-2.73,0-2-2.12-2.43-3.43-.48-1.47.16-2.78,1.83-2.8a20.79,20.79,0,0,1,5.27.65c6.13,1.58,12.23,3.31,18.33,5a6.8,6.8,0,0,1,.86.42c-1,2.42.06,3.89,2.65,4.63-7,.93-13.45-.89-19.79-3.23Zm-1-4.05c-1.1-.67-1.67-1.26-2.28-1.31-.44,0-.94.64-1.41,1,.49.45.93,1.14,1.5,1.29S186.79,179.76,187.9,179.23Zm.54,1.28c3.29,1.64,3.29,1.64,3.77,0l-3.13-1.11Zm5.51.19-.32,1.46,2.52,1.21.44-1.12Z"/><path d="M220.86,177c3.15-2.26,6.19-4.73,9.5-6.74s6.75-3.48,10-5.11c-1.45,3.46-3.11,7.41-7.32,9-3.82,1.48-7.88,2.32-11.84,3.44Z"/><path d="M168.5,174.1c-7.91,1.71-17.21-5-16.84-11.33Z"/><path d="M230.64,165.57c.88-.88,1.75-1.77,2.63-2.66,1.71-1.73,3.38-3.5,5.13-5.19,1.52-1.45,3.13-2.81,4.7-4.21.06,6.31-5.18,12.5-11.12,13-.39,0-.84-.66-1.27-1Z"/><path d="M242.68,135.72a10.05,10.05,0,0,1,2.59,9.57c-.87,3.91-4.83,4.67-8,6.5.57-1.48.8-3.26,1.79-4.38A15.1,15.1,0,0,0,242.68,135.72Z"/><path d="M151.16,131.5c-.38,3.54,1.43,6.24,2.87,9.14.78,1.56.66,3.56,1,5.69a7.21,7.21,0,0,1-6.1-5C147.55,137.76,148.7,134.49,151.16,131.5Z"/><path d="M164.69,166.24c-4.32-7.6-4.78-12.34-1.52-16.84C164.12,155,167.93,160.17,164.69,166.24Z"/><path d="M175.34,175.72c-4-3.29-7.21-6.94-6.75-12.42A12.9,12.9,0,0,1,175.34,175.72Z"/><path d="M237,123.16c3.65,4.77,4.1,10,1.25,13.63C236.66,132.41,234.57,128.13,237,123.16Z"/><path d="M156.87,120.44c2.83,4.92-1.57,8.82-1.36,13.28C152.13,132,152.79,125.46,156.87,120.44Z"/><path d="M158.11,153.06c-.86-5.4-.52-10,3.4-14C163.09,144.42,160.87,148.53,158.11,153.06Z"/><path d="M160.13,122.06c-1.2-2.11-1.74-4.7-.35-7,1.24-2,3.27-3.55,5-5.3l.82.4a29.71,29.71,0,0,1-1.31,4.07C163,116.85,161.57,119.36,160.13,122.06Z"/><path d="M228.82,112.85c5.33,1.08,6.92,6,4.68,11.39Z"/><path d="M164.15,128.83c.51,5.31-3.16,7.9-6.72,10.75C157.87,134.76,159.81,131.06,164.15,128.83Z"/><path d="M160.66,126.59,171,117.46c.29,5.27-4.34,8.64-10.34,9.08C160.69,126.54,160.66,126.59,160.66,126.59Z"/><path d="M176,104.75c-1,3.71-6.41,3.36-6.76,7.57a3.19,3.19,0,0,1-1.12-3.9C168.94,106.31,172.72,104.53,176,104.75Z"/><path d="M178.32,107.67c2-3.8,6.2-3,8.81-5.06C187.41,105.86,183.7,108.3,178.32,107.67Z"/><path d="M207.6,103.74a9.85,9.85,0,0,1,9.05,4.93C212.47,109.45,210.43,106.29,207.6,103.74Z"/><path class="cls-1" d="M179.08,167.9c-2.3-1.9-5-3.49-6.79-5.77-2.08-2.63-3.43-5.85-5-8.86a13.24,13.24,0,0,1-.66-2.78c2.52,0,4.68-.1,6.82.06.57,0,1.25.78,1.57,1.37a33,33,0,0,0,6.91,9c7.63,6.89,21.93,7.1,30-.34a37.46,37.46,0,0,0,5.88-7.7c.86-1.37,1.6-2.08,3.22-2,1.77.13,3.54,0,5.76,0A26.62,26.62,0,0,1,222.07,161c-9.48,12.71-25.22,16.55-39.41,9.63a22.59,22.59,0,0,1-3.47-2.6l4,1.5c.35-.66.68-1.34,1.07-2s.83-1.24,1.24-1.86l.88.38-1.27,4.53,3.71.89.94.81c.46-1.08.84-1.83,1.11-2.62.56-1.66.54-1.67,1.12-1.67-.12,1.57-.23,3.14-.34,4.72l.7.3c.38-.48.94-.91,1.11-1.46a15.93,15.93,0,0,0,.34-2.52c.2-1.3-.21-1.76-1.61-2.15a58.48,58.48,0,0,1-8.77-3.26A16.6,16.6,0,0,1,180,161L176,164.64l1.23,1.11,3.06-3.31.52.44a13.92,13.92,0,0,0-1.71,2.63A6.64,6.64,0,0,0,179.08,167.9Zm44.25-12.25,1.32-2.29L219,152l-.2.67q2.31,1.51,4.6,3l-4.8-1.67-.11.28,4.58,3.61C223.2,156.81,223.26,156.23,223.33,155.65ZM173.63,154l-3.86,2.89h3.57l-1.79,2.68,2,.61-.13,2.33.74.11,3.67-4-.52-.54-3.55,2.07,3-3.46-2.61-3a5.53,5.53,0,0,0-.13-1.79c-.08-.19-1-.2-1.43,0-1.33.55-2.61,1.22-3.92,1.85v.74a6.07,6.07,0,0,0,2.09.48A15,15,0,0,0,173.63,154Zm45.75,9-4.94-3.13-6.57,5.17-2.45.58,1.28,5.19.71-.23-1.14-4.51c.73.11,1,.08,1,.16.73,1.18,1.43,2.37,2,3.36l2-.57-.55-1.92L211,167l2,2.23c0-2.92,4-2.29,3.35-5.58,1.37,1.46,2-.2,3-.64l.89-2.83,2.1-1.55-4.1-2.75-2.61,2.73Zm-25.57,9.66h2.33l-.19-3.88,2.35,3.79v-5.36h-3.54C194.45,169,194.16,170.67,193.81,172.69Zm7.48-.11-.65-5.42c-2.33-.07-1.46,1.72-1.35,2.65C199.41,170.91,198.49,173.07,201.29,172.58Zm3.22-.73c-.67-1.9-1.27-3.59-1.86-5.28l-.8.22.42,5.4Z"/><path class="cls-1" d="M182.52,128.57c.06.18.43.75.31,1.18a2.71,2.71,0,0,1-1.12,1.55,2,2,0,0,1-1.74-.08c-.33-.23-.42-1.09-.31-1.6,1.69-8,9.4-13.54,18.17-13.23a17.49,17.49,0,0,1,16.08,14.34c0,.07-.06.14-.29.63l-8.48-.57c1.39-3.49,4.41-.83,6.09-2C201.71,121.22,192.13,121,182.52,128.57ZM197.11,120c-1.47.75-3.06,1.56-4.92,2.49h9.63C200.14,121.1,197.46,122,197.11,120Z"/><path class="cls-1" d="M210.64,142.88c-.07-1.5-.13-2.64-.2-4.25l-2.77,1.67.53-6.19-1.84-1.61-1.16,5.1-2.31,2c-.19-2.41-.36-4.42-.54-6.68-2.34,1.13-3,2.42-2.89,4.31,0,.53-.56,1.12-1,1.86-1.83-1.91.91-4.72-2.55-6.09-.33,2.07-.63,4-.95,6-1.67,0-1.54-1.23-1.72-2.38a27.21,27.21,0,0,0-1-3.36c-3.42,1.14-1.35,3.5-2.08,5.25l-2.84.13a21.62,21.62,0,0,0,1.65-3.24,21.93,21.93,0,0,0,.44-3.56c2.6-1,3.65-.68,4.37,1.38,1.59-2.46,8-2.55,10.59-.1,1.47-2.72,3.69-1.54,5.46-1.31-.07,1.07-.46,2.12-.1,2.73a3,3,0,0,0,2.24,1q6.53.16,13.05.09c1.66,0,2.42.62,2.5,2.27s.3,3.19.48,5Zm6.87-.92c.08-1.72.18-3.24.18-4.75,0-.28-.35-.64-.63-.81a.93.93,0,0,0-.82.1,3.41,3.41,0,0,0,.38,5.29c-4,.23-1.44-3-2.38-4.16V142Zm6.18-5.57c-.75.4-1.41.53-1.49.83a20,20,0,0,0-.58,3.45c0,.11,1,.47,1,.42a16.23,16.23,0,0,0,1.37-2.85C224.16,137.82,223.86,137.25,223.69,136.39Z"/><path class="cls-1" d="M183.05,156.06c2.59,0,5-.09,7.33.08.55,0,1.1.91,1.55,1.48,1.46,1.85,2.88,3.73,4.31,5.6l1,0a29.63,29.63,0,0,1,2.5-4.45c.89-1.12,2.16-2.39,3.44-2.64,2.23-.43,4.6-.12,6.94-.12-.78,4.17-6.78,8.15-12.18,8.67C190.92,165.38,184.05,160.32,183.05,156.06Z"/><path class="cls-1" d="M182.73,135.54c0,2.06.09,3.89-.06,5.7a1.81,1.81,0,0,1-1.32,1.16c-4.86.13-9.74.15-14.61.18-.29,0-.83-.16-.83-.26a32.86,32.86,0,0,1,.14-5.16,2.28,2.28,0,0,1,1.55-1.55C172.61,135.49,177.62,135.54,182.73,135.54Zm-9.45,6.67v-5.78c-3.56-.3-3.82.09-3.25,4.76,0-1,.08-1.94,0-2.92-.06-1.25.07-2.24,1.74-1.62C169.8,139,171.2,140.5,173.28,142.21Zm4.22-5.88c.2.22.61.51.56.66-.21.64-.78,1.24-.78,1.86,0,1.19-.46,3.6,1.89,1.17l.49.58v-4.27Z"/><path d="M179.08,167.9a6.64,6.64,0,0,1,0-2.39,13.92,13.92,0,0,1,1.71-2.63l-.52-.44-3.06,3.31L176,164.64,180,161a16.6,16.6,0,0,0,3.38,2.62,58.48,58.48,0,0,0,8.77,3.26c1.4.39,1.81.85,1.61,2.15a15.93,15.93,0,0,1-.34,2.52c-.17.55-.73,1-1.11,1.46l-.7-.3c.11-1.58.22-3.15.34-4.72-.58,0-.56,0-1.12,1.67-.27.79-.65,1.54-1.11,2.62l-.94-.81-3.71-.89,1.27-4.53-.88-.38c-.41.62-.85,1.23-1.24,1.86s-.72,1.34-1.07,2l-4-1.5Z"/><path class="cls-1" d="M191,151c-.89-.31-1.87-.47-1.88-.67a20.93,20.93,0,0,1,.11-5.71c.33-1.4,1.79-1.86,3.42-1.87a78,78,0,0,1,8.79-.1l-3,.19v.2h5.16l.07.48-1.93.34c2.68.38,2.75.62,2.59,5.22-.06,1.76-.93,2.1-2.47,1.91a33.15,33.15,0,0,0,.29-4.06c0-.53-.69-1-1.06-1.55-.46.51-1.13,1-1.32,1.55s.34,1.44.13,2a9.13,9.13,0,0,1-1.47,2.11l-.74-.39a23.08,23.08,0,0,0-.06-3.63c-.1-.65-.76-1.21-1.18-1.81a8.11,8.11,0,0,0-1.13,1.93c-.19.71.25,1.63,0,2.25s-1.17,1.22-1.78,1.82l-.64-.51a28.94,28.94,0,0,0,.38-3.8c0-.53-.59-1.05-.92-1.57-.5.46-1.37.87-1.45,1.39A25.59,25.59,0,0,0,191,151Z"/><path class="cls-1" d="M169.49,143.94l2.57.14c-.41,1.45-.83,2.9-1.28,4.49l-.36-2.17-.26.07c.23.83.21,2.12.73,2.4,1.11.59,2.25.37,2.41-1.37.11-1.23.27-3.38.79-3.51a25.66,25.66,0,0,1,5.76-.16v.65l-2.6.41-.32,4h2.12c.89-1.44-.88-4.43,2.5-4,2.4.31.73,2.16,1.24,3.08l-2-1.72-.6.39-.17,2.81,2.34.46a5,5,0,0,1-.88.24c-2.87,0-5.73.06-8.6.06-3.77,0-4.44-.83-3.77-4.62C169.25,145.05,169.36,144.53,169.49,143.94Z"/><path class="cls-1" d="M226.31,150.56H210.94a28.5,28.5,0,0,0,3.84-1.53,4.6,4.6,0,0,0,1.81-1.95c.51-1.18.4-2.79,2.8-2l-.33-.81h-7.15l0-.75c4.85.24,9.79-.57,14.52,1v.79c-.41.09-.81.19-1.22.27s-.74.13-1.21.21v3.85l2.32.54ZM222.65,149v-4.32l-2.6.12C220.74,146.5,219,149.11,222.65,149Zm-3.82-2.21-.9.14v2.83c.47-.23,1.34-.44,1.35-.68A8.85,8.85,0,0,0,218.83,146.8Z"/><path class="cls-1" d="M179.77,150.61c2.15,0,4.31-.1,6.45.06.6.05,1.14.87,1.7,1.33-.55.37-1.07,1-1.65,1.06-2.54.18-5.09.23-7.64.25-1.2,0-2.57-.17-2.36-1.76.06-.44,1.51-.74,2.34-1a4.07,4.07,0,0,1,1.16,0Z"/><path class="cls-1" d="M176.25,127.08a1.89,1.89,0,0,0,.21.09c1.57.52,3,1.13,2,3.55l-3-.54-3.3.2-3.27-1c.5-1.68.49-1.68,3.25-1.13a25.87,25.87,0,0,0,4.12.58L170,127.29c.33-2,1.55-1.4,2.62-1.16Z"/><path class="cls-1" d="M182.9,131.91c5.23-.93,6-.84,5.54,2.16-.84.06-2-.17-2.41.27s-.25,1.68-.36,2.55-.25,1.74-.38,2.61h-.78A4.79,4.79,0,0,0,184,138c-1.3-1.6-1.06-3.15-.14-4.81C183.92,133,183.24,132.36,182.9,131.91Z"/><path class="cls-1" d="M210.09,143.53c-.14,2.61-.24,4.56-.38,7.07-1.82-.27-4.26,0-4.6-.8a6.12,6.12,0,0,1,.13-5C205.82,143.83,208.12,144,210.09,143.53ZM207.44,145l-1.29-.16c-.16,1.28-.36,2.55-.43,3.83,0,.23.5.72.71.69s.94-.41,1-.68C207.5,147.47,207.44,146.24,207.44,145Z"/><path class="cls-1" d="M105.31,172.88a5.25,5.25,0,0,1,.83,1.46,11.15,11.15,0,0,1,0,2.31c-.09,2.44-1.75,3.5-4,2.43-.46-.22-1.08-1.15-1-1.34.94-1.51-1.73-3.72,1-4.77a5,5,0,0,1,1.51-.11,11.6,11.6,0,0,1,0,1.44,14.4,14.4,0,0,0-.24,2.51c0,.44.64.82,1,1.23.26-.4.75-.8.75-1.2,0-1.19-.22-2.39-.35-3.58Z"/><path class="cls-1" d="M204.92,130.13c-1.89,1.29-11.85,1.38-16,.27C190,129.36,202.23,129.08,204.92,130.13Z"/><path class="cls-1" d="M218.37,130.49h-3.5l-.1-.6,3.74-1.18-.07,0c1.51-.25,3-.6,4.54-.7.57,0,1.18.46,1.78.72l-.21.75-6.25,1Z"/><path class="cls-1" d="M210.9,151h6c-.18,3.09-2.43,2.3-4.05,2.41S210.29,153.06,210.9,151Z"/><path class="cls-1" d="M218,125.29c1.4-.29,2.72-2.21,4.51-.2l-2.65,1.59-4.4,1.06H214l-.17-.48,2.09-1.39Z"/><path class="cls-1" d="M176.25,127.08l-3.64-1-1.1-1.64a18.84,18.84,0,0,1,2-.15,7.83,7.83,0,0,1,1.34.23l1.67.54,3.06,2-.19.57Z"/><path class="cls-1" d="M218,125.29l-2.06.58-2.64.37-.21-.72,5.05-2.85-.07.06,2.73-.16.11.71Z"/><path class="cls-1" d="M215.41,127.74l4.4-1.06c1.24-.23,2.59-1.62,3.9.51l-5.27,1.56.07,0-4,.37-.59-.75Z"/><path class="cls-1" d="M176.5,125.11l-1.67-.54-2.21-1.15-.05-.69c.68-.11,1.44-.46,2-.27,1.72.58,3.37,1.37,5,2.08l-.09-.07.67,1.31a5.35,5.35,0,0,1-1.61.18A13.11,13.11,0,0,1,176.5,125.11Z"/><path class="cls-1" d="M181.17,121.38l1.16,2.23-5.15-2.24-1.07-.93c-.27-1.36.34-1.79,1.6-1.51Z"/><path class="cls-1" d="M207.64,154.14c-1-.86-2.36-1.41-2.48-2.15-.27-1.62,1.3-1.16,2.12-1.07,1.11.13,3-.73,2.94,1.38C210.21,152.83,208.8,153.34,207.64,154.14Z"/><path class="cls-1" d="M212.73,123.49c-1.36.18-1.7-.27-.68-1.29s2-1.82,3-2.72l.09,0,2.09-.11-.29,1.81Z"/><path class="cls-1" d="M172.21,130.38l3.3-.2.92,1h-8.34v-.69C169.37,129.56,170.8,130.12,172.21,130.38Z"/><path class="cls-1" d="M212.73,123.49l4.25-2.35,2,0c-.31.54-.63,1.07-.95,1.61l.07-.06c-1.46.62-2.9,1.25-4.36,1.85C212.59,125,212,124.84,212.73,123.49Z"/><path class="cls-1" d="M176.11,120.44l1.07.93,4.45,3-2.08.1.09.07-6.09-3.33Z"/><path class="cls-1" d="M195.24,112.46l.7-.87c1.23.44,1,3.64-.06,3.88a15.18,15.18,0,0,1-1.81.18l-.46-4.38Z"/><path class="cls-1" d="M218.3,130.54l6.95-.37.06.92c-2.6.83-5.34.22-8.66.39l1.72-1Z"/><path class="cls-1" d="M181.16,121.38l-3.45-2.45c.13-1.11.5-1.92,1.72-1s2.62,2.2,3.92,3.31l-.66.89Z"/><path class="cls-1" d="M215.18,119.44l-.09,0L211,122.34l-.59-.69,2.91-2.81c.06-.13.13-.27.19-.41l2-.36Z"/><path class="cls-1" d="M188.09,130.27a4,4,0,0,1-4.77-.22C185,129.28,186.61,129,188.09,130.27Z"/><path class="cls-1" d="M213.48,118.43c-.06.14-.13.28-.19.41L210,121.07l-.32-.28.46-1.09-.08.08,3.44-3.31.66.48Z"/><path class="cls-1" d="M208.72,115.94l1.87-1.17.39.57c-.43.85-.86,1.69-1.3,2.53l.08-.08-2.1,1.51-.45-.28c.29-.78.59-1.56.88-2.33Z"/><path class="cls-1" d="M185.18,119l-2.6-3.87.71-.65,2,1.93,1,1c.37,1.08.19,1.73-1.15,1.48Z"/><path class="cls-1" d="M186.26,117.48l-1-1a2.86,2.86,0,0,1-.31-.84,16.91,16.91,0,0,1,.1-1.74,7.25,7.25,0,0,1,1.34.93c.57.68,1,1.46,1.53,2.2l-.07-.07-.32,1.13Z"/><path class="cls-1" d="M208.72,115.94l-.63.75-1.64,1.63-.58-.38a23.88,23.88,0,0,1,1.25-2.77,6.23,6.23,0,0,1,1.41-1.22Z"/><path class="cls-1" d="M180.56,116.12l3.55,4.38-.46.57-4.45-3.78c.58-.5,1-.83,1.36-1.15C180.57,116.16,180.56,116.12,180.56,116.12Z"/><path class="cls-1" d="M209.76,117.79l-.08.08,2.4-2.27.52.57-2.51,3.61.08-.08-2.35.48Z"/><path class="cls-1" d="M185.11,119c-.08,1.43-.67,1-1.32.37l-3.23-3.2s0,0,0,0c.84-.53,1.53-.71,2.24.35a19.59,19.59,0,0,0,2.38,2.54Z"/><path class="cls-1" d="M187.92,117l-1.44-3.55,1-.47,2.19,4.36-1.82-.41Z"/><path class="cls-1" d="M204.36,117.23l1.7-4.33C207.32,114.4,206.82,115.79,204.36,117.23Z"/><path class="cls-1" d="M177.79,181.34a3.65,3.65,0,0,1,3.78,2.23c.54,1.05,2.62,1.29,4.44,2.08a7.71,7.71,0,0,1-2.21,1.26c-9.57,1.76-18.35-.61-26.91-5.14.82-1.36,1.53-2.53,2.36-3.92a52.21,52.21,0,0,0,7,2.14c3.85.65,7.76.9,11.65,1.31ZM174.86,186l1.66-1.33c-.51-.42-1-1.06-1.56-1.17-.38-.07-.91.61-1.37,1Zm-2.43-1.53.08-.69c-.5-.3-1-.86-1.48-.84s-.89.63-1.34,1c.38.37.71,1,1.14,1S171.89,184.64,172.43,184.45Zm7.94.49.32-.59c-.58-.37-1.23-1.08-1.74-1s-.85,1-1.27,1.54l.52.36Z"/><path d="M187.9,179.23c-1.11.53-1.74,1.09-2.19,1s-1-.84-1.5-1.29c.47-.36,1-1,1.41-1C186.23,178,186.8,178.56,187.9,179.23Z"/><path d="M188.44,180.51l.64-1.14,3.13,1.11C191.73,182.15,191.73,182.15,188.44,180.51Z"/><path d="M194,180.7l2.64,1.55-.44,1.12-2.52-1.21Z"/><path d="M219.36,163c-1,.42-1.65,2.08-3,.62.69,3.29-3.37,2.66-3.35,5.58L211,167l-.28.16.55,1.92-2,.57c-.59-1-1.29-2.18-2-3.36-.05-.08-.28,0-1-.16l1.14,4.51-.71.23-1.28-5.19,2.45-.58,6.57-5.17,4.94,3.13Z"/><path d="M219.38,163l-3.75-4.45,2.61-2.73,4.1,2.75-2.1,1.55c-.3.93-.6,1.88-.89,2.84Z"/><path d="M174.2,153.71l2.61,3-3,3.46a.57.57,0,0,1-.22,0l-2-.61,1.79-2.68h-3.57l3.86-2.89Z"/><path d="M193.81,172.69c.35-2,.64-3.68.95-5.45h3.54v5.36L196,168.81l.19,3.88Z"/><path d="M174.2,153.71l-.57.28a15,15,0,0,1-2.83,1,6.07,6.07,0,0,1-2.09-.48v-.74c1.31-.63,2.59-1.3,3.92-1.85.43-.17,1.35-.16,1.43,0A5.53,5.53,0,0,1,174.2,153.71Z"/><path d="M201.29,172.58c-2.8.49-1.88-1.67-2-2.77-.11-.93-1-2.72,1.35-2.65Z"/><path d="M173.57,160.17a.57.57,0,0,0,.22,0l3.54-2.07.52.54-3.67,4-.74-.11Z"/><path d="M223.41,155.73l-4.61-3,.2-.67,5.65,1.35-1.32,2.29Z"/><path d="M204.51,171.85l-2.24.34-.42-5.4.8-.22C203.24,168.26,203.84,170,204.51,171.85Z"/><path d="M223.33,155.65c-.07.58-.13,1.16-.26,2.3l-4.58-3.61.11-.28,4.8,1.67Z"/><path d="M197.11,120c.35,2,3,1.1,4.71,2.49h-9.63C194.05,121.56,195.64,120.75,197.11,120Z"/><path d="M217.51,142h-3.27v-4.33c.94,1.18-1.58,4.39,2.38,4.16a3.41,3.41,0,0,1-.38-5.29.93.93,0,0,1,.82-.1c.28.17.63.53.63.81C217.69,138.72,217.59,140.24,217.51,142Z"/><path d="M223.69,136.39c.17.86.47,1.43.33,1.85a16.23,16.23,0,0,1-1.37,2.85s-1.05-.31-1-.42a20,20,0,0,1,.58-3.45C222.28,136.92,222.94,136.79,223.69,136.39Z"/><path d="M173.28,142.21c-2.08-1.71-3.48-3.22-1.47-5.56-1.67-.62-1.8.37-1.74,1.62,0,1,0,1.95,0,2.92-.57-4.67-.31-5.06,3.25-4.76Z"/><path d="M177.5,136.33h2.16v4.27l-.49-.58c-2.35,2.43-1.9,0-1.89-1.17,0-.62.57-1.22.78-1.86C178.11,136.84,177.7,136.55,177.5,136.33Z"/><path d="M222.65,149c-3.68.1-1.91-2.51-2.6-4.2l2.6-.12Z"/><path d="M218.83,146.8a8.85,8.85,0,0,1,.45,2.29c0,.24-.88.45-1.35.68v-2.83Z"/><path d="M207.44,145c0,1.23.06,2.46-.05,3.68,0,.27-.6.62-1,.68s-.73-.46-.71-.69c.07-1.28.27-2.55.43-3.83Z"/><path d="M174.86,186l-1.27-1.54c.46-.35,1-1,1.37-1,.58.11,1,.75,1.56,1.17Z"/><path d="M172.43,184.45c-.54.19-1.11.58-1.6.49s-.76-.67-1.14-1c.45-.35.88-1,1.34-1s1,.54,1.48.84Z"/><path d="M180.37,184.94l-2.17.32-.52-.36c.42-.55.77-1.46,1.27-1.54s1.16.62,1.74,1Z"/></g></g></svg>