<?xml version="1.0" encoding="utf-8"?>
<!-- Generator: Adobe Illustrator 22.0.1, SVG Export Plug-In . SVG Version: 6.00 Build 0)  -->
<svg version="1.1"
	 id="svg2484" inkscape:output_extension="org.inkscape.output.svg.inkscape" inkscape:version="0.46" sodipodi:docname="StatistiÃ„ki regioni Republike Srbije.svg" sodipodi:version="0.32" xmlns:cc="http://creativecommons.org/ns#" xmlns:dc="http://purl.org/dc/elements/1.1/" xmlns:inkscape="http://www.inkscape.org/namespaces/inkscape" xmlns:rdf="http://www.w3.org/1999/02/22-rdf-syntax-ns#" xmlns:sodipodi="http://sodipodi.sourceforge.net/DTD/sodipodi-0.dtd" xmlns:svg="http://www.w3.org/2000/svg"
	 xmlns="http://www.w3.org/2000/svg" xmlns:xlink="http://www.w3.org/1999/xlink" x="0px" y="0px" viewBox="0 0 507.1 368.4"
	 style="enable-background:new 0 0 507.1 368.4;" xml:space="preserve">
<style type="text/css">
	.st0{fill:#E8E8E8;}
	.st1{fill:none;stroke:#353535;stroke-width:2;stroke-linejoin:round;stroke-miterlimit:3.8637;}
	.st2{fill:#B5B5B5;}
	.st3{fill:#054F88;}
	.st4{fill:#1980D2;}
	.st5{fill:#282828;}
	.st6{fill:#B5B5B5;fill-opacity:0;}
	.st7{fill:#1980D2;fill-opacity:0;}
</style>
<defs>
	
	
		<inkscape:perspective  id="perspective2492" inkscape:persp3d-origin="372.04724 : 350.78739 : 1" inkscape:vp_x="0 : 526.18109 : 1" inkscape:vp_y="0 : 1000 : 0" inkscape:vp_z="744.09448 : 526.18109 : 1" sodipodi:type="inkscape:persp3d">
		</inkscape:perspective>
	
		<inkscape:perspective  id="perspective3190" inkscape:persp3d-origin="372.04724 : 350.78739 : 1" inkscape:vp_x="0 : 526.18109 : 1" inkscape:vp_y="0 : 1000 : 0" inkscape:vp_z="744.09448 : 526.18109 : 1" sodipodi:type="inkscape:persp3d">
		</inkscape:perspective>
	
		<inkscape:perspective  id="perspective2435" inkscape:persp3d-origin="372.04724 : 350.78739 : 1" inkscape:vp_x="0 : 526.18109 : 1" inkscape:vp_y="0 : 1000 : 0" inkscape:vp_z="744.09448 : 526.18109 : 1" sodipodi:type="inkscape:persp3d">
		</inkscape:perspective>
</defs>
<sodipodi:namedview  bordercolor="#666666" borderopacity="1.0" gridtolerance="10000" guidetolerance="10" id="base" inkscape:current-layer="layer1" inkscape:cx="378.18391" inkscape:cy="570.91046" inkscape:document-units="px" inkscape:pageopacity="0.0" inkscape:pageshadow="2" inkscape:window-height="1024" inkscape:window-width="1680" inkscape:window-x="0" inkscape:window-y="0" inkscape:zoom="0.7" objecttolerance="10" pagecolor="#ffffff" showgrid="false">
	</sodipodi:namedview>
<path id="path10" class="st0" d="M108.3,357.3c0-1.2-0.8-2.2-1.1-3.2h0.5c0.5-0.4,0.4-1.4,1.4-1c0.3-0.5,0.1-0.3,0.6-0.7
	c0.4-0.3,0.6-2.7,0.4-3.1c-0.3-0.5-0.6-0.5-0.9-1.3c-0.2-0.8,0-1.7-0.7-2.4c0-3-0.8-1.9-1.5-3.1c-0.4-0.6-0.6-1.3-0.9-1.9
	c-0.1-0.1,0.6-0.8,0.6-1.2c-0.8-1.2,0.2-1.1,0.1-1.9c0-0.7-1.1-1.3-0.5-2.1c-0.2-0.4-0.6-0.6-0.9-1c0.1-0.2,0.1-0.4,0-0.6
	c-0.7-0.9-0.7-3-1.2-3.6c-0.3-0.4-0.4-0.5-0.5-1c-1.5-0.5-0.4-1.1-1.4-1.6c-0.3-0.8-0.7-0.3-1-1.4c-0.4-0.3-0.8-0.6-1.2-1
	c-0.1-0.1-0.6-0.1-0.8-0.3l-0.8-0.1l-0.2-0.4c-0.4-0.1-0.9,0-1.2-0.3c-0.2-0.2-0.3-1.3-0.7-1.1l-0.2,0c-0.2-0.3-1.7-0.7-2-0.8
	c0.1-0.1,0.1-0.4,0.1-0.6c-0.2-0.2-0.3-0.4-0.5-0.6c-0.3-0.1-0.3-0.2-0.4-0.3c-1-0.3-1.4,1.5-2.2,0.8c-0.1-0.1-0.3-0.1-0.4-0.4
	c-0.5-0.3-1.8,0.8-2.2,0c-0.2-0.1-0.4,0-0.6-0.2c0.1-0.7-0.1-1.5-0.7-1.8c0.2-0.2,0.5-0.3,0.7-0.5c0-0.4,0-0.8,0.1-1.2
	c-0.3-0.4-0.1-0.6-0.3-1c-0.3-0.1-1.9-1.5-1.9-1.7c0.2-0.1,0.2-0.4,0.3-0.6c0.1-0.4,0.9-0.2,0.8-1c0-0.3-0.4-1-0.5-1.3
	c-0.6-0.1-0.5-0.7-0.7-0.9c-0.8-0.6-1,0-0.4-1.1c0.1-0.3-0.6-0.8-0.8-0.9c-0.3-0.3-0.1-0.8-0.2-1.1c-0.4-0.3-0.6-0.5-0.8-1
	c0.1-0.1,0.1-0.4,0-0.6c-0.8-0.3-3-1.8-3.9-2.2c-0.2-0.5-0.3-0.7-0.6-1.1c0-0.4-0.3-0.5-0.6-0.8c-0.2-0.5,0.5-1.4,0.4-1.8
	c-0.1-1.7-1.7-2.7,0-4.2c0.4-0.3,0.1-0.8,1.3-1.6l0.1-0.5c-0.1-0.1-0.3-0.1-0.5-0.1c-0.2,0-0.6-0.3-0.6-0.5c-1.3-0.2-2-1.3-2.5-1.4
	c-0.5-0.1-1.9,0-2.7-0.3l0.1-0.5c-1.2,0.1-0.7-0.5-1-1.2l-0.5-0.1c0.1-0.4,0-0.5-0.3-0.8l0.9-0.3c-0.2-0.5,0-0.6,0.1-1.2
	c-0.2-0.1-0.3-0.3-0.5-0.5c0.2-1.2,1.2-0.6,1.9-2.1l0.3,0.1l0.4-0.2c0.5,0.3,1.2-0.9,2.2-1.2c0.3,0.1,0.5,0.5,0.9,0.6
	s1.2,0.3,1.4,0.4c0.2,0.1,0.2,0.4,0.4,0.5c0.5,0.3,0.3-0.2,0.8-0.1c0.5,0.1,1,0.6,1.4,0.8c0.5,0,1-0.1,1.5-0.2l0.6-0.1
	c0.3,0.1,0.5,0.2,0.9,0.2c0-0.3,0.3-1.4,0.5-1.5c1.2,0.9,0.5-0.3,0.3-1c0.8,0.2,1.2-0.4,1.6-1l0-0.4c0.3-0.2,0.6-0.8,0.8-0.9
	c0.7-0.3,1.4-0.9,2.2-0.9c0,0.3,0.6,0.6,0.8,0.6c0.2-0.2,0.6-0.5,0.8-0.6l0-0.3l0.6-0.5c0.4,0,0.6,0,0.8,0.3c0.2,0,0.5,0,0.8,0v-0.2
	c-0.2-0.1-0.1-0.4-0.2-0.6c-0.6-0.4-0.3-0.6-0.4-1.1c0-0.4-0.4-0.8-0.3-1.2c0.1-0.7,0.4-1.5,0.4-2.2c0.1-0.7-0.6-1.4-0.1-2.1
	c-0.3,0-0.7,0.2-0.9,0.1c0-0.1-0.1-0.3-0.2-0.4c-1.1,0-0.7,1.4-2.4-0.2c-0.7,0-1-0.4-1.5-0.6c-0.6-0.4-1.4-0.3-2.1-0.6
	c-0.4-0.3-0.5-0.9-0.9-1c-0.4-0.1-0.5,0.3-1.3-0.4c-0.6-0.5-0.6-0.8-1.5-0.9l-0.1-0.3h-0.3c0,0-0.8-0.1-1.1,0.1
	c-0.2,0.4-0.7,0.6-0.8,0.9c-0.3,0-0.4-1-1.3-0.6c-0.2,0-0.2,0-0.3-0.2l-0.4-0.1c0.2-0.9-0.4-1-0.9-1.5c-0.4,0-1.8,0.8-2.1,0.6
	c-0.1-0.5,2.1-1.9,2.2-2.2l-0.2-0.4c-0.4-0.1-0.7,0-1.1-0.1c-0.3-0.1-0.5-0.4-0.9-0.4c-2.3-1.6-2.7-1.4-4-4.1
	c-0.1-0.3-0.1-0.7-0.3-1c-0.3,0.1-0.5,0.4-0.9,0.5c-0.5,0.1-3.6-0.6-4.3-0.8c-0.4-0.1-0.6-0.5-1-0.6c-0.7-0.1-1,0.5-1.3,0.4
	c-0.4-0.2-0.2-1.2-1.8-1.9l-0.2-0.5c-0.3-0.2-1.1-0.7-1.2-1c0.1-0.1,0.2-0.3,0.2-0.4c0.1-2.1-0.9-1-1.9-1.4
	c-0.4-0.2-0.6-0.5-1.1-0.6c-1.7-0.1-4.4,0.5-5.8-0.5c-0.4-0.3-0.3-1.3-0.4-1.7c-0.1-0.5-2.4-3.9-2.7-4c-1-0.6-1,0.7-3.2-1.4
	c-1.5-1.4-0.4-3.4-0.8-4.9c-0.5-0.4-1.2-0.5-1.5-0.8c-0.2-0.2-0.3-0.7-0.5-1c-0.4-0.4-0.5,0-0.9-0.8c0-0.3,0.2-0.5,0.1-0.8
	c-0.1-0.4-0.4-0.6-0.5-1c0-0.3,0-0.8-0.3-1c-0.6-0.5-1.5-0.4-2.3-0.6c-0.6-0.2-1.3-1.4-1.9-1.8c-1-0.6-2.1-1.3-3-1.9
	c-0.1-0.1-0.5,0.1-0.8,0c-0.5-0.3-1-0.6-1.4-0.9l-0.2,0c-0.6-0.6-1.5-0.8-2.1-1.4c-0.3-0.3-0.5-0.7-0.8-0.9l0.2-1.5
	c0.1-0.5-0.8-0.6-0.1-2.1c1.9,0.2,0.4-2.3,1.2-3.5c0-0.2-0.1-1.8,0.2-1.9l0.3,0.2c0.4-0.9,0.9-0.4,1.2-0.8c0.4,0.4,0.7,0.3,0.6-0.3
	c0.3,0,0.4,0.8,0.6,0.9c0.3,0.2,2,0.1,2.2-0.1c0.2-0.2,1-1.4,1.3-1.2c0.2-0.1,0.2-0.3,0.4-0.5c0.1,0.1,0.1,0.3,0.1,0.5
	c0.2,0.2,0.5,0.1,0.7,0.4c-0.1,1.4,0.6,0.4,1.1,1.1c-0.1,0.2-0.5,1.2,0,0.6l0.2,0.1l0.1,1.3c-0.7,0.6,0,1.1,0.4,1.8
	c0.3-0.1,0.6-0.5,0.9-0.7c0.3-0.8,0.2-0.8,1-1.2c0-0.3,0.2-0.8,0.5-0.9c0.3-0.8,2.5,1,2.7,0.5c0.4-0.6,0.3-0.5,0.9-0.6
	c0.5-1.1-0.3-0.5-0.8-1.1c-0.1-0.1-0.4-1.1-0.5-0.5c-0.2-0.3,0.2-1.2,0.4-1.5l0-0.1l-0.4-0.1c-0.2-0.3,0.1-0.5-0.3-1
	c0.3-0.4,0.7-1,0.8-0.1c0.5,0.1,0.4-0.4,0.4-0.7c0.2-0.9,0.5-1.8,0.4-2.7c0-0.8-0.7-1.7-0.6-2.6c0-0.2,0.2-0.8,0.1-0.9
	c-0.3-0.5-0.9-0.9-1.5-1.2c-0.1-0.5-0.1-1.2-0.6-1.4c-0.6-1.1-0.3-1.9-2.2-2.1c0-0.3,0-1-0.4-1.1l-0.2-0.4c-0.1-0.2-0.3,0.2-0.5,0.1
	c-0.3-0.1-0.6-0.3-1-0.4c-0.4-1-0.6-1.2-1.4-2.2c-0.1-0.1,0.2-0.6,0.1-0.8c-0.4-0.2-1.2-0.6-1.3-1.2c-0.3-0.3-1-1.3-1.3-1.3l0.3-0.6
	l-1.3-1c0.1-0.3,0.3-0.5,0.1-0.8c-0.2-0.4-0.7-0.5-0.9-0.9c-0.3-0.4-0.1-0.9-0.4-1.2c-0.1-0.2-0.5-0.4-0.5-0.6
	c-0.4-0.3-0.6-0.7-0.8-1.1c0.2-0.4-0.8-0.6-1-0.8l-0.1-0.3l0.1-0.3c0.3-0.5-2.3-4-0.8-4.6c0.7-0.3,1,1.1,1.9,1.3
	c0.6,0.1,1.4-0.1,1.9,0.1c0.5,0.2,1.4,1.1,1.7,1.2c0.3,0.1,0.9,0,1.1,0.1c0.2,0.1,0.8,1.6,1.9,1.8c0.5,0.1,0.6-0.6,0.9-0.6
	c0.3,0.2,0.8,0.6,1.1,0.7c0.3,0.1,5.5,0.3,6,0.3c0.2,0,0.5-1.3,0.8-1.5c0.4-0.4,1-0.7,1.6-0.9c0.1-0.4-0.4-0.9-0.2-1.1
	c0.3-0.3,1-0.2,1.4-0.4c0.2-0.1,0.3-0.4,0.5-0.5c0.5-0.3,1.3,0,1.5-0.7c0.1-0.5-0.5-0.9-0.4-1.4c0.1-0.3,0.3-0.5,0.4-0.8l0.1-0.3
	c0.1-0.7-0.6,0-0.9-0.1c-0.2-0.1,0-1-0.1-1.2c-0.1-0.4-1-0.7-1.3-0.3c-0.3,0.3,0.3,1.7-0.4,1.8c-0.5,0-0.7-1.4-1.1-1.8
	c-0.6-0.7-1.8-0.4-2.5-0.9c-1.3-0.9-0.8-2-1.2-2.8c-0.1-0.3-1.2,0.3-1.4-0.5c-0.3-0.9,1.2-1.2,0.7-1.9c-0.5-0.7-1.4-0.1-1.7,0.5
	c-0.2,0.5-0.1,0.9-0.8,0.5c-2.2-1.3-1.1-3.2-2.4-3l-0.8-0.6c-0.3-0.2-1.4-0.2-1.4-0.4l-0.2-1.4c0-0.1,0.3-0.3,0.2-0.6
	c-0.3-0.8-1.6-0.5-0.6-1.9c-0.5-0.8-0.1-0.8-1-1.4c-0.4-0.3,0.1-1.5-0.4-1.8c-0.6-0.4-1,0.3-1.7,0.1c-0.3-0.1-0.7-0.6-1-0.5
	c-0.4,0.5-1.5,1.3-2.2,1.2c-1.7-0.1-0.9-1.9-1.6-2.3c-1.3-0.7-1.4,1.4-2.7,0.2c-0.5-0.4-0.6-1.1-1-1.5c-0.3-0.3-1-0.5-1.1-1
	c-0.1-0.5,0.5-1.2,0.3-1.7c-0.2-0.4-1,0.1-1.2-0.5l-0.3-0.9c0.1-0.4,1.1-0.6,0.2-1c-0.9,0.9-0.3-2.1-0.2-2.2
	c0.4-0.7,1.8-0.9,2.1-1.4c0.1-0.1,0.1-1.8,0.1-2.1c0-1-0.1-1.7-0.5-2.7c-0.1-0.3-0.4-0.5-0.4-0.8c-0.1-0.6,0.5-1.2-0.6-1.4
	c-0.4-0.3,0.1-0.7,0.3-1c0.2-0.4,0-0.9,0.3-1.2c0.5-0.4,0.6,0.3,1,0.3c0.3,0,0.8-0.1,1.2-0.1c0.4-0.3,0-0.8,0.4-1.1
	c0.5-0.4,1.7-1.3,1-2.1c-0.2-0.2-0.6-0.1-0.7-0.3c-0.1-0.3,0.8-1.5,1-1.7c0.6-0.5,1.4-0.2,1.6-0.6c0.1-0.4-0.6-1.6-0.1-1.6
	c1.8,0,0.5-0.3,0.9-1.3c0.1-0.3,0.6,0,0.5-0.8c0.2-0.3,0.4-0.6,0.3-1c0.2-0.8,0.7-0.9,1.3-1.4c0.3-0.2-0.8-0.9-0.2-1.3
	c0.4-0.3,1.5,0.6,1.5-0.4c-0.1-1,0.5-0.6,0.8-1.3c0,0,0.7-1.7,0.9-1.8c0.1-0.3-0.4-0.4-0.1-0.7c0.1-0.2,0.6,0.1,0.9,0
	c0.5-0.3-0.3-0.6-0.4-0.9l0.4-0.5c-0.4-0.2-0.9-0.6-0.8-1.1c0.1-0.6,0.6,0.1,0.9-0.3c0.2-0.3-0.3-0.6-0.2-0.9
	c0.1-0.3,0.5-0.2,0.6-0.5c0-0.1-0.1-1.8-0.1-2.3c0-0.3,0.5-0.4,0.4-0.6c-0.1-0.2-0.6-0.1-0.5-0.5c0.1-0.3,0.9-0.3,1-0.8
	c-0.1-0.3,0.5-0.2,0.6-0.6c0.1-0.3-0.4-0.7-0.5-1c-0.2-0.5,0.5-0.6,0.5-1.1c0-0.3-0.5-0.5-0.4-0.6l0.1-0.3c-1.1-0.8-0.7,0-1.2-0.3
	c-1.9-0.9-1.7-2.2-4.1-1.2c-0.4-0.2-0.8-0.7-1.3-0.7c-0.9-0.1-1.5,1.7-2.4,1.4c-0.5-0.2-0.2-1.6-1.4-2c-1.2-0.4-1.4,0.7-2.1,1.3
	c-0.4,0.3-0.8,0.3-1.2,0.5c-0.4,0.1-0.4,1-0.9,1.2c-0.5,0.1-1.1,0.1-1.6,0.5c-0.7,0.5-0.3,1.3-1.5,1.5c-0.8,0.2-1.8,0.4-2.6,0.4
	c-0.2-1.3-1-2.1-1.5-3.2c-0.1-0.3,0-0.6-0.1-0.9c2.1-2.3,3.4,1,4.8,0.8c1.4-0.3,0.2-1.4,1.8-2.6c1.4-1.1,1.4-0.6,2.2-1
	c0.1-0.1,0.3-0.5,0.2-0.5c0.3-0.2,0.5-0.3,0.8-0.5l-0.1-0.4h-0.4v-1.5c-0.8-0.8-0.8-0.2-1.7,0.1c-0.3,0.6-0.9,0.3-1.4,0.3
	c-0.4-0.5-1.2-0.7-1.7-1.1l0.1-0.3c1.3-1,0.8-0.2,2.2-1.8c0-0.5-0.5-1-0.2-1.4c-0.1-0.1-0.1-0.3,0-0.4c-0.2,0-0.3-0.2-0.3-0.4
	c0-0.5,1.3-0.6,0.4-1.4L21.4,99c-0.2-0.6,1.5-2.2-0.2-2.8c0.1-0.7-0.5-1.2-0.4-1.7c-0.6,0.6-0.4-0.9-0.4-0.9c-0.2-0.7,0.5-1,0.5-1.7
	c1.2,0.3,2,1,3.2,1.3c1.1-1.2,2.6-2.5,3.1-4c-0.5-0.4-1.1-0.6-1.7-0.9l0.3-0.8l0.3-0.2l0.2,0.2l0.4-0.1c0.4,0,2.8,1.9,3,1.9
	c0.5,0,1,0,1.4,0.3l0.6,0c0.5,0.3,0.6,0.5,1.2,0.2c0.1,0.1,0.2,0.1,0.1,0c-0.1-0.3-0.3-0.6-0.4-0.9L32.1,88c1,0.4,0.1-0.7,0-0.9
	c0-0.1,0-0.3,0.2-0.3c0.2,0.7,1.6-0.1,2,0.1c0.2,0.1,0.1,0.4,0.1,0.6c0,0.3,1.2,1.9,1.3,2.1c0.2-0.2,0.4-0.4,0.6-0.6l1,1
	c0.3,0.1,0.6,0,0.9-0.1c1-0.1,2.5,0.3,3.3,0l0.1-0.7l0.4-0.4c-0.5-1.4-1-2.6-1.6-4c-0.6-0.1-1.3,0-1.9,0.1c-4.4,0.1-7.2-0.4-11-2.6
	c-1.4-0.8-4.2-1.7-5.2-2.7c-0.9-0.9-0.4-2.9-1.4-3.5c-1.1-0.6-2.3-0.1-3.4-0.4c-0.7-0.2-1.1-0.9-1.7-1.3c-0.5-0.4-1.2-0.7-1.5-1.3
	c-0.1-0.3-0.1-0.7,0-1c0.9-1.6,3.6-0.1,3.4-2.1c-0.3-2.1-2.9-0.9-2.2-4c0.2-0.8-0.1-1.8,0.6-2.5c0.5-0.5,1.3,0.5,1.8,0.6
	c1.3,0.5,3.7,0.1,4-1.4c0.5-2.4-3.4-2.2-3.8-2.4c-0.6-0.4-0.1-1.5-0.9-1.8c-1.3-0.5-1.1,0.5-1.8,1.3c-0.9,1-2.8,0.6-3.7-0.1
	c0.8-1.1,0.8-1.6-0.5-2.1l-0.1,0.2c-3-0.8-0.3-1.3-0.2-2.7c1.3,0.2,0.1-0.9-0.3-0.8c0.1-0.5,0.5-0.9,0.9-1.2c0.5,0.3,1.2,0.6,1.7,0
	c-0.1-0.3-0.9-0.7-0.9-0.7c-0.3-0.2-0.4-0.4-0.2-0.8c0.8-0.5,3.2,0.1,2.2-1.7c-0.2-0.3-0.2-0.4-0.4-0.6c-0.9-0.9-2.3-0.6-2.7-2.3
	l0.8-0.1c0.5,0.3,1.4,0.8,2,0.7c0.7-0.1,1-1.6,0.4-1.8c-0.5-0.1-0.5,0.1-0.8,0.3c-0.2,0.1-0.7,0-0.9,0c-0.6,0-1.5-0.4-2.2-0.3
	c-0.2-0.4-0.3-0.6-0.3-1c1.5-0.4,3.3,0.6,4.3-0.4c0.3-0.3,0.4-0.5,0.4-0.9L14.5,43c-0.5-0.1-1.1,0-1.5,0.4c-0.2-0.2-0.3-0.4-0.4-0.6
	c-0.4,0.2-0.9,0.5-1.4,0.6c-1,0.2-0.8-0.4-1.5-0.7c-1.5-0.6-3.7-1.3-1-2.7c0.2-0.1,1,0.7,1.4,0.6c0.7,0,1.3-3.1,1.1-3.5
	c-1-1.6-2.1,0.1-2.7,0.7c-0.1,0.2-1,0.7-1.2,0.4c-0.3-0.5,0.4-1.9,0.5-2.5c0.1-0.6,0-1.4,0-2c0.6,0.2,2.1,0.5,2.3-0.4
	c0.3-1.1-1.9-1-1.7-2.3c0.1-1,2.1-0.4,1.8-1.8C10,29,9.7,29,9.5,28.9c0.3-0.4,0.6-0.8,0.9-1.1c1,0.1,2.3,0.4,3.3,0.7
	c0.5-0.3,1-0.4,1.5-0.5c0.1,0.3,0.3,0.5,0.4,0.7l0.8,0c-0.3-0.6-0.5-1.2-0.6-1.9l0.5-1c0.4-0.8,4.3-0.3,4.3-0.4
	c-0.1-1-0.5-1.9-0.8-2.9c0.2-0.6,1.8-2.4,2.2-3.3c0.5,0.2,1.1,0.2,1.7,0.3c0.7,0.7,0.5,2.3,0.7,3.1c0.1,0.4,1.1-0.1,1.1,0.3l2.3,0.1
	c-0.1-0.1-0.2-0.3-0.3-0.4c0.6-0.2,1.3-0.1,1.9-0.1l0.2,0.3l2.8-0.1l0.7,0.7l0.4-0.3l-1.2-1.8c1.5-1.1,3.1-2.1,4.7-3.1
	c0.2,0,0.9,1.1,1,1.3l0.5-0.3c0.3-0.1,1.5-0.5,1.6-0.5c0.2-0.2,0.3-0.5,0.5-0.8c0.6-0.9,1.6-1.5,2.5-2.1c0-0.3,0-0.8-0.1-1
	c0.2-0.4,0.8-0.3,0.9-0.8l0.3,0.1c0.8-0.4,1.7-0.8,2.4-1.4l-1.1-1L45,10.9l0.9-0.8l0.6,0.3c0.6-0.5,1.3-1,1.9-1.5l0-0.6
	c1.4-0.8,1.8,0.4,2.8,0.1l1.4,0.3l1.7-1.6c0.1,0.1,0.7,0.6,0.5,0.4c0.2,0.2,1.2,0.7,1,0.3c0.2-0.2,0.5-0.3,0.7-0.5
	c0.4,0.5,1.3,1.5,1.8,1.7l0.4-0.1c0.6,0.5,0.8,1.3,1.4,1.8c0.5,0.4,2.3,0.4,3.4,1.5c0.7-0.6,1.4-0.9,2-1.8c1.4,0.1,3.7-1,4.8-2.1
	h1.4c0.4,0,3.3-0.1,3.3-0.1c0.5,0.2,0.6,0.8,0.6,1.3c0.2,2.1,0.7,1,1.8,1l0.3,0.2l0,0.1c0.5-0.4,1.7-3.4,2.5-2.5l-0.1,0.2l0.1,0.7
	c0,0.1,1.7,1.3,1.8,1.3v0.2c0.3,0.3,2.1-0.8,2.4-1l0.1-0.3l1.5,1.3l0.1,0.7c0.5,0.5,0.9,0.1,1.3,0.9c0.3-0.1,0.6-0.3,0.9-0.5
	c0,0-0.1,0.5,0.3,0.7c0.2-0.3,0.4,0.2,0.8,0.3c0.1,0,1-0.2,0.8,0L90,13.1c-0.1,0.2-0.4,0.2-0.6,0.2c-0.2,0.2-0.1,0.4,0.1,0.6
	c-0.1,0.4,1.7,1.4,2.1,1.6c-0.1,0.3,0.3,0.8,0.5,1l-0.1,0.2c0.6,0.7,1.4,1.3,2.1,1.9l-0.3,0.1l-0.3,0.5c0.4,1,0.9,1.9,1.2,2.9
	l-0.3,0.1l0,0.4l-0.3,0c0.8,1.1,2.2,2,3.3,2.8c0.8-0.1,1.6-0.3,2.5-0.4l2.1,1.4c0.5,1.7,1,3.4,1.9,4.9l1.9-0.6l-0.2-0.5l1.3-0.4
	c0.2,0.7,0.3,1.4,0.5,2.1l-0.2,0.1l0.1,0.4l-0.1,0.2l0.3,0.6l0.8-0.2c0.1,0.3,0.2,0.5,0.3,0.8l0.7-0.2l2.8,2.8
	c-0.2,0.5-0.4,0.9-0.5,1.4l0.3,0.3l0.1,0l0.3,1.2c0.4-0.1,0.7-0.2,1.1-0.3c0.4,0.8,0.6,1.6,0.8,2.5l-0.2,0l0.1,0.5l0.3-0.1l0.2,0.9
	c0.3-0.2,0.6,0.1,0.9,0l0.1-0.1c1.2-0.4,2-0.3,3.2-0.2c0.3-0.9,0.4-1.8,0.7-2.7l2.2,0.9c-0.1,0.7-0.3,1.4-0.3,2.2l-0.5,0.1
	c-0.5,1.2-0.3,2.5-0.4,3.7l0.1,0.2l-0.4,1l0.4,0.4c-0.1,0.8-0.1,1.2,0.2,2c-1.8,1.6-0.8,1.8-2.3,3.7c0.1,0.8,0.3,1.6,0.3,2.4
	c0.4-0.1,0.9-0.3,1.3-0.4c0.3,0.5,0.8,1,1.2,1.5l-0.1,0.2l0.7,1.2l-0.2,0.1c0.2,0.4,0.5,0.8,0.7,1.2c-0.1,0-0.3,0.1-0.3,0.2
	c-0.1,0.1-0.3,0.4-0.4,0.5c-1,1.4-1.6,1.5-3,2.2c0.1,0.3,0.1,1,0.1,1v0.7c2.6,0.1,3.4-0.6,5.7,1.3c0.3,0.3,0.6,1.3,0.8,1.4
	c0,0-0.7,0.6-0.9,0.8l0,0.3c0.3,0.3,1.3,1.2,1.7,1.1l0.3,0.1c0.4,0,0.8-0.1,1.1-0.1c0.1,0.3,0.1,0.5,0.2,0.8c0.1,0,0.3,0.1,0.4,0.2
	c-0.1,0.1,0,1,0,1l0.1,0.5c0.3,0,0.7,0.1,1,0.1c0,0.3,0.1,0.7,0.1,1c0.6,0.5,1.2,0.9,1.8,1.3c0.4,0.3,0,1.3,1.6,1.3l0.4,1.4
	c0.9-0.1,1.8-0.4,2.8-0.6l-0.1,1.6c0.4,0,0.8-0.3,1.1-0.4c0.3,0.6,0.6,1.2,0.9,1.8l0.9-0.4c0.3,0.1,0.6-0.3,0.9-0.3l1,0
	c0.2-0.2,0.3-0.4,0.5-0.6l-0.3-0.3c0.3-0.2,0.5-0.4,0.7-0.7c0,0,0.6,0.1,0.8,0c0.1,0.1,0.3,0.3,0.4,0.4v0.4
	c-0.4,0.3,0.4,1.8,0.4,2.3c0.3,0.4,0.7,0.6,1,1l-0.4,0.9c0.3,0.4,0.6,0.8,0.9,1.2l0.3-0.2c1.5,0.2,2.2,1.6,3.1,1.8l0.3-0.3l0-0.1
	L149,84c0.5,0.3,1.7,0.3,1.7,0.3l0.3,0.3c0.2,0.1,0.8,0.3,0.8,0.3c0.5,0.2,0.8,0.6,1.2,0.9c0.2-0.1,0.4-0.2,0.5-0.3
	c0.5,0.2,1,0.4,1.5,0.6c0.1-0.3,0.4-0.5,0.5-0.8l0.4,0.3l0.4,0.6c0.7,0,1,1.2,1.4,1.4c0.8,0.3,1.6,0.5,2.4,0.8
	c0.3,0.4,0.3,1.4,0.8,1.7l0.2,0c0.3,0.1,0.6,0.2,0.9,0.1c0.4,0.6,1.1,2,0.7,2.7c-0.4,0.3-1.2,0.9-1.6,1c-0.3,0.1-0.8-0.2-1,0.2h-0.1
	c-0.2,0.3-0.1,0.8-0.4,1c-0.3,0.7,0.4,0.9,0.6,1.5c-0.2,0.2-0.6,0.4-0.6,0.8c-0.4,0.4-0.8,1.1-1,1.6c-0.3,0-0.8,0.8-0.3,0.9
	c0.1,0.3,0.3,0.6,0.4,0.9c-0.6,0.2-1.3,0.3-1.9,0.6l-0.2-0.1c-0.3,0-0.6,0-0.9-0.1l-0.3,0.5l-0.6,0.3c0,0-1-0.1-1.1,0
	c-0.3,0-0.5,0.3-0.6,0.5c0.2,0.4,0.5,0.8,0.8,1.2l0.3,0.4c0.3,0.1,1.1,0.6,1.4,0.8l0.5,0.5l-0.4,0.6c0.5,0.6,1.2,1,1.8,1.4l0.4-0.1
	c1.7,0.4,2.8,1,4.3,1.9c0.5-0.4,1.2,0.4,1.6,0.6l0,0.2l0.4,0.4l-0.1,0.5c0.1,0.3,0.4,0.6,0.5,0.9l-0.1,0.2c0.1,0.3,0.1,0.9,0.1,1.2
	c-1,0.3-1.8,0.5-2.8,0.7c-0.1,0.3-0.4,0.4-0.6,0.6c-0.2,0-0.4,0-0.6,0l-0.3,0.2c-0.3-0.1-1.2-0.2-1.4,0l0-0.2l-0.4-0.3l-0.5,0
	c0.1,0.2-0.3,0.3-0.4,0.4c-0.2,0-0.3-0.1-0.4-0.1c-0.7-0.5-0.7,0-1.3,0.1l-0.1,0.1c-0.4,0-0.8-0.2-1-0.1l-0.3,0.3
	c-0.2-0.1-0.9-0.1-0.9-0.1c-0.1,0.2-0.3,0.8-0.4,0.9v0.4c0,0-0.1,0.5-0.2,0.6l-0.3,0.4l0.5,0.6c0,0-0.3,0.3-0.4,0.4
	c0,0.2,0,0.4,0.1,0.5c2.6,1.2,1.2,3,2.3,3.5c1.7,0.8,8.8-0.4,11.1,1.5c0.2,0.2,0.5,0.8,0.6,1c0.3,0.5,0.7,1.3,0.8,1.8
	c0.2,1.5-0.6,4.7,1.3,5.4c0.8,0.3,2-0.6,3-0.6c0.8,0,1.3,0.9,2.1,0.9c0.9,0.1,1.7-0.5,2.6-0.6c1.2-0.1,1.6,0.5,2.6,0.7
	c0.5,0.1,1.1-0.3,1.6-0.3c1,0,1.9,0.8,2.8,0.8c1.4,0.1,1.1-0.7,2.6,0.4c1,0.7,2.1,0.4,3.2,0.5c1,0.8,0.4,1.2,0.8,2
	c0.3,0.5,0.8,0.7,1.1,1.1c0.2,0.2,0.3,0.6,0.3,0.8c-0.1,0.5-0.2,2.2,0.2,2.6c0.2,1.3,1.3,1.4,2.1,2.1c0.6,0.6,0.4,1,0.7,1.6
	c0.4,0.7,0.7,0.7,1.3,1.2c1.6,1.3,1.2,1.4,3.4,1.4c2.1,0,1.4-2.1,2.3-3.1c0.5-0.5,0.6-1.3,0.9-1.9c0.8-1.6,2.1-3.1,2.8-4.6
	c0.4-0.9,0.4-1.9,0.8-2.7c0.1-0.2,0.4-0.1,0.6-0.3l0.8-0.7c0.8-0.8-0.8-1,1.9-2.9c0.5-0.4,1.5,0.7,3.3-0.4c2.5-1.5,0-1.9,4.5-2.9
	c1,0.5,5.4,5.5,6.7,6.7c0.3,0.3,0.8,0.4,1.2,0.7c3.1,2.1,3.5-0.9,4.8,1.4c0.5,0.2,1,0.2,1.5,0.5c0.5,0.3,0.6,1,1,1.4
	c1.8,1.9,3.4,3.4,0.2,4.6c-0.7,0.3-1.4,0.9-2.2,0.9c-1.4,0-2.9-3.5-6-2.8c-2.8,0.6-0.8,3-3,5.4c-1.7,1.9-4.4-1-4.8,0.9
	c-0.2,0.9,0.1,1,0.3,1.8c0.5,1.5,1.2,1.4,2.2,2.4c0.2,0.2,0,2.7,0.1,3.2c0.1,0.4,0.4,0.6,0.6,1c0.3,0.8,0.4,1.8,0.8,2.5
	c0.3,0.5,0.8,0.9,1.2,1.3c0.3,0.4,0.4,0.8,0.7,1.2c0.4,0.6,1.2,0.6,1.8,0.8c0.7,0.2,1.4,0.5,2.2,0.5c2.6,0.3,3.5,0.5,3.5,3.4
	c-0.7,0.5-1,2.1-0.6,2.8c-0.3,0.1-0.4,0-0.6,0.1c-0.1,0.1-0.3,0.4-0.5,0.4l-0.5,0.4c-0.3,0.4,0,0.7-0.6,1.2c0.3,0,0.5,0.1,0.3,0.4
	c-0.4,0.6-0.4,0.6-0.4,0.6c0,0.4-0.7,0.1-0.5,0.3l-0.9,0.6c0.1,0.1,0.2,0.2,0.3,0.4l0.6,0.3c-0.1,0.2-0.2,0.6-0.1,0.9l-0.3,0.1
	c-0.3,0.6-0.8,2.6-0.6,3.3c0.1,0.8,0.4,0,0.5,1.5l0,0.6c-0.4,0.3,0.1,0.5,0.4,0.6c-0.3,0.3-0.4,0.4-0.2,0.8c-0.7,0.1-1.5,0-2.3,0.1
	l-0.1,0.6c-0.4,0.1-0.9-0.5-1.4-0.1c-0.4,0.3-1.4,0.1-1.5,0.5l0.6,0.6l0.1,0.6c-0.1,0.1-0.3,0.5-0.3,0.6l-0.5,0.4
	c-0.8,0.5-2-0.1-2.8,0c-0.4,0-0.6,0.4-1,0.4c-0.5,0-0.9-0.2-1.4-0.1l-0.1,0.5c-0.5,0.2-2.3,0.3-1.8,0.9l-0.2,1c0,0.1,0,0.5,0.2,0.6
	c-0.3,0.8,0.3,1.4-0.3,2.5c-0.1,0.1,0.2,0.5,0.1,0.8c-0.2,0.6-1.8,0.4-0.9,1.8l-0.1,0.3c0.3,0.4-0.7,4.7-0.8,5.5
	c0,0.7-0.8,1.4-1.1,1.9c0,0.1-0.2,0.9-0.2,1c0.6,1.5,1.1,2.9,2.2,4.1c0.1,0,0.3,0,0.4,0c-0.3,0.8,0,1.8-0.4,2.3
	c0,0.2,0.2,0.4,0.4,0.5c0.2,0.8,0.3,1.4,0.3,2.2c0,0.2,0.6,0.7,0.7,0.9s0.1,0.4,0.3,0.5c0.3,0.2,0.6,0.2,0.8,0.4
	c0.4,0.3,0.6,0.8,1.1,1.2c0.3,0.2,0.8,0,1.1,0.2c0.4,0.2,0.3,0.5,0.4,0.9c0.9,0.4,0.3,1.2-0.1,1.7c0.6,0.8,0.9,1.8,0.4,2.7
	c0,0.3,0.3,0.5,0.5,0.6c0.1,0.3-0.4,1-0.4,1.3c-0.1,1.2,0.7,1.5,0.8,2.3c0.1,0.7-0.1,1.2,0.2,1.9c0,0.1,0.3,0.4,0.4,0.5
	c0.1,0.1,0,0.4,0.3,0.8c0.7,0.7,0.1,0.6,0.4,1.2c0.1,0.3,0.4,1.1,0.6,1.3c0.3,0.3,0.7,0.4,1,0.6c0.1,0.1,0.9-0.4,1.3-0.1
	c0.5,0.4,0.8,1.3,0.8,1.9c0.6,0.6,1.4,0.7,2.2,1c0.2,0,0.4-0.2,0.5-0.4l1.3,0.5c0,0.9,0.5,0.8,0.4,1.8c1.3,1.5,0.8,0.1,1.8,0.8
	l1.3-0.2c0.1,0,0.6,0.5,0.8,0.6c0.2,0.1,0.5,0,0.7,0.1c0.5,0.3,0.6,0.5,1.2,0.8c0,1.4,0,0.8,0.8,1.6c0.4,0.4,0.6,1,1.1,1.4
	c0.4,0.4,1.3,0.3,1.6,0.9c0.6,1.1-0.4,0.9,1.1,2.7c0,0.3-0.2,0.6-0.1,1c0.4,1.2,0.7,0.4,1.1,0.9c0.1,0.2,0.2,0.3,0.4,0.5l0,1
	c0,0.1,1.2,1.8,1.5,2c0.2,0.6,0.1,0.5,0.8,0.9c0.8,0.4,1.3,0.8,2,1.5c1.3-0.8,1.9,0.2,2.3,0c0.3,0.3,0.9,0.7,1.3,0.8
	c0.1,0.1,0.1,0.3,0,0.4c-0.3,0.3-1.1,1.4-1.2,1.7c0.8,0.4,0.6,1.2,0.5,1.9c0.3,0.5-0.3,1.3-0.5,1.7c0,1.4-1.1,1.5-1.9,2.4
	c-0.8,0.1-1.4,0.4-1.9,1c0,0.6-0.6,1.5-0.5,2c-0.6,0.3-0.6,0.8-0.6,1.4L241,264c-1.8,1-1.6,2.4-1.9,2.7c-0.5,0.3-1.9,0.9-2.5,1.1
	c-1.3,0.4-0.2,2.8-0.9,3l-0.2-0.1c-1.1,0.5,0.6,1-0.2,2.4c-0.2,0-0.4,0.2-0.4,0.4c-0.2,0.1-0.4,0.8-0.4,1c-0.3,0.2-0.3,0.2-0.4,0.6
	c-0.3,0.8-1.7,0.5-2.3,1c-0.2-0.1-0.4-0.4-0.5-0.6c-0.2,0.1-0.6,1-1.2,1.4l0.1,0.2c-0.4,0.8-0.6-0.1-0.7-0.5
	c-0.3-0.2-0.5-0.5-0.8-0.6c-0.7-0.4-0.9,0.9-1.8-0.4l-0.4-0.6c-0.6-0.1-1,0.6-1.3,0l-0.8,0.2c-0.5,1.6-0.6,0.3-0.6,2.3
	c-0.5-0.7-2.3-0.9-2.1-1.9c-0.4,0.3-0.8,0.5-1,1c-0.1,0.3-0.3,0.5-0.2,0.8c0,0.1,0.1,0.4,0,0.4c-0.8,0.7-1.3,0.8-1.6,1.1
	c-0.2,0.2-1.1,1.4-1.4,1.2l-0.2-0.2c-0.2,0.2-1.2,0.8-1.5,0.7l-0.1,0.2c0.1,0.4,0,0.9,0.1,1.3c0.1,0.4,0.5,0.1,0.6,0.8
	c0.9,0.6,0,1.2,1.5,2.3c0,1.4,1.3,1.4,1.5,2.3c-0.3,0.4-0.4,0.8-0.3,1.3l-0.6,0.1c-0.1,0.5-0.2,0.5-0.6,0.9
	c-0.1,0.3-0.1,0.6-0.3,0.9c0.5,0.5-0.4,0.8-0.8,0.9c-0.1,0.5,0.7,0.6,1,1c-0.2,0.8-0.3,1.2-1,1.7c0.1,0.1-0.3,0.7-0.3,0.7
	c0.4,0.4,1.2,0.3,0.6,1.2l-0.4,0.1c0.1,0.2-0.4,2.3-0.5,2.8c0.1,0.2-0.3,0.5-0.5,0.6c-0.2,0.6,0,1.3-0.1,1.9c0,0.1,0.1,0,0.2,0
	c0.4-0.1,1.5,0.1,1.7,0.4c1.2,1.6,3.7,3.2,4.8,4.9c-0.4,0.5-0.1,1.2,0.3,1.6l-0.4,0c-1.4,2.4-0.5,1.5-1.3,3.6
	c-0.1,0.2,0.3,0.3,0.1,0.7c0.1,0.3-0.3,0.5-0.4,0.7c-0.3,0.3-0.3,0.6-0.3,1c0,1.4-0.9,0.5-1.5,0.5c-0.5,0-0.5,0.3-1,0.1
	c0.1,0.2,0.1,0.4,0.2,0.6c-0.2,1.1-0.8,0.4-0.8,1.3c-1.1,1.5,0.4,1.6-0.8,3.1c-0.7,0-0.9,0.7-1.2,0.7l-0.5-0.9
	c-0.3,0.8-0.9,0-1.2,0.1c-0.1,0.1-0.2,0.3-0.3,0.5c-0.7,0-0.5,0.4-1.3,0.2l-0.6,0c0,0.3-0.2,0.8-0.4,1c-0.4-0.3-0.7-0.5-1.2-0.6
	c-0.1,0-0.3,0-0.3-0.1c-0.5-0.6-2.1-1.8-2.4-2.3c-0.2-0.4,0.2-0.8,0.3-1.2c0.1-0.4,0.3-0.6,0.6-0.8c-2.1,0-1.6,0.9-2.2,1
	c-0.2,0-0.3-0.4-0.5-0.4c-0.5,0.5-0.9,0-0.9,1c-0.1,0.2-0.4,0.5-0.1,0.5c0.1,0.1-0.6,0.8-0.8,0.8l-1.4,0.1c0-0.5-1.1,0.1-1.3,0.2
	c-0.2,0.3,0.1,1.2-0.4,1l-0.5,0.7l-0.3-0.2c-0.1-0.4-0.6-0.3-1-0.6c-0.3,0.7-0.7,1.8-1.4,0.8c-0.3-0.4-0.3,0.1-0.6,0.2l-0.4-0.2
	c-0.1,0.3-0.3,0.7-0.4,0.9c-0.5,0-0.9-0.1-1.4-0.1c-0.3,1.1-1.1-0.3-1.3-0.3c-0.7-0.3-0.6,0.7-1,0.7c-0.4,0-0.8-0.8-1.4-1l-0.1-0.3
	l-0.5-0.4c0.1-0.2-0.6-0.3-0.7-0.5c-0.3,0-2-1.3-2.2-1.5l-0.2-0.1c-0.7,0.2-0.4,2-0.6,2.6c-0.1,0.4-1.5,0.8-2,0.8
	c-0.9,0.1-0.9-0.5-1.2-0.6c-0.3,0.5-0.8-1.2-1.7-1.2h-0.4c-0.5,0-0.2,0.9-0.3,1.2c-0.1,0.2-0.3,0.3-0.4,0.5
	c-0.8,1.2-0.6,1.7-2.2,0.6c-0.1,0.8-0.1,1.5-1,1.5c-0.3,0.3-0.3,1.3-0.6,1.6c-0.4,0.3-1.7-0.5-2.1-0.4c-0.5,0.6-0.8,2-1.3,2
	l-0.1,0.5c-0.2,0.2-0.5,0.1-0.6-0.2c-0.2-0.6-1.5-0.8-2.1-1.1c-0.2-0.1-0.9,0-1.2-0.1l-0.1-0.3c-0.4-0.3-0.9-0.3-1.3-0.5l-0.8,0.3
	c-0.8-1.4-1.9,0.9-2.6,1c-0.5-0.8-0.7,0-1.1,0.2c-0.9,0.4-0.9-2-1.6-2.6c-0.3-0.3-0.8,0.1-1,0c-0.3-0.3-0.2-0.8-0.8-0.7
	c-0.9,0.2-0.1,0.7-0.7,0.9c-0.6,0.2-0.6-0.5-1-0.5c-0.7,0,0,0.5-0.1,0.8c-0.1,0.3-0.6,0.6-0.7,0.9c-0.1,0.4,1.5,1.9,0.4,2.3
	c-0.9,0.3-1.3-1.3-1.8-1.5c-0.1,0-1.7,0-1.4,0.6c-0.8,0.7-0.4,0.6-0.7,1.2c-0.4,0.6-0.8,0-1.2,1.1c-0.6,1.5-0.8-0.1-1.2,0.9
	c-0.1,0.3,0.2,0.6,0.1,1c-0.2,0.6-0.7,0.9-1,1.4c-0.2,0.4,0.1,0.5,0.1,0.8c-0.4,0.4-0.6,0.8-0.8,1.3l-0.4,0.3
	c0.1,0.2,0.4,0.7,0.4,0.7c0.6,0.5,0.3,0.4,0.5,0.9c0.2-0.1,0.4,0.9,0.6,1.1c-0.1,0.2-0.9,0.7-1,0.5c-0.1-0.3-0.6-0.4-0.7-0.1
	c-0.8,0-0.8,0.1-1.4,0.7c-0.6-0.1-1.1,0.3-1.3,0.2c-0.7-0.1-0.6-0.5-1.5-0.3c0-0.7-0.5-0.8-0.5-1.3c0-0.4,0.2-1,0.2-1.4
	c0-0.4-0.8-0.9-1-1.3c-0.1-0.3-0.3-1-0.4-1.2l-0.6-0.5c0-0.2-0.1-0.5-0.3-0.6c0.1-0.6-0.3-0.4-0.4-0.9c-0.1-0.2,0-0.8-0.2-0.9
	c-0.4-0.3-1.9-0.3-2.3-0.4c-0.2-0.1-0.2-0.3-0.4-0.4c-0.3,0.1-0.6,0.1-0.9,0.1c-0.1,0-1,1.2-1.4,1.4c-0.4,0.3-0.9,0.2-1.2,0.6
	c-0.3,0.4-0.4,0.9-0.8,1.3l-0.3,0c-0.3,0.3-0.8,0.7-1,1.1c-0.3,0.1-0.6,0-1,0.1c-0.4,0.5-1,0.5-1.5,0.9c-0.6-0.1-0.5,0.2-0.9,0.2
	c-0.5,0.1-1-0.3-1.4-0.1c-0.3,0.1-0.6,0.6-1,0.8l-0.4-0.1c0,0.2-0.1,0.4-0.2,0.5c0.1,0.5-0.8,1-1.1,1.4c-0.6,0.8-1.2,0.7-2.2,0.4
	c-0.5,0.2-0.5,0-0.9,0.1c-0.3,0.1-0.2,1-1,1.2c-0.4,0.1-1,0.3-1.4,0.2c-0.2,0-0.4-0.2-0.6-0.1l-0.5,0.5c0,0.1,0,0.3,0.1,0.4
	c-0.4,0.5-0.9,1.2-1.6,1.5c-0.1,0.3,0.1,0.6,0.3,0.8c-0.1,0.5-0.7,0.8-0.9,1.3c0.1,0.4,0,3.5,0.1,3.5c0.5,0.6,0.7,1.2,1,1.9
	c0.3,0.5-0.8,0.9-0.7,1.2c0.1,0.5,0.9,1.2,1.3,1.5c0.1,0.1,0.6,0.3,0.5,0.4c-1.7,0.7-1,1-2,2c-0.3,0.3-0.5,0.1-0.7,0.5
	c-0.1,0.3,0,0.8-0.1,1c-0.2,0.2-0.8,0.4-0.8,0.4c-0.5,0.3-0.9,0.5-1.4,0.9c-0.8,0-0.7,0.9-1.2-0.1c-0.9-2.1-2.4,0.2-3.3,1
	C109.7,359.3,108.5,357.7,108.3,357.3z"/>
<g>
	<path id="path26" class="st1" d="M29.4,223.5c1.9,0.2,0.4-2.3,1.2-3.5c0-0.2-0.1-1.8,0.2-1.9l0.3,0.2c0.4-0.9,0.9-0.4,1.2-0.8
		c0.4,0.4,0.7,0.3,0.6-0.3c0.3,0,0.4,0.8,0.6,0.9c0.3,0.2,2,0.1,2.2-0.1c0.2-0.2,1-1.4,1.3-1.2c0.2-0.1,0.2-0.3,0.4-0.5
		c0.1,0.1,0.1,0.3,0.1,0.5c0.2,0.2,0.5,0.1,0.7,0.4c-0.1,1.4,0.6,0.4,1.1,1.1c-0.1,0.2-0.5,1.2,0,0.6l0.2,0.1l0.1,1.3
		c-0.7,0.6,0,1.1,0.4,1.8c0.3-0.1,0.6-0.5,0.9-0.7c0.3-0.8,0.2-0.8,1-1.2c0-0.3,0.2-0.8,0.5-0.9c0.3-0.8,2.5,1,2.7,0.5
		c0.4-0.6,0.3-0.5,0.9-0.6c0.5-1.1-0.3-0.5-0.8-1.1c-0.1-0.1-0.4-1.1-0.5-0.5c-0.2-0.3,0.2-1.2,0.4-1.5l0-0.1l-0.4-0.1
		c-0.2-0.3,0.1-0.5-0.3-1c0.3-0.4,0.7-1,0.8-0.1c0.5,0.1,0.4-0.4,0.4-0.7c0.2-0.9,0.5-1.8,0.4-2.7c0-0.8-0.7-1.7-0.6-2.6
		c0-0.2,0.2-0.8,0.1-0.9c-0.3-0.5-0.9-0.9-1.5-1.2c-0.1-0.5-0.1-1.2-0.6-1.4c-0.6-1.1-0.3-1.9-2.2-2.1c0-0.3,0-1-0.4-1.1l-0.2-0.4
		c-0.1-0.2-0.3,0.2-0.5,0.1c-0.3-0.1-0.6-0.3-1-0.4c-0.4-1-0.6-1.2-1.4-2.2c-0.1-0.1,0.2-0.6,0.1-0.8c-0.4-0.2-1.2-0.6-1.3-1.2
		c-0.3-0.3-1-1.3-1.3-1.3l0.3-0.6l-1.3-1c0.1-0.3,0.3-0.5,0.1-0.8c-0.2-0.4-0.7-0.5-0.9-0.9c-0.3-0.4-0.1-0.9-0.4-1.2
		c-0.1-0.2-0.5-0.4-0.5-0.6c-0.4-0.3-0.6-0.7-0.8-1.1c0.2-0.4-0.8-0.6-1-0.8l-0.1-0.3l0.1-0.3c0.3-0.5-2.3-4-0.8-4.6
		c0.7-0.3,1,1.1,1.9,1.3c0.6,0.1,1.4-0.1,1.9,0.1c0.5,0.2,1.4,1.1,1.7,1.2c0.3,0.1,0.9,0,1.1,0.1c0.2,0.1,0.8,1.6,1.9,1.8
		c0.5,0.1,0.6-0.6,0.9-0.6c0.3,0.2,0.8,0.6,1.1,0.7c0.3,0.1,5.5,0.3,6,0.3c0.2,0,0.5-1.3,0.8-1.5c0.4-0.4,1-0.7,1.6-0.9
		c0.1-0.4-0.4-0.9-0.2-1.1c0.3-0.3,1-0.2,1.4-0.4c0.2-0.1,0.3-0.4,0.5-0.5c0.5-0.3,1.3,0,1.5-0.7c0.1-0.5-0.5-0.9-0.4-1.4
		c0.1-0.3,0.3-0.5,0.4-0.8L52,181c0.1-0.7-0.6,0-0.9-0.1c-0.2-0.1,0-1-0.1-1.2c-0.1-0.4-1-0.7-1.3-0.3c-0.3,0.3,0.3,1.7-0.4,1.8
		c-0.5,0-0.7-1.4-1.1-1.8c-0.6-0.7-1.8-0.4-2.5-0.9c-1.3-0.9-0.8-2-1.2-2.8c-0.1-0.3-1.2,0.3-1.4-0.5c-0.3-0.9,1.2-1.2,0.7-1.9
		c-0.5-0.7-1.4-0.1-1.7,0.5c-0.2,0.5-0.1,0.9-0.8,0.5c-2.2-1.3-1.1-3.2-2.4-3l-0.8-0.6c-0.3-0.2-1.4-0.2-1.4-0.4l-0.2-1.4
		c0-0.1,0.3-0.3,0.2-0.6c-0.3-0.8-1.6-0.5-0.6-1.9c-0.5-0.8-0.1-0.8-1-1.4c-0.4-0.3,0.1-1.5-0.4-1.8c-0.6-0.4-1,0.3-1.7,0.1
		c-0.3-0.1-0.7-0.6-1-0.5c-0.4,0.5-1.5,1.3-2.2,1.2c-1.7-0.1-0.9-1.9-1.6-2.3c-1.3-0.7-1.4,1.4-2.7,0.2c-0.5-0.4-0.6-1.1-1-1.5
		c-0.3-0.3-1-0.5-1.1-1c-0.1-0.5,0.5-1.2,0.3-1.7c-0.2-0.4-1,0.1-1.2-0.5l-0.3-0.9c0.1-0.4,1.1-0.6,0.2-1c-0.9,0.9-0.3-2.1-0.2-2.2
		c0.4-0.7,1.8-0.9,2.1-1.4c0.1-0.1,0.1-1.8,0.1-2.1c0-1-0.1-1.7-0.5-2.7c-0.1-0.3-0.4-0.5-0.4-0.8c-0.1-0.6,0.5-1.2-0.6-1.4
		c-0.4-0.3,0.1-0.7,0.3-1c0.2-0.4,0-0.9,0.3-1.2c0.5-0.4,0.6,0.3,1,0.3c0.3,0,0.8-0.1,1.2-0.1c0.4-0.3,0-0.8,0.4-1.1
		c0.5-0.4,1.7-1.3,1-2.1c-0.2-0.2-0.6-0.1-0.7-0.3c-0.1-0.3,0.8-1.5,1-1.7c0.6-0.5,1.4-0.2,1.6-0.6c0.1-0.4-0.6-1.6-0.1-1.6
		c1.8,0,0.5-0.3,0.9-1.3c0.1-0.3,0.6,0,0.5-0.8c0.2-0.3,0.4-0.6,0.3-1c0.2-0.8,0.7-0.9,1.3-1.4c0.3-0.2-0.8-0.9-0.2-1.3
		c0.4-0.3,1.5,0.6,1.5-0.4c-0.1-1,0.5-0.6,0.8-1.3c0,0,0.7-1.7,0.9-1.8c0.1-0.3-0.4-0.4-0.1-0.7c0.1-0.2,0.6,0.1,0.9,0
		c0.5-0.3-0.3-0.6-0.4-0.9l0.4-0.5c-0.4-0.2-0.9-0.6-0.8-1.1c0.1-0.6,0.6,0.1,0.9-0.3c0.2-0.3-0.3-0.6-0.2-0.9
		c0.1-0.3,0.5-0.2,0.6-0.5c0-0.1-0.1-1.8-0.1-2.3c0-0.3,0.5-0.4,0.4-0.6c-0.1-0.2-0.6-0.1-0.5-0.5c0.1-0.3,0.9-0.3,1-0.8
		c-0.1-0.3,0.5-0.2,0.6-0.6c0.1-0.3-0.4-0.7-0.5-1c-0.2-0.5,0.5-0.6,0.5-1.1c0-0.3-0.5-0.5-0.4-0.6l0.1-0.3c-1.1-0.8-0.7,0-1.2-0.3
		c-1.9-0.9-1.7-2.2-4.1-1.2c-0.4-0.2-0.8-0.7-1.3-0.7c-0.9-0.1-1.5,1.7-2.4,1.4c-0.5-0.2-0.2-1.6-1.4-2c-1.2-0.4-1.4,0.7-2.1,1.3
		c-0.4,0.3-0.8,0.3-1.2,0.5c-0.4,0.1-0.4,1-0.9,1.2c-0.5,0.1-1.1,0.1-1.6,0.5c-0.7,0.5-0.3,1.3-1.5,1.5c-0.8,0.2-1.8,0.4-2.6,0.4"/>
	<path id="path30" class="st1" d="M16.9,115.5c-0.2-1.3-1-2.1-1.5-3.2c-0.1-0.3,0-0.6-0.1-0.9c2.1-2.3,3.4,1,4.8,0.8
		c1.4-0.3,0.2-1.4,1.8-2.6c1.4-1.1,1.4-0.6,2.2-1c0.1-0.1,0.3-0.5,0.2-0.5c0.3-0.2,0.5-0.3,0.8-0.5l-0.1-0.4h-0.4v-1.5
		c-0.8-0.8-0.8-0.2-1.7,0.1c-0.3,0.6-0.9,0.3-1.4,0.3c-0.4-0.5-1.2-0.7-1.7-1.1l0.1-0.3c1.3-1,0.8-0.2,2.2-1.8c0-0.5-0.5-1-0.2-1.4
		c-0.1-0.1-0.1-0.3,0-0.4c-0.2,0-0.3-0.2-0.3-0.4c0-0.5,1.3-0.6,0.4-1.4L21.6,99c-0.2-0.6,1.5-2.2-0.2-2.8c0.1-0.7-0.5-1.2-0.4-1.7
		c-0.6,0.6-0.4-0.9-0.4-0.9c-0.2-0.7,0.5-1,0.5-1.7c1.2,0.3,2,1,3.2,1.3c1.1-1.2,2.6-2.5,3.1-4c-0.5-0.4-1.1-0.6-1.7-0.9l0.3-0.8
		l0.3-0.2l0.2,0.2l0.4-0.1c0.4,0,2.8,1.9,3,1.9c0.5,0,1,0,1.4,0.3l0.6,0c0.5,0.3,0.6,0.5,1.2,0.2c0.1,0.1,0.2,0.1,0.1,0
		c-0.1-0.3-0.3-0.6-0.4-0.9l-0.4-0.8c1,0.4,0.1-0.7,0-0.9c0-0.1,0-0.3,0.2-0.3c0.2,0.7,1.6-0.1,2,0.1c0.2,0.1,0.1,0.4,0.1,0.6
		c0,0.3,1.2,1.9,1.3,2.1c0.2-0.2,0.4-0.4,0.6-0.6l1,1c0.3,0.1,0.6,0,0.9-0.1c1-0.1,2.5,0.3,3.3,0l0.1-0.7l0.4-0.4
		c-0.5-1.4-1-2.6-1.6-4c-0.6-0.1-1.3,0-1.9,0.1c-4.4,0.1-7.2-0.4-11-2.6c-1.4-0.8-4.2-1.7-5.2-2.7c-0.9-0.9-0.4-2.9-1.4-3.5
		c-1.1-0.6-2.3-0.1-3.4-0.4c-0.7-0.2-1.1-0.9-1.7-1.3c-0.5-0.4-1.2-0.7-1.5-1.3c-0.1-0.3-0.1-0.7,0-1c0.9-1.6,3.6-0.1,3.4-2.1
		c-0.3-2.1-2.9-0.9-2.2-4c0.2-0.8-0.1-1.8,0.6-2.5c0.5-0.5,1.3,0.5,1.8,0.6c1.3,0.5,3.7,0.1,4-1.4c0.5-2.4-3.4-2.2-3.8-2.4
		c-0.6-0.4-0.1-1.5-0.9-1.8C16,58,16.2,59,15.5,59.8c-0.9,1-2.8,0.6-3.7-0.1c0.8-1.1,0.8-1.6-0.5-2.1l-0.1,0.2
		c-3-0.8-0.3-1.3-0.2-2.7c1.3,0.2,0.1-0.9-0.3-0.8c0.1-0.5,0.5-0.9,0.9-1.2c0.5,0.3,1.2,0.6,1.7,0c-0.1-0.3-0.9-0.7-0.9-0.7
		c-0.3-0.2-0.4-0.4-0.2-0.8c0.8-0.5,3.2,0.1,2.2-1.7c-0.2-0.3-0.2-0.4-0.4-0.6c-0.9-0.9-2.3-0.6-2.7-2.3l0.8-0.1
		c0.5,0.3,1.4,0.8,2,0.7c0.7-0.1,1-1.6,0.4-1.8c-0.5-0.1-0.5,0.1-0.8,0.3c-0.2,0.1-0.7,0-0.9,0c-0.6,0-1.5-0.4-2.2-0.3
		c-0.2-0.4-0.3-0.6-0.3-1c1.5-0.4,3.3,0.6,4.3-0.4c0.3-0.3,0.4-0.5,0.4-0.9l-0.2-0.3c-0.5-0.1-1.1,0-1.5,0.4
		c-0.2-0.2-0.3-0.4-0.4-0.6c-0.4,0.2-0.9,0.5-1.4,0.6c-1,0.2-0.8-0.4-1.5-0.7c-1.5-0.6-3.7-1.3-1-2.7c0.2-0.1,1,0.7,1.4,0.6
		c0.7,0,1.3-3.1,1.1-3.5c-1-1.6-2.1,0.1-2.7,0.7c-0.1,0.2-1,0.7-1.2,0.4c-0.3-0.5,0.4-1.9,0.5-2.5c0.1-0.6,0-1.4,0-2
		c0.6,0.2,2.1,0.5,2.3-0.4c0.3-1.1-1.9-1-1.7-2.3c0.1-1,2.1-0.4,1.8-1.8c-0.1-0.1-0.5-0.1-0.6-0.2"/>
	<path id="path34" class="st1" d="M9.5,28.9c0.3-0.4,0.6-0.8,0.9-1.1c1,0.1,2.3,0.4,3.3,0.7c0.5-0.3,1-0.4,1.5-0.5
		c0.1,0.3,0.3,0.5,0.4,0.7l0.8,0c-0.3-0.6-0.5-1.2-0.6-1.9l0.5-1c0.4-0.8,4.3-0.3,4.3-0.4c-0.1-1-0.5-1.9-0.8-2.9
		c0.2-0.6,1.8-2.4,2.2-3.3c0.5,0.2,1.1,0.2,1.7,0.3c0.7,0.7,0.5,2.3,0.7,3.1c0.1,0.4,1.1-0.1,1.1,0.3l2.3,0.1
		c-0.1-0.1-0.2-0.3-0.3-0.4c0.6-0.2,1.3-0.1,1.9-0.1l0.2,0.3l2.8-0.1l0.7,0.7l0.4-0.3l-1.2-1.8c1.5-1.1,3.1-2.1,4.7-3.1
		c0.2,0,0.9,1.1,1,1.3l0.5-0.3c0.3-0.1,1.5-0.5,1.6-0.5c0.2-0.2,0.3-0.5,0.5-0.8c0.6-0.9,1.6-1.5,2.5-2.1c0-0.3,0-0.8-0.1-1
		c0.2-0.4,0.8-0.3,0.9-0.8l0.3,0.1c0.8-0.4,1.7-0.8,2.4-1.4l-1.1-1L45,10.9l0.9-0.8l0.6,0.3c0.6-0.5,1.3-1,1.9-1.5l0-0.6
		c1.4-0.8,1.8,0.4,2.8,0.1l1.4,0.3L54.2,7c0.1,0.1,0.7,0.6,0.5,0.4c0.2,0.2,1.2,0.7,1,0.3c0.2-0.2,0.5-0.3,0.7-0.5
		c0.4,0.5,1.3,1.5,1.8,1.7l0.4-0.1c0.6,0.5,0.8,1.3,1.4,1.8c0.5,0.4,2.3,0.4,3.4,1.5c0.7-0.6,1.4-0.9,2-1.8c1.4,0.1,3.7-1,4.8-2.1
		h1.4c0.4,0,3.3-0.1,3.3-0.1c0.5,0.2,0.6,0.8,0.6,1.3c0.2,2.1,0.7,1,1.8,1l0.3,0.2l0,0.1c0.5-0.4,1.7-3.4,2.5-2.5l-0.1,0.2l0.1,0.7
		c0,0.1,1.7,1.3,1.8,1.3v0.2c0.3,0.3,2.1-0.8,2.4-1l0.1-0.3l1.5,1.3l0.1,0.7c0.5,0.5,0.9,0.1,1.3,0.9c0.3-0.1,0.6-0.3,0.9-0.5
		c0,0-0.1,0.5,0.3,0.7c0.2-0.3,0.4,0.2,0.8,0.3"/>
	<path id="path36" class="st1" d="M89.5,13c0.1,0,1-0.2,0.8,0L90,13.1c-0.1,0.2-0.4,0.2-0.6,0.2c-0.2,0.2-0.1,0.4,0.1,0.6
		c-0.1,0.4,1.7,1.4,2.1,1.6c-0.1,0.3,0.3,0.8,0.5,1l-0.1,0.2c0.6,0.7,1.4,1.3,2.1,1.9l-0.3,0.1l-0.3,0.5c0.4,1,0.9,1.9,1.2,2.9
		l-0.3,0.1l0,0.4l-0.3,0c0.8,1.1,2.2,2,3.3,2.8c0.8-0.1,1.6-0.3,2.5-0.4l2.1,1.4c0.5,1.7,1,3.4,1.9,4.9l1.9-0.6l-0.2-0.5l1.3-0.4
		c0.2,0.7,0.3,1.4,0.5,2.1l-0.2,0.1l0.1,0.4l-0.1,0.2l0.3,0.6l0.8-0.2c0.1,0.3,0.2,0.5,0.3,0.8l0.7-0.2l2.8,2.8
		c-0.2,0.5-0.4,0.9-0.5,1.4l0.3,0.3l0.1,0l0.3,1.2c0.4-0.1,0.7-0.2,1.1-0.3c0.4,0.8,0.6,1.6,0.8,2.5l-0.2,0l0.1,0.5l0.3-0.1l0.2,0.9
		c0.3-0.2,0.6,0.1,0.9,0l0.1-0.1c1.2-0.4,2-0.3,3.2-0.2c0.3-0.9,0.4-1.8,0.7-2.7l2.2,0.9c-0.1,0.7-0.3,1.4-0.3,2.2l-0.5,0.1
		c-0.5,1.2-0.3,2.5-0.4,3.7l0.1,0.2l-0.4,1l0.4,0.4c-0.1,0.8-0.1,1.2,0.2,2c-1.8,1.6-0.8,1.8-2.3,3.7c0.1,0.8,0.3,1.6,0.3,2.4
		c0.4-0.1,0.9-0.3,1.3-0.4c0.3,0.5,0.8,1,1.2,1.5l-0.1,0.2l0.7,1.2l-0.2,0.1c0.2,0.4,0.5,0.8,0.7,1.2c-0.1,0-0.3,0.1-0.3,0.2
		c-0.1,0.1-0.3,0.4-0.4,0.5c-1,1.4-1.6,1.5-3,2.2c0.1,0.3,0.1,1,0.1,1v0.7c2.6,0.1,3.4-0.6,5.7,1.3c0.3,0.3,0.6,1.3,0.8,1.4
		c0,0-0.7,0.6-0.9,0.8l0,0.3c0.3,0.3,1.3,1.2,1.7,1.1l0.3,0.1c0.4,0,0.8-0.1,1.1-0.1c0.1,0.3,0.1,0.5,0.2,0.8c0.1,0,0.3,0.1,0.4,0.2
		c-0.1,0.1,0,1,0,1l0.1,0.5c0.3,0,0.7,0.1,1,0.1c0,0.3,0.1,0.7,0.1,1c0.6,0.5,1.2,0.9,1.8,1.3c0.4,0.3,0,1.3,1.6,1.3l0.4,1.4
		c0.9-0.1,1.8-0.4,2.8-0.6l-0.1,1.6c0.4,0,0.8-0.3,1.1-0.4c0.3,0.6,0.6,1.2,0.9,1.8l0.9-0.4c0.3,0.1,0.6-0.3,0.9-0.3l1,0
		c0.2-0.2,0.3-0.4,0.5-0.6l-0.3-0.3c0.3-0.2,0.5-0.4,0.7-0.7c0,0,0.6,0.1,0.8,0c0.1,0.1,0.3,0.3,0.4,0.4v0.4
		c-0.4,0.3,0.4,1.8,0.4,2.3c0.3,0.4,0.7,0.6,1,1l-0.4,0.9c0.3,0.4,0.6,0.8,0.9,1.2l0.3-0.2c1.5,0.2,2.2,1.6,3.1,1.8l0.3-0.3l0-0.1
		L149,84c0.5,0.3,1.7,0.3,1.7,0.3l0.3,0.3c0.2,0.1,0.8,0.3,0.8,0.3c0.5,0.2,0.8,0.6,1.2,0.9c0.2-0.1,0.4-0.2,0.5-0.3
		c0.5,0.2,1,0.4,1.5,0.6c0.1-0.3,0.4-0.5,0.5-0.8l0.4,0.3l0.4,0.6c0.7,0,1,1.2,1.4,1.4c0.8,0.3,1.6,0.5,2.4,0.8
		c0.3,0.4,0.3,1.4,0.8,1.7l0.2,0c0.3,0.1,0.6,0.2,0.9,0.1c0.4,0.6,1.1,2,0.7,2.7c-0.4,0.3-1.2,0.9-1.6,1c-0.3,0.1-0.8-0.2-1,0.2
		h-0.1c-0.2,0.3-0.1,0.8-0.4,1c-0.3,0.7,0.4,0.9,0.6,1.5c-0.2,0.2-0.6,0.4-0.6,0.8c-0.4,0.4-0.8,1.1-1,1.6c-0.3,0-0.8,0.8-0.3,0.9
		c0.1,0.3,0.3,0.6,0.4,0.9c-0.6,0.2-1.3,0.3-1.9,0.6l-0.2-0.1c-0.3,0-0.6,0-0.9-0.1l-0.3,0.5l-0.6,0.3c0,0-1-0.1-1.1,0
		c-0.3,0-0.5,0.3-0.6,0.5c0.2,0.4,0.5,0.8,0.8,1.2l0.3,0.4c0.3,0.1,1.1,0.6,1.4,0.8l0.5,0.5l-0.4,0.6c0.5,0.6,1.2,1,1.8,1.4l0.4-0.1
		c1.7,0.4,2.8,1,4.3,1.9c0.5-0.4,1.2,0.4,1.6,0.6l0,0.2l0.4,0.4l-0.1,0.5c0.1,0.3,0.4,0.6,0.5,0.9l-0.1,0.2c0.1,0.3,0.1,0.9,0.1,1.2
		c-1,0.3-1.8,0.5-2.8,0.7c-0.1,0.3-0.4,0.4-0.6,0.6c-0.2,0-0.4,0-0.6,0l-0.3,0.2c-0.3-0.1-1.2-0.2-1.4,0l0-0.2l-0.4-0.3l-0.5,0
		c0.1,0.2-0.3,0.3-0.4,0.4c-0.2,0-0.3-0.1-0.4-0.1c-0.7-0.5-0.7,0-1.3,0.1l-0.1,0.1c-0.4,0-0.8-0.2-1-0.1l-0.3,0.3
		c-0.2-0.1-0.9-0.1-0.9-0.1c-0.1,0.2-0.3,0.8-0.4,0.9v0.4c0,0-0.1,0.5-0.2,0.6l-0.3,0.4l0.5,0.6c0,0-0.3,0.3-0.4,0.4
		c0,0.2,0,0.4,0.1,0.5c2.6,1.2,1.2,3,2.3,3.5c1.7,0.8,8.8-0.4,11.1,1.5c0.2,0.2,0.5,0.8,0.6,1c0.3,0.5,0.7,1.3,0.8,1.8
		c0.2,1.5-0.6,4.7,1.3,5.4c0.8,0.3,2-0.6,3-0.6c0.8,0,1.3,0.9,2.1,0.9c0.9,0.1,1.7-0.5,2.6-0.6c1.2-0.1,1.6,0.5,2.6,0.7
		c0.5,0.1,1.1-0.3,1.6-0.3c1,0,1.9,0.8,2.8,0.8c1.4,0.1,1.1-0.7,2.6,0.4c1,0.7,2.1,0.4,3.2,0.5c1,0.8,0.4,1.2,0.8,2
		c0.3,0.5,0.8,0.7,1.1,1.1c0.2,0.2,0.3,0.6,0.3,0.8c-0.1,0.5-0.2,2.2,0.2,2.6c0.2,1.3,1.3,1.4,2.1,2.1c0.6,0.6,0.4,1,0.7,1.6
		c0.4,0.7,0.7,0.7,1.3,1.2c1.6,1.3,1.2,1.4,3.4,1.4c2.1,0,1.4-2.1,2.3-3.1c0.5-0.5,0.6-1.3,0.9-1.9c0.8-1.6,2.1-3.1,2.8-4.6
		c0.4-0.9,0.4-1.9,0.8-2.7c0.1-0.2,0.4-0.1,0.6-0.3l0.8-0.7c0.8-0.8-0.8-1,1.9-2.9c0.5-0.4,1.5,0.7,3.3-0.4c2.5-1.5,0-1.9,4.5-2.9
		c1,0.5,5.4,5.5,6.7,6.7c0.3,0.3,0.8,0.4,1.2,0.7c3.1,2.1,3.5-0.9,4.8,1.4c0.5,0.2,1,0.2,1.5,0.5c0.5,0.3,0.6,1,1,1.4
		c1.8,1.9,3.4,3.4,0.2,4.6c-0.7,0.3-1.4,0.9-2.2,0.9c-1.4,0-2.9-3.5-6-2.8c-2.8,0.6-0.8,3-3,5.4c-1.7,1.9-4.4-1-4.8,0.9
		c-0.2,0.9,0.1,1,0.3,1.8c0.5,1.5,1.2,1.4,2.2,2.4c0.2,0.2,0,2.7,0.1,3.2c0.1,0.4,0.4,0.6,0.6,1c0.3,0.8,0.4,1.8,0.8,2.5
		c0.3,0.5,0.8,0.9,1.2,1.3c0.3,0.4,0.4,0.8,0.7,1.2c0.4,0.6,1.2,0.6,1.8,0.8c0.7,0.2,1.4,0.5,2.2,0.5c2.6,0.3,3.5,0.5,3.5,3.4
		c-0.7,0.5-1,2.1-0.6,2.8"/>
	<path id="path42" class="st1" d="M229.3,167.5c-0.3,0.1-0.4,0-0.6,0.1c-0.1,0.1-0.3,0.4-0.5,0.4l-0.5,0.4c-0.3,0.4,0,0.7-0.6,1.2
		c0.3,0,0.5,0.1,0.3,0.4c-0.4,0.6-0.4,0.6-0.4,0.6c0,0.4-0.7,0.1-0.5,0.3l-0.9,0.6c0.1,0.1,0.2,0.2,0.3,0.4l0.6,0.3
		c-0.1,0.2-0.2,0.6-0.1,0.9l-0.3,0.1c-0.3,0.6-0.8,2.6-0.6,3.3c0.1,0.8,0.4,0,0.5,1.5l0,0.6c-0.4,0.3,0.1,0.5,0.4,0.6
		c-0.3,0.3-0.4,0.4-0.2,0.8c-0.7,0.1-1.5,0-2.3,0.1l-0.1,0.6c-0.4,0.1-0.9-0.5-1.4-0.1c-0.4,0.3-1.4,0.1-1.5,0.5l0.6,0.6l0.1,0.6
		c-0.1,0.1-0.3,0.5-0.3,0.6l-0.5,0.4c-0.8,0.5-2-0.1-2.8,0c-0.4,0-0.6,0.4-1,0.4c-0.5,0-0.9-0.2-1.4-0.1l-0.1,0.5
		c-0.5,0.2-2.3,0.3-1.8,0.9l-0.2,1c0,0.1,0,0.5,0.2,0.6c-0.3,0.8,0.3,1.4-0.3,2.5c-0.1,0.1,0.2,0.5,0.1,0.8
		c-0.2,0.6-1.8,0.4-0.9,1.8l-0.1,0.3c0.3,0.4-0.7,4.7-0.8,5.5c0,0.7-0.8,1.4-1.1,1.9c0,0.1-0.2,0.9-0.2,1c0.6,1.5,1.1,2.9,2.2,4.1
		c0.1,0,0.3,0,0.4,0c-0.3,0.8,0,1.8-0.4,2.3c0,0.2,0.2,0.4,0.4,0.5c0.2,0.8,0.3,1.4,0.3,2.2c0,0.2,0.6,0.7,0.7,0.9s0.1,0.4,0.3,0.5
		c0.3,0.2,0.6,0.2,0.8,0.4c0.4,0.3,0.6,0.8,1.1,1.2c0.3,0.2,0.8,0,1.1,0.2c0.4,0.2,0.3,0.5,0.4,0.9c0.9,0.4,0.3,1.2-0.1,1.7
		c0.6,0.8,0.9,1.8,0.4,2.7c0,0.3,0.3,0.5,0.5,0.6c0.1,0.3-0.4,1-0.4,1.3c-0.1,1.2,0.7,1.5,0.8,2.3c0.1,0.7-0.1,1.2,0.2,1.9
		c0,0.1,0.3,0.4,0.4,0.5c0.1,0.1,0,0.4,0.3,0.8c0.7,0.7,0.1,0.6,0.4,1.2c0.1,0.3,0.4,1.1,0.6,1.3c0.3,0.3,0.7,0.4,1,0.6
		c0.1,0.1,0.9-0.4,1.3-0.1c0.5,0.4,0.8,1.3,0.8,1.9c0.6,0.6,1.4,0.7,2.2,1c0.2,0,0.4-0.2,0.5-0.4l1.3,0.5c0,0.9,0.5,0.8,0.4,1.8
		c1.3,1.5,0.8,0.1,1.8,0.8l1.3-0.2c0.1,0,0.6,0.5,0.8,0.6c0.2,0.1,0.5,0,0.7,0.1c0.5,0.3,0.6,0.5,1.2,0.8c0,1.4,0,0.8,0.8,1.6
		c0.4,0.4,0.6,1,1.1,1.4c0.4,0.4,1.3,0.3,1.6,0.9c0.6,1.1-0.4,0.9,1.1,2.7c0,0.3-0.2,0.6-0.1,1c0.4,1.2,0.7,0.4,1.1,0.9
		c0.1,0.2,0.2,0.3,0.4,0.5l0,1c0,0.1,1.2,1.8,1.5,2c0.2,0.6,0.1,0.5,0.8,0.9c0.8,0.4,1.3,0.8,2,1.5c1.3-0.8,1.9,0.2,2.3,0
		c0.3,0.3,0.9,0.7,1.3,0.8c0.1,0.1,0.1,0.3,0,0.4c-0.3,0.3-1.1,1.4-1.2,1.7c0.8,0.4,0.6,1.2,0.5,1.9c0.3,0.5-0.3,1.3-0.5,1.7
		c0,1.4-1.1,1.5-1.9,2.4c-0.8,0.1-1.4,0.4-1.9,1c0,0.6-0.6,1.5-0.5,2c-0.6,0.3-0.6,0.8-0.6,1.4l-1.3,0.8c-1.8,1-1.6,2.4-1.9,2.7
		c-0.5,0.3-1.9,0.9-2.5,1.1c-1.3,0.4-0.2,2.8-0.9,3l-0.2-0.1c-1.1,0.5,0.6,1-0.2,2.4c-0.2,0-0.4,0.2-0.4,0.4c-0.2,0.1-0.4,0.8-0.4,1
		c-0.3,0.2-0.3,0.2-0.4,0.6c-0.3,0.8-1.7,0.5-2.3,1c-0.2-0.1-0.4-0.4-0.5-0.6c-0.2,0.1-0.6,1-1.2,1.4l0.1,0.2
		c-0.4,0.8-0.6-0.1-0.7-0.5c-0.3-0.2-0.5-0.5-0.8-0.6c-0.7-0.4-0.9,0.9-1.8-0.4l-0.4-0.6c-0.6-0.1-1,0.6-1.3,0l-0.8,0.2
		c-0.5,1.6-0.6,0.3-0.6,2.3c-0.5-0.7-2.3-0.9-2.1-1.9c-0.4,0.3-0.8,0.5-1,1c-0.1,0.3-0.3,0.5-0.2,0.8c0,0.1,0.1,0.4,0,0.4
		c-0.8,0.7-1.3,0.8-1.6,1.1c-0.2,0.2-1.1,1.4-1.4,1.2l-0.2-0.2c-0.2,0.2-1.2,0.8-1.5,0.7l-0.1,0.2c0.1,0.4,0,0.9,0.1,1.3
		c0.1,0.4,0.5,0.1,0.6,0.8c0.9,0.6,0,1.2,1.5,2.3c0,1.4,1.3,1.4,1.5,2.3c-0.3,0.4-0.4,0.8-0.3,1.3l-0.6,0.1
		c-0.1,0.5-0.2,0.5-0.6,0.9c-0.1,0.3-0.1,0.6-0.3,0.9c0.5,0.5-0.4,0.8-0.8,0.9c-0.1,0.5,0.7,0.6,1,1c-0.2,0.8-0.3,1.2-1,1.7
		c0.1,0.1-0.3,0.7-0.3,0.7c0.4,0.4,1.2,0.3,0.6,1.2l-0.4,0.1c0.1,0.2-0.4,2.3-0.5,2.8c0.1,0.2-0.3,0.5-0.5,0.6
		c-0.2,0.6,0,1.3-0.1,1.9c0,0.1,0.1,0,0.2,0c0.4-0.1,1.5,0.1,1.7,0.4c1.2,1.6,3.7,3.2,4.8,4.9c-0.4,0.5-0.1,1.2,0.3,1.6l-0.2,0.3
		c-1.4,2.4-0.5,1.5-1.3,3.6c-0.1,0.2,0.3,0.3,0.1,0.7c0.1,0.3-0.3,0.5-0.4,0.7c-0.3,0.3-0.3,0.6-0.3,1c0,1.4-0.9,0.5-1.5,0.5
		c-0.5,0-0.5,0.3-1,0.1c0.1,0.2,0.1,0.4,0.2,0.6c-0.2,1.1-0.8,0.4-0.8,1.3c-1.1,1.5,0.4,1.6-0.8,3.1c-0.7,0-0.9,0.7-1.2,0.7
		l-0.5-0.9c-0.3,0.8-0.9,0-1.2,0.1c-0.1,0.1-0.2,0.3-0.3,0.5c-0.7,0-0.5,0.4-1.3,0.2l-0.6,0c0,0.3-0.2,0.8-0.4,1"/>
	<path id="path46" class="st1" d="M108.4,357.5c0.1,0.4,1.4,1.9,1.7,2c0.9-0.8,2.4-3.1,3.3-1c0.5,1.1,0.4,0.2,1.2,0.1
		c0.5-0.3,0.9-0.6,1.4-0.9c0,0,0.5-0.2,0.8-0.4c0.1-0.1,0-0.7,0.1-1c0.2-0.5,0.5-0.3,0.7-0.5c1-1,0.4-1.3,2-2
		c0.1-0.2-0.4-0.4-0.5-0.4c-0.4-0.3-1.2-1-1.3-1.5c-0.1-0.3,0.9-0.6,0.7-1.2c-0.3-0.7-0.6-1.3-1-1.9c0-0.1,0-3.1-0.1-3.5
		c0.2-0.5,0.8-0.8,0.9-1.3c-0.2-0.2-0.4-0.5-0.3-0.8c0.6-0.3,1.2-0.9,1.6-1.5c-0.1-0.1-0.1-0.3-0.1-0.4l0.5-0.5
		c0.2-0.1,0.4,0.1,0.6,0.1c0.4,0.1,1-0.1,1.4-0.2c0.8-0.1,0.7-1.1,1-1.2c0.4-0.1,0.4,0.1,0.9-0.1c1,0.4,1.5,0.4,2.2-0.4
		c0.3-0.4,1.2-0.9,1.1-1.4c0.1-0.1,0.3-0.4,0.2-0.5l0.4,0.1c0.3-0.2,0.6-0.7,1-0.8c0.5-0.1,1,0.1,1.4,0.1c0.4-0.1,0.2-0.3,0.9-0.2
		c0.5-0.4,1.2-0.4,1.5-0.9c0.3-0.1,0.7,0,1-0.1c0.2-0.4,0.6-0.8,1-1.1l0.3,0c0.4-0.3,0.5-0.9,0.8-1.3c0.3-0.4,0.8-0.4,1.2-0.6
		c0.3-0.2,1.2-1.4,1.4-1.4c0.3,0,0.6,0,0.9-0.1c0.1,0.1,0.1,0.4,0.4,0.4c0.4,0.1,1.9,0.1,2.3,0.4c0.2,0.1,0.1,0.7,0.2,0.9
		c0.1,0.4,0.5,0.2,0.4,0.9c0.1,0.1,0.3,0.4,0.3,0.6l0.6,0.5c0.1,0.1,0.3,0.9,0.4,1.2c0.2,0.4,1,0.9,1,1.3c0,0.5-0.2,1-0.2,1.4
		c0,0.6,0.5,0.6,0.5,1.3c1-0.2,0.8,0.2,1.5,0.3c0.2,0,0.7-0.3,1.3-0.2c0.5-0.6,0.6-0.7,1.4-0.7c0-0.3,0.5-0.1,0.7,0.1
		c0.1,0.2,0.9-0.3,1-0.5c-0.2-0.3-0.4-1.2-0.6-1.1c-0.3-0.5,0.1-0.4-0.5-0.9c0,0-0.3-0.5-0.4-0.7l0.4-0.3c0.2-0.5,0.5-0.9,0.8-1.3
		c0-0.3-0.3-0.4-0.1-0.8c0.3-0.5,0.8-0.8,1-1.4c0.1-0.4-0.3-0.8-0.1-1c0.4-0.9,0.6,0.6,1.2-0.9c0.4-1,0.7-0.5,1.2-1.1
		c0.4-0.5,0-0.4,0.7-1.2c-0.3-0.6,1.3-0.6,1.4-0.6c0.5,0.1,1,1.8,1.8,1.5c1.1-0.4-0.4-1.9-0.4-2.3c0.1-0.3,0.5-0.6,0.7-0.9
		c0.1-0.3-0.6-0.8,0.1-0.8c0.4,0,0.4,0.6,1,0.5c0.6-0.2-0.3-0.6,0.7-0.9c0.6-0.1,0.5,0.4,0.8,0.7c0.2,0.1,0.7-0.3,1,0
		c0.6,0.5,0.6,3,1.6,2.6c0.4-0.2,0.6-1,1.1-0.2c0.7,0,1.8-2.4,2.6-1l0.8-0.3c0.4,0.2,0.9,0.3,1.3,0.5l0.1,0.3c0.3,0.1,1,0,1.2,0.1
		c0.5,0.3,1.9,0.6,2.1,1.1c0.1,0.2,0.4,0.3,0.6,0.2l0.1-0.5c0.5-0.1,0.9-1.5,1.3-2c0.4-0.1,1.7,0.7,2.1,0.4c0.4-0.3,0.4-1.3,0.6-1.6
		c0.9-0.1,1-0.8,1-1.5c1.6,1,1.3,0.5,2.2-0.6c0.1-0.2,0.3-0.3,0.4-0.5c0.1-0.3-0.2-1.1,0.3-1.2h0.4c1,0,1.5,1.8,1.7,1.2
		c0.3,0.1,0.3,0.8,1.2,0.6c0.4,0,1.8-0.4,2-0.8c0.2-0.6-0.1-2.4,0.6-2.6l0.2,0.1c0.1,0.2,1.9,1.5,2.2,1.5c0.1,0.2,0.8,0.4,0.7,0.5
		l0.5,0.4l0.1,0.3c0.6,0.2,1,1,1.4,1c0.4,0,0.4-1,1-0.7c0.2,0.1,1,1.4,1.3,0.3c0.5,0,0.9,0.1,1.4,0.1c0.2-0.2,0.3-0.6,0.4-0.9
		l0.4,0.2c0.3-0.1,0.3-0.6,0.6-0.2c0.7,1,1.2-0.1,1.4-0.8c0.3,0.4,0.8,0.3,1,0.6l0.3,0.2l0.5-0.7c0.6,0.1,0.3-0.8,0.4-1
		c0.3-0.1,1.3-0.7,1.3-0.2l1.4-0.1c0.1,0,0.9-0.7,0.8-0.8c-0.2,0,0-0.3,0.1-0.5c0.1-1,0.4-0.5,0.9-1c0.3,0.1,0.3,0.5,0.5,0.4
		c0.6-0.1,0.1-1,2.2-1c-0.4,0.2-0.5,0.4-0.6,0.8c-0.1,0.4-0.6,0.8-0.3,1.2c0.3,0.6,1.9,1.7,2.4,2.3c0,0.1,0.3,0.1,0.3,0.1
		c0.4,0.1,0.8,0.3,1.2,0.6"/>
	<path id="path50" class="st1" d="M108.4,357.5c0-1.2-0.8-2.2-1.1-3.2h0.5c0.5-0.4,0.4-1.4,1.4-1c0.3-0.5,0.1-0.3,0.6-0.7
		c0.4-0.3,0.6-2.7,0.4-3.1c-0.3-0.5-0.6-0.5-0.9-1.3c-0.2-0.8,0-1.7-0.7-2.4c0-3-0.8-1.9-1.5-3.1c-0.4-0.6-0.6-1.3-0.9-1.9
		c-0.1-0.1,0.6-0.8,0.6-1.2c-0.8-1.2,0.2-1.1,0.1-1.9c0-0.7-1.1-1.3-0.5-2.1c-0.2-0.4-0.6-0.6-0.9-1c0.1-0.2,0.1-0.4,0-0.6
		c-0.7-0.9-0.7-3-1.2-3.6c-0.3-0.4-0.4-0.5-0.5-1c-1.5-0.5-0.4-1.1-1.4-1.6c-0.3-0.8-0.7-0.3-1-1.4c-0.4-0.3-0.8-0.6-1.2-1
		c-0.1-0.1-0.6-0.1-0.8-0.3l-0.8-0.1l-0.2-0.4c-0.4-0.1-0.9,0-1.2-0.3c-0.2-0.2-0.3-1.3-0.7-1.1l-0.2,0c-0.2-0.3-1.7-0.7-2-0.8
		c0.1-0.1,0.1-0.4,0.1-0.6c-0.2-0.2-0.3-0.4-0.5-0.6c-0.3-0.1-0.3-0.2-0.4-0.3c-1-0.3-1.4,1.5-2.2,0.8c-0.1-0.1-0.3-0.1-0.4-0.4
		c-0.5-0.3-1.8,0.8-2.2,0c-0.2-0.1-0.4,0-0.6-0.2c0.1-0.7-0.1-1.5-0.7-1.8c0.2-0.2,0.5-0.3,0.7-0.5c0-0.4,0-0.8,0.1-1.2
		c-0.3-0.4-0.1-0.6-0.3-1c-0.3-0.1-1.9-1.5-1.9-1.7c0.2-0.1,0.2-0.4,0.3-0.6c0.1-0.4,0.9-0.2,0.8-1c0-0.3-0.4-1-0.5-1.3
		c-0.6-0.1-0.5-0.7-0.7-0.9c-0.8-0.6-1,0-0.4-1.1c0.1-0.3-0.6-0.8-0.8-0.9c-0.3-0.3-0.1-0.8-0.2-1.1c-0.4-0.3-0.6-0.5-0.8-1
		c0.1-0.1,0.1-0.4,0-0.6c-0.8-0.3-3-1.8-3.9-2.2c-0.2-0.5-0.3-0.7-0.6-1.1c0-0.4-0.3-0.5-0.6-0.8"/>
	<path id="path54" class="st1" d="M29.4,223.5c-0.7,1.5,0.2,1.5,0.1,2.1l-0.2,1.5c0.3,0.2,0.5,0.6,0.8,0.9c0.6,0.6,1.5,0.8,2.1,1.4
		l0.2,0c0.5,0.3,0.9,0.7,1.4,0.9c0.3,0.1,0.6-0.1,0.8,0c1,0.6,2.1,1.2,3,1.9c0.6,0.4,1.3,1.7,1.9,1.8c0.7,0.3,1.7,0.1,2.3,0.6
		c0.3,0.3,0.2,0.7,0.3,1c0.1,0.4,0.5,0.7,0.5,1c0,0.3-0.1,0.6-0.1,0.8c0.4,0.7,0.6,0.4,0.9,0.8c0.3,0.3,0.3,0.8,0.5,1
		c0.3,0.3,1,0.4,1.5,0.8c0.4,1.5-0.6,3.5,0.8,4.9c2.2,2.1,2.2,0.8,3.2,1.4c0.3,0.2,2.6,3.6,2.7,4c0.1,0.5-0.1,1.4,0.4,1.7
		c1.4,1,4.1,0.4,5.8,0.5c0.5,0,0.7,0.4,1.1,0.6c1,0.4,2.1-0.7,1.9,1.4c0,0.1-0.1,0.3-0.2,0.4c0.1,0.3,0.9,0.8,1.2,1l0.2,0.5
		c1.6,0.7,1.3,1.8,1.8,1.9c0.3,0.1,0.6-0.5,1.3-0.4c0.4,0.1,0.6,0.5,1,0.6c0.7,0.2,3.7,0.9,4.3,0.8c0.4-0.1,0.6-0.4,0.9-0.5
		c0.1,0.3,0.1,0.7,0.3,1c1.2,2.8,1.6,2.6,4,4.1c0.4,0,0.6,0.3,0.9,0.4s0.7,0.1,1.1,0.1l0.2,0.4c-0.1,0.3-2.3,1.7-2.2,2.2
		c0.3,0.1,1.7-0.6,2.1-0.6c0.5,0.5,1.2,0.7,0.9,1.5l0.4,0.1c0.1,0.3,0,0.2,0.3,0.2c0.9-0.4,1,0.6,1.3,0.6c0.1-0.4,0.6-0.5,0.8-0.9
		c0.4-0.2,1.1-0.1,1.1-0.1h0.3l0.1,0.3c0.9,0.1,0.9,0.4,1.5,0.9c0.8,0.6,0.9,0.2,1.3,0.4c0.4,0.1,0.5,0.8,0.9,1
		c0.6,0.4,1.4,0.3,2.1,0.6c0.5,0.3,0.8,0.7,1.5,0.6c1.6,1.6,1.2,0.1,2.4,0.2c0.1,0.1,0.2,0.3,0.2,0.4c0.3,0.1,0.7-0.1,0.9-0.1
		c-0.5,0.7,0.2,1.4,0.1,2.1c-0.1,0.7-0.3,1.4-0.4,2.2c0,0.4,0.3,0.8,0.3,1.2c0.1,0.5-0.3,0.7,0.4,1.1c0,0.2,0,0.5,0.2,0.6v0.2
		c-0.2-0.1-0.5-0.1-0.8,0c-0.3-0.3-0.4-0.3-0.8-0.3l-0.6,0.5l0,0.3c-0.2,0.1-0.6,0.4-0.8,0.6c-0.2-0.1-0.8-0.4-0.8-0.6
		c-0.8,0.1-1.5,0.6-2.2,0.9c-0.1,0-0.5,0.7-0.8,0.9l0,0.4c-0.4,0.6-0.8,1.2-1.6,1c0.2,0.8,0.9,1.9-0.3,1c-0.2,0.1-0.4,1.3-0.5,1.5
		c-0.4,0-0.5-0.1-0.9-0.2l-0.6,0.1c-0.5,0.1-1,0.2-1.5,0.2c-0.5-0.2-0.9-0.7-1.4-0.8c-0.5-0.1-0.3,0.4-0.8,0.1
		c-0.2-0.1-0.2-0.4-0.4-0.5c-0.2-0.1-1-0.3-1.4-0.4c-0.3-0.1-0.6-0.5-0.9-0.6c-1,0.3-1.7,1.4-2.2,1.2l-0.4,0.2l-0.3-0.1
		c-0.8,1.5-1.7,0.9-1.9,2.1c0.2,0.1,0.3,0.4,0.5,0.5c-0.1,0.5-0.3,0.6-0.1,1.2l-0.9,0.3c0.3,0.3,0.3,0.5,0.3,0.8l0.5,0.1
		c0.3,0.6-0.2,1.3,1,1.2l-0.1,0.5c0.8,0.3,2.2,0.1,2.7,0.3c0.5,0.1,1.2,1.3,2.5,1.4c0.1,0.2,0.4,0.4,0.6,0.5c0.2,0,0.4,0,0.5,0.1
		l-0.1,0.5c-1.2,0.8-0.9,1.3-1.3,1.6c-1.7,1.5-0.1,2.6,0,4.2c0,0.3-0.7,1.2-0.4,1.8"/>
</g>
<circle class="st2" cx="74.1" cy="78.7" r="2.8"/>
<circle class="st2" cx="100.7" cy="104.4" r="2.8"/>
<circle class="st2" cx="78" cy="160.5" r="2.8"/>
<circle class="st2" cx="122.5" cy="174.1" r="2.8"/>
<path class="st3" d="M81.3,52.5L81.3,52.5c-4-4-10.5-4-14.4,0l0,0c-3.6,3.6-4,10.3-0.9,14.4l8.2,11.8l8.2-11.8
	C85.3,62.8,84.9,56.1,81.3,52.5z M74.2,63c-1.8,0-3.4-1.5-3.4-3.4c0-1.8,1.5-3.4,3.4-3.4c1.8,0,3.4,1.5,3.4,3.4
	C77.6,61.5,76,63,74.2,63z"/>
<path class="st4" d="M106.4,83.9L106.4,83.9c-3.1-3.1-8.1-3.1-11.3,0l0,0c-2.8,2.8-3.1,8.1-0.8,11.3l6.4,9.2l6.4-9.2
	C109.5,92,109.2,86.7,106.4,83.9z M100.9,92.1c-1.5,0-2.6-1.2-2.6-2.6s1.2-2.6,2.6-2.6s2.6,1.2,2.6,2.6S102.3,92.1,100.9,92.1z"/>
<g>
	<path class="st3" d="M334.4,75.8h4.4v25.9h-3.5l-14-18.2v18.2h-4.4V75.8h3.5l13.9,18.1L334.4,75.8L334.4,75.8z"/>
	<path class="st3" d="M347.6,100.8c-1.4-0.8-2.5-1.9-3.3-3.3s-1.1-3.1-1.1-5.1c0-1.9,0.4-3.6,1.1-5.1c0.8-1.4,1.9-2.6,3.3-3.3
		c1.4-0.8,3.1-1.2,4.9-1.2c1.8,0,3.5,0.4,4.9,1.2c1.4,0.8,2.5,1.9,3.3,3.3c0.8,1.4,1.1,3.1,1.1,5.1c0,1.9-0.4,3.6-1.1,5.1
		c-0.8,1.4-1.9,2.6-3.3,3.3c-1.4,0.8-3,1.2-4.9,1.2S349,101.6,347.6,100.8z M356,96.9c0.8-1,1.2-2.5,1.2-4.5s-0.4-3.5-1.2-4.5
		s-2-1.5-3.5-1.5s-2.7,0.5-3.5,1.5s-1.2,2.5-1.2,4.5s0.4,3.5,1.2,4.5s2,1.5,3.5,1.5S355.2,97.9,356,96.9z"/>
	<path class="st3" d="M378.3,83.3h4.5l-8,18.3h-4l-8-18.3h4.8l5.3,13.2L378.3,83.3z"/>
	<path class="st3" d="M384.9,75h5.1v4.5h-5.1V75z M385.1,101.7V83.3h4.5v18.4H385.1z"/>
	<path class="st3" d="M408.1,101.2c-1.7-0.5-3.2-1.3-4.4-2.3l1.6-3.4c1.3,0.9,2.6,1.6,3.9,2.1c1.4,0.4,2.9,0.7,4.5,0.7
		c1.8,0,3.2-0.3,4.2-0.9s1.5-1.5,1.5-2.7c0-1-0.5-1.7-1.4-2.2s-2.4-1-4.5-1.5c-3.3-0.7-5.6-1.6-7.1-2.7c-1.5-1.1-2.2-2.8-2.2-5
		c0-1.5,0.4-2.9,1.2-4.1s2-2.1,3.5-2.8c1.5-0.7,3.3-1,5.3-1c1.8,0,3.5,0.3,5.2,0.8s3,1.3,4,2.3l-1.6,3.4c-2.3-1.8-4.9-2.8-7.6-2.8
		c-1.7,0-3,0.3-4,1c-1,0.7-1.5,1.6-1.5,2.8c0,1,0.4,1.8,1.3,2.3c0.9,0.5,2.3,1,4.4,1.5c2.2,0.5,3.9,1.1,5.3,1.7
		c1.4,0.6,2.4,1.4,3.1,2.3c0.7,0.9,1.1,2.1,1.1,3.5c0,1.6-0.4,2.9-1.2,4.1c-0.8,1.2-2,2-3.6,2.7c-1.6,0.6-3.4,0.9-5.5,0.9
		C411.7,102,409.9,101.7,408.1,101.2z"/>
	<path class="st3" d="M445.6,83.3v18.4h-4.4v-2.9c-0.6,1-1.4,1.8-2.4,2.4c-1,0.6-2.2,0.9-3.6,0.9c-1.6,0-3-0.4-4.3-1.2
		c-1.2-0.8-2.2-1.9-2.9-3.3c-0.7-1.4-1-3.1-1-5s0.3-3.6,1-5c0.7-1.5,1.7-2.6,2.9-3.4s2.6-1.2,4.2-1.2c1.3,0,2.5,0.3,3.6,0.9
		c1,0.6,1.8,1.4,2.4,2.4v-3C441.1,83.3,445.6,83.3,445.6,83.3z M439.9,96.8c0.8-1,1.2-2.5,1.2-4.4s-0.4-3.4-1.2-4.5s-2-1.6-3.5-1.6
		s-2.7,0.5-3.5,1.6s-1.3,2.6-1.3,4.5s0.4,3.3,1.3,4.4c0.8,1,2,1.5,3.5,1.5C437.9,98.4,439.1,97.9,439.9,96.8z"/>
	<path class="st3" d="M468.2,74.9v26.8h-4.5v-2.9c-0.6,1-1.4,1.8-2.4,2.4s-2.2,0.9-3.6,0.9c-1.6,0-3-0.4-4.2-1.2
		c-1.2-0.8-2.2-1.9-2.9-3.4s-1-3.1-1-5s0.3-3.6,1-5s1.6-2.5,2.9-3.3c1.2-0.8,2.7-1.2,4.3-1.2c1.3,0,2.5,0.3,3.5,0.8s1.8,1.3,2.4,2.3
		V74.9H468.2z M462.4,96.8c0.8-1,1.3-2.5,1.3-4.4s-0.4-3.4-1.2-4.4s-2-1.6-3.5-1.6s-2.7,0.5-3.5,1.5s-1.3,2.5-1.3,4.4
		s0.4,3.4,1.3,4.5c0.8,1.1,2,1.6,3.5,1.6C460.4,98.4,461.6,97.9,462.4,96.8z"/>
</g>
<g>
	<path class="st5" d="M335.6,133.3c0.8,1.1,1.2,2.4,1.2,4c0,2.3-0.8,4-2.3,5.2s-3.6,1.8-6.4,1.8h-10.8v-25.8h10.4
		c2.6,0,4.7,0.6,6.2,1.8c1.5,1.2,2.2,2.8,2.2,5c0,1.4-0.4,2.6-1.1,3.6c-0.7,1-1.7,1.8-3,2.2C333.6,131.5,334.7,132.3,335.6,133.3z
		 M320.4,130h7c1.9,0,3.4-0.4,4.4-1.2c1-0.8,1.5-1.9,1.5-3.4c0-3-2-4.4-5.9-4.4h-7V130z M332.4,140.8c1-0.8,1.4-1.9,1.4-3.5
		c0-3.2-2-4.8-5.9-4.8h-7.6v9.4h7.6C330,142,331.5,141.6,332.4,140.8z"/>
	<path class="st5" d="M357.2,135.2h-13.4c0,2.3,0.6,4.1,1.6,5.3c1.1,1.2,2.6,1.8,4.6,1.8c2.1,0,4.1-0.7,5.9-2.1l1,2.1
		c-0.8,0.8-1.8,1.3-3.1,1.8s-2.5,0.7-3.8,0.7c-2.9,0-5.1-0.8-6.7-2.5c-1.6-1.7-2.4-4-2.4-6.9c0-1.9,0.4-3.5,1.1-5
		c0.7-1.4,1.7-2.6,3.1-3.4c1.3-0.8,2.8-1.2,4.5-1.2c2.4,0,4.3,0.8,5.7,2.4c1.4,1.6,2.1,3.8,2.1,6.6v0.4
		C357.4,135.2,357.2,135.2,357.2,135.2z M345.7,129.4c-1,0.9-1.6,2.2-1.8,3.9h10.7c-0.1-1.7-0.6-3-1.5-3.9c-0.9-0.9-2.1-1.3-3.6-1.3
		C347.9,128,346.6,128.4,345.7,129.4z"/>
	<path class="st5" d="M364.7,143.5c-1.3-0.8-2.3-1.9-3-3.3c-0.7-1.4-1.1-3.1-1.1-5c0-1.9,0.4-3.6,1.1-5c0.7-1.4,1.7-2.5,3-3.3
		s2.8-1.2,4.6-1.2c1.7,0,3.2,0.4,4.5,1.2c1.3,0.8,2.3,1.9,3,3.3c0.7,1.4,1.1,3.1,1.1,5c0,1.9-0.4,3.6-1.1,5c-0.7,1.4-1.7,2.5-3,3.3
		s-2.8,1.2-4.5,1.2C367.5,144.7,366,144.3,364.7,143.5z M373.4,140.4c1-1.2,1.5-3,1.5-5.3c0-2.2-0.5-4-1.5-5.2s-2.4-1.8-4.1-1.8
		c-1.8,0-3.2,0.6-4.2,1.8c-1,1.2-1.5,3-1.5,5.2c0,2.3,0.5,4.1,1.5,5.3c1,1.2,2.4,1.8,4.2,1.8C371,142.2,372.4,141.6,373.4,140.4z"/>
	<path class="st5" d="M398.8,126.1v18.2c0,2.7-0.7,4.8-2.1,6.2c-1.4,1.4-3.5,2.1-6.2,2.1c-2.8,0-5.2-0.6-7.2-1.9l0.5-2.4
		c1.2,0.7,2.3,1.1,3.3,1.4s2.2,0.4,3.4,0.4c1.8,0,3.1-0.5,4-1.4c0.9-0.9,1.3-2.3,1.3-4.2v-4.3c-0.6,1.2-1.4,2.1-2.5,2.7
		c-1.1,0.6-2.4,1-3.8,1c-1.6,0-3-0.4-4.3-1.1c-1.3-0.8-2.2-1.8-2.9-3.2c-0.7-1.4-1-3-1-4.8s0.3-3.4,1-4.8c0.7-1.4,1.6-2.5,2.9-3.2
		c1.3-0.8,2.7-1.1,4.3-1.1c1.5,0,2.7,0.3,3.8,0.9s1.9,1.5,2.5,2.7v-3.2C395.8,126.1,398.8,126.1,398.8,126.1z M394.3,139.6
		c1-1.2,1.5-2.8,1.5-4.9c0-2.1-0.5-3.7-1.5-4.9c-1-1.2-2.4-1.8-4.2-1.8s-3.2,0.6-4.2,1.8s-1.5,2.8-1.5,4.9c0,2.1,0.5,3.7,1.5,4.9
		s2.4,1.8,4.2,1.8C391.9,141.4,393.3,140.8,394.3,139.6z"/>
	<path class="st5" d="M414.6,125.9l-0.1,2.7c-0.6-0.2-1.2-0.3-1.9-0.3c-1.8,0-3.1,0.6-3.9,1.7c-0.9,1.1-1.3,2.4-1.3,4v10.4h-2.9
		v-13.1c0-1.9-0.1-3.6-0.3-5.1h2.8l0.3,3.4c0.5-1.2,1.2-2.2,2.2-2.8c1-0.7,2.2-1,3.5-1C413.6,125.7,414.1,125.8,414.6,125.9z"/>
	<path class="st5" d="M433.4,126.1v18.3h-2.9v-3.3c-0.5,1.1-1.3,2-2.4,2.6c-1.1,0.6-2.3,0.9-3.8,0.9c-1.6,0-3.1-0.4-4.3-1.2
		s-2.2-1.9-2.8-3.3c-0.7-1.4-1-3.1-1-5c0-1.9,0.3-3.6,1-5c0.7-1.4,1.6-2.6,2.9-3.4s2.6-1.2,4.2-1.2c1.4,0,2.7,0.3,3.7,0.9
		c1.1,0.6,1.9,1.5,2.4,2.7v-3.2h3L433.4,126.1L433.4,126.1z M429,140.4c1-1.2,1.5-3,1.5-5.2s-0.5-4-1.5-5.2s-2.4-1.8-4.1-1.8
		s-3.2,0.6-4.2,1.9s-1.5,3-1.5,5.2s0.5,4,1.5,5.2s2.4,1.8,4.2,1.8C426.7,142.2,428,141.6,429,140.4z"/>
	<path class="st5" d="M455.2,117.6v26.8h-2.9v-3.3c-0.5,1.1-1.3,2-2.4,2.6c-1.1,0.6-2.3,0.9-3.8,0.9c-1.6,0-3-0.4-4.2-1.2
		c-1.2-0.8-2.2-1.9-2.9-3.4c-0.7-1.4-1-3.1-1-5c0-1.9,0.3-3.5,1-5c0.7-1.4,1.6-2.5,2.9-3.3c1.2-0.8,2.7-1.2,4.3-1.2
		c1.4,0,2.7,0.3,3.7,0.9c1.1,0.6,1.9,1.5,2.4,2.6v-11.4H455.2z M450.8,140.4c1-1.2,1.5-3,1.5-5.2s-0.5-4-1.5-5.2s-2.4-1.8-4.1-1.8
		s-3.2,0.6-4.2,1.8c-1,1.2-1.5,2.9-1.5,5.1c0,2.3,0.5,4,1.5,5.3s2.4,1.9,4.2,1.9S449.9,141.6,450.8,140.4z"/>
</g>
<g>
	<path class="st5" d="M317.4,162.9h10.3c2.7,0,4.8,0.6,6.2,1.9c1.5,1.3,2.2,3.1,2.2,5.3s-0.8,4-2.3,5.3s-3.6,1.9-6.2,1.9h-7.4v11.4
		h-3v-25.8C317.2,162.9,317.4,162.9,317.4,162.9z M327.5,175c1.9,0,3.4-0.4,4.3-1.2c1-0.8,1.5-2,1.5-3.6s-0.5-2.7-1.5-3.5
		s-2.4-1.2-4.3-1.2h-7.1v9.6h7.1V175z"/>
	<path class="st5" d="M355.5,179.6h-13.4c0,2.3,0.6,4.1,1.6,5.3c1.1,1.2,2.6,1.8,4.6,1.8c2.1,0,4.1-0.7,5.9-2.1l1,2.1
		c-0.8,0.8-1.8,1.3-3.1,1.8s-2.5,0.7-3.8,0.7c-2.9,0-5.1-0.8-6.7-2.5c-1.6-1.7-2.4-4-2.4-6.9c0-1.9,0.4-3.5,1.1-5
		c0.7-1.4,1.7-2.6,3.1-3.4c1.3-0.8,2.8-1.2,4.5-1.2c2.4,0,4.3,0.8,5.7,2.4c1.4,1.6,2.1,3.8,2.1,6.6v0.4L355.5,179.6L355.5,179.6z
		 M344,173.8c-1,0.9-1.6,2.2-1.8,3.9h10.7c-0.1-1.7-0.6-3-1.5-3.9s-2.1-1.3-3.6-1.3C346.2,172.4,345,172.8,344,173.8z"/>
	<path class="st5" d="M363.8,172.8v10c0,1.4,0.3,2.3,0.8,2.9c0.6,0.5,1.3,0.8,2.4,0.8c0.7,0,1.3-0.1,2-0.3v2.5
		c-0.8,0.2-1.6,0.4-2.5,0.4c-1.7,0-3.1-0.5-4.1-1.5s-1.5-2.4-1.5-4.4v-10.4h-3.6v-2.3h3.6v-4.7l2.9-1.1v5.8h5.2v2.3H363.8z"/>
	<path class="st5" d="M388.3,177.3v11.5h-2.9v-11.4c0-1.7-0.3-2.9-1-3.7s-1.7-1.2-3.2-1.2c-1.7,0-3.1,0.5-4.1,1.6
		c-1,1-1.5,2.5-1.5,4.2v10.5h-2.9v-13.2c0-1.9-0.1-3.6-0.3-5.1h2.8l0.3,3.3c0.6-1.2,1.4-2.1,2.5-2.7c1.1-0.6,2.4-1,3.8-1
		C386.1,170.1,388.3,172.5,388.3,177.3z"/>
	<path class="st5" d="M393.6,162.8h3.6v3.3h-3.6V162.8z M393.9,188.8v-18.3h2.9v18.3H393.9z"/>
	<path class="st5" d="M405.6,187.9c-1.3-0.8-2.3-1.9-3.1-3.3c-0.7-1.4-1.1-3.1-1.1-5s0.4-3.6,1.1-5c0.7-1.4,1.8-2.6,3.1-3.4
		c1.3-0.8,2.9-1.2,4.7-1.2c1.2,0,2.4,0.2,3.6,0.6c1.2,0.4,2.1,1,2.9,1.8l-1,2.2c-0.9-0.7-1.8-1.3-2.7-1.6s-1.7-0.5-2.6-0.5
		c-1.9,0-3.3,0.6-4.4,1.9c-1.1,1.3-1.6,3-1.6,5.2s0.5,3.9,1.6,5.2c1.1,1.2,2.5,1.8,4.4,1.8c0.9,0,1.8-0.2,2.6-0.5
		c0.9-0.3,1.8-0.9,2.7-1.6l1,2.2c-0.8,0.7-1.8,1.3-2.9,1.7c-1.2,0.4-2.4,0.6-3.7,0.6C408.5,189.1,406.9,188.7,405.6,187.9z"/>
	<path class="st5" d="M436.7,170.5v18.3h-2.9v-3.3c-0.5,1.1-1.3,2-2.4,2.6c-1.1,0.6-2.3,0.9-3.8,0.9c-1.6,0-3.1-0.4-4.3-1.2
		s-2.2-1.9-2.8-3.3c-0.7-1.4-1-3.1-1-5s0.3-3.6,1-5s1.6-2.6,2.9-3.4s2.6-1.2,4.2-1.2c1.4,0,2.7,0.3,3.7,0.9c1.1,0.6,1.9,1.5,2.4,2.7
		v-3.2h3L436.7,170.5L436.7,170.5z M432.3,184.8c1-1.2,1.5-3,1.5-5.2s-0.5-4-1.5-5.2s-2.4-1.8-4.1-1.8s-3.2,0.6-4.2,1.9
		c-1,1.3-1.5,3-1.5,5.2s0.5,4,1.5,5.2s2.4,1.8,4.2,1.8C430,186.6,431.3,186,432.3,184.8z"/>
</g>
<g>
	<path class="st5" d="M337.6,232.3h-3.9L320.3,220v12.3h-3v-25.9h3v11.9l12.7-11.9h3.8L323.3,219L337.6,232.3z"/>
	<path class="st5" d="M350.3,213.8l-0.1,2.7c-0.6-0.2-1.2-0.3-1.9-0.3c-1.8,0-3.1,0.6-3.9,1.7c-0.9,1.1-1.3,2.4-1.3,4v10.4h-2.9
		v-13.2c0-1.9-0.1-3.6-0.3-5.1h2.8l0.3,3.4c0.5-1.2,1.2-2.2,2.2-2.8c1-0.7,2.2-1,3.5-1C349.2,213.6,349.8,213.6,350.3,213.8z"/>
	<path class="st5" d="M369.1,214v18.3h-2.9V229c-0.5,1.1-1.3,2-2.4,2.6c-1.1,0.6-2.3,0.9-3.8,0.9c-1.6,0-3.1-0.4-4.3-1.2
		s-2.2-1.9-2.8-3.3c-0.7-1.4-1-3.1-1-5s0.3-3.6,1-5s1.6-2.6,2.9-3.4s2.6-1.2,4.2-1.2c1.4,0,2.7,0.3,3.7,0.9c1.1,0.6,1.9,1.5,2.4,2.7
		v-3.2h3L369.1,214L369.1,214z M364.7,228.3c1-1.2,1.5-3,1.5-5.2s-0.5-4-1.5-5.2s-2.4-1.8-4.1-1.8s-3.2,0.6-4.2,1.9
		c-1,1.3-1.5,3-1.5,5.2s0.5,4,1.5,5.2s2.4,1.8,4.2,1.8C362.3,230.1,363.7,229.5,364.7,228.3z"/>
	<path class="st5" d="M391.1,214v18.2c0,2.7-0.7,4.8-2.1,6.2c-1.4,1.4-3.5,2.1-6.2,2.1c-2.8,0-5.2-0.6-7.2-1.9l0.5-2.4
		c1.2,0.7,2.3,1.1,3.3,1.4c1,0.3,2.2,0.4,3.4,0.4c1.8,0,3.1-0.5,4-1.4s1.3-2.3,1.3-4.2v-4.3c-0.6,1.2-1.4,2.1-2.5,2.7
		c-1.1,0.6-2.4,1-3.8,1c-1.6,0-3-0.4-4.3-1.1c-1.3-0.8-2.2-1.8-2.9-3.2s-1-3-1-4.8s0.3-3.4,1-4.8c0.7-1.4,1.6-2.5,2.9-3.2
		c1.3-0.8,2.7-1.1,4.3-1.1c1.5,0,2.7,0.3,3.8,0.9c1.1,0.6,1.9,1.5,2.5,2.7V214L391.1,214L391.1,214z M386.6,227.5
		c1-1.2,1.5-2.8,1.5-4.9c0-2.1-0.5-3.7-1.5-4.9s-2.4-1.8-4.2-1.8s-3.2,0.6-4.2,1.8s-1.5,2.8-1.5,4.9c0,2.1,0.5,3.7,1.5,4.9
		s2.4,1.8,4.2,1.8S385.6,228.7,386.6,227.5z"/>
	<path class="st5" d="M412.1,214v18.3h-2.9v-3.2c-0.6,1.1-1.4,2-2.4,2.5c-1,0.6-2.2,0.9-3.5,0.9c-2.2,0-3.8-0.6-4.9-1.8
		c-1.1-1.2-1.7-3-1.7-5.4v-11.4h2.9v11.4c0,1.7,0.3,2.9,1,3.6c0.7,0.8,1.7,1.2,3.1,1.2c1.6,0,2.9-0.5,3.9-1.6s1.5-2.4,1.5-4.2V214
		H412.1z"/>
	<path class="st5" d="M414.7,237.8c2,0,3.1-1.2,3.1-3.6v-20.1h2.9v20.5c0,1.9-0.5,3.4-1.4,4.4s-2.3,1.5-3.9,1.5
		c-0.8,0-1.6-0.1-2.4-0.3v-2.5C413.6,237.7,414.2,237.8,414.7,237.8z M417.4,206.2h3.6v3.3h-3.6V206.2z"/>
	<path class="st5" d="M441.7,223.1h-13.4c0,2.3,0.6,4.1,1.6,5.3c1.1,1.2,2.6,1.8,4.6,1.8c2.1,0,4.1-0.7,5.9-2.1l1,2.1
		c-0.8,0.8-1.8,1.3-3.1,1.8s-2.5,0.7-3.8,0.7c-2.9,0-5.1-0.8-6.7-2.5c-1.6-1.7-2.4-4-2.4-6.9c0-1.9,0.4-3.5,1.1-5
		c0.7-1.4,1.7-2.6,3.1-3.4c1.3-0.8,2.8-1.2,4.5-1.2c2.4,0,4.3,0.8,5.7,2.4c1.4,1.6,2.1,3.8,2.1,6.6v0.4L441.7,223.1L441.7,223.1z
		 M430.3,217.2c-1,0.9-1.6,2.2-1.8,3.9h10.7c-0.1-1.7-0.6-3-1.5-3.9s-2.1-1.3-3.6-1.3C432.5,215.8,431.2,216.3,430.3,217.2z"/>
	<path class="st5" d="M459.1,214h2.9l-7.8,18.3h-2.8l-7.8-18.3h3.1l6.2,15.1L459.1,214z"/>
	<path class="st5" d="M481.2,214v18.3h-2.9V229c-0.5,1.1-1.3,2-2.4,2.6c-1.1,0.6-2.3,0.9-3.8,0.9c-1.6,0-3.1-0.4-4.3-1.2
		s-2.2-1.9-2.8-3.3c-0.7-1.4-1-3.1-1-5s0.3-3.6,1-5s1.6-2.6,2.9-3.4s2.6-1.2,4.2-1.2c1.4,0,2.7,0.3,3.7,0.9c1.1,0.6,1.9,1.5,2.4,2.7
		v-3.2h3L481.2,214L481.2,214z M476.9,228.3c1-1.2,1.5-3,1.5-5.2s-0.5-4-1.5-5.2s-2.4-1.8-4.1-1.8s-3.2,0.6-4.2,1.9
		c-1,1.3-1.5,3-1.5,5.2s0.5,4,1.5,5.2s2.4,1.8,4.2,1.8C474.5,230.1,475.9,229.5,476.9,228.3z"/>
	<path class="st5" d="M490,231.4c-1.3-0.8-2.3-1.9-3.1-3.3c-0.7-1.4-1.1-3.1-1.1-5s0.4-3.6,1.1-5c0.7-1.4,1.8-2.6,3.1-3.4
		c1.3-0.8,2.9-1.2,4.7-1.2c1.2,0,2.4,0.2,3.6,0.6c1.2,0.4,2.1,1,2.9,1.8l-1,2.2c-0.9-0.7-1.8-1.3-2.7-1.6s-1.7-0.5-2.6-0.5
		c-1.9,0-3.3,0.6-4.4,1.9c-1.1,1.3-1.6,3-1.6,5.2s0.5,3.9,1.6,5.2c1.1,1.2,2.5,1.8,4.4,1.8c0.9,0,1.8-0.2,2.6-0.5
		c0.9-0.3,1.8-0.9,2.7-1.6l1,2.2c-0.8,0.7-1.8,1.3-2.9,1.7c-1.2,0.4-2.4,0.6-3.7,0.6C492.9,232.6,491.3,232.2,490,231.4z"/>
</g>
<circle class="st6" cx="108.3" cy="201.9" r="2.8"/>
<path class="st7" d="M111,192.3L111,192.3c-1.5-1.5-3.8-1.5-5.3,0l0,0c-1.3,1.3-1.5,3.8-0.4,5.3l3,4.3l3-4.3
	C112.5,196.1,112.3,193.6,111,192.3z M108.3,196.2c-0.7,0-1.2-0.5-1.2-1.2s0.5-1.2,1.2-1.2c0.7,0,1.2,0.5,1.2,1.2
	S109,196.2,108.3,196.2z"/>
<path class="st4" d="M83.7,140L83.7,140c-3.1-3.1-8.1-3.1-11.3,0l0,0c-2.8,2.8-3.1,8.1-0.8,11.3l6.4,9.2l6.4-9.2
	C86.8,148.1,86.5,142.8,83.7,140z M78.2,148.2c-1.5,0-2.6-1.2-2.6-2.6s1.2-2.6,2.6-2.6c1.5,0,2.6,1.2,2.6,2.6S79.6,148.2,78.2,148.2
	z"/>
<path class="st4" d="M128.2,153.6L128.2,153.6c-3.1-3.1-8.1-3.1-11.3,0l0,0c-2.8,2.8-3.1,8.1-0.8,11.3l6.4,9.2l6.4-9.2
	C131.3,161.7,131,156.4,128.2,153.6z M122.7,161.8c-1.5,0-2.6-1.2-2.6-2.6s1.2-2.6,2.6-2.6c1.5,0,2.6,1.2,2.6,2.6
	S124.1,161.8,122.7,161.8z"/>
</svg>
